<svg width="60" height="60" viewBox="0 0 60 60" fill="none" xmlns="http://www.w3.org/2000/svg">
<g clip-path="url(#clip0_670_8224)">
<path d="M42.9725 0C43.0305 0.0467963 43.0936 0.0877018 43.1607 0.122034C44.6098 0.660235 45.326 1.62399 45.326 3.09465C45.326 7.31056 45.326 11.527 45.326 15.7439V16.5012H46.1205C49.4667 16.5012 52.8146 16.5591 56.1591 16.4808C58.3844 16.4292 60.0183 17.8889 60.01 20.0793C59.9733 29.5854 59.995 39.0931 59.9933 48.5992C59.9933 49.6944 59.6869 49.9713 58.5026 49.9713C51.396 49.9713 44.2895 49.9682 37.1829 49.9619C36.6932 49.9619 36.3817 50.0793 36.1286 50.4907C35.7671 51.079 35.3307 51.6282 34.8844 52.2508C35.2657 52.3436 35.6397 52.4612 36.0037 52.6029C36.8681 53.0112 37.8075 53.3476 38.547 53.9108C40.0877 55.0842 40.0094 56.7661 38.4554 57.9536C37.3012 58.8376 35.9237 59.2709 34.4896 59.5447C30.8436 60.2409 27.2176 60.2222 23.6915 59.0159C22.7634 58.6877 21.91 58.1971 21.1765 57.5703C20.0588 56.619 20.1205 55.2141 21.1615 54.1799C22.1375 53.2083 23.4217 52.7625 24.7408 52.3823L25.1822 52.2602C24.6426 51.5061 24.1529 50.7739 23.5982 50.0871C23.4933 49.9572 23.1385 49.976 22.8987 49.976C15.8099 49.976 8.72164 49.976 1.63395 49.976C0.268151 49.976 0.0183105 49.7476 0.0183105 48.4866C0.0183105 39.0201 0.0183105 29.552 0.0183105 20.0824C0.0183105 18.2519 0.94272 17.0065 2.61832 16.6123C3.04478 16.5288 3.48052 16.4946 3.91582 16.5106C7.24036 16.5022 10.566 16.5022 13.8928 16.5106H14.6839V15.8096C14.6839 11.8076 14.7372 7.80391 14.659 3.80339C14.609 1.99478 15.157 0.671186 17.0224 0H42.9725ZM43.289 48.0313V3.34654C43.289 2.1575 42.9775 1.87275 41.7 1.87275H18.3116C16.9958 1.87275 16.696 2.14967 16.696 3.38253V48.0141H22.2808C21.9909 47.4227 21.7128 46.8861 21.4629 46.3369C20.5402 44.303 20.0405 42.2112 20.5918 40.0146C21.5479 36.205 25.1256 33.5233 29.5977 33.2104C33.4286 32.9445 37.4844 35.3382 38.9701 38.7442C39.9994 41.1051 39.7013 43.4378 38.7819 45.7533C38.4804 46.5121 38.104 47.2459 37.7459 48.0235L43.289 48.0313ZM14.6223 48.0313V18.3817H3.7959C2.51671 18.3817 2.03536 18.837 2.03536 20.0448C2.03536 29.1609 2.03536 38.2774 2.03536 47.3945V48.0203L14.6223 48.0313ZM57.928 48.0313C57.938 47.8232 57.9513 47.6714 57.9513 47.5181C57.9513 38.3228 57.9513 29.1286 57.9513 19.9353C57.9513 18.8902 57.4216 18.3911 56.314 18.3896C52.8429 18.3896 49.3712 18.3896 45.899 18.3896C45.7208 18.3896 45.5409 18.4115 45.3627 18.424V48.0313H57.928ZM30.0058 35.1192C26.5081 35.1192 23.3884 37.3205 22.5756 40.3917C22.0842 42.2456 22.5756 43.9901 23.3584 45.6751C24.8574 48.9121 27.2209 51.6203 29.4112 54.4365C29.7443 54.8652 30.254 54.8417 30.6204 54.4146C31.0368 53.9296 31.4232 53.4211 31.8163 52.9173C33.6218 50.6065 35.4607 48.3129 36.6466 45.6422C37.3861 43.9823 37.8591 42.2707 37.4194 40.4605C36.6682 37.3596 33.5419 35.1207 30.0058 35.1192ZM30.3723 58.1179C31.0851 58.0537 32.1661 58.0052 33.2288 57.8472C34.5612 57.6501 35.8754 57.345 37.0047 56.5956C37.7858 56.0793 37.8375 55.5896 37.0047 55.1875C36.0053 54.6978 34.9127 54.3802 33.84 54.0297C33.7001 53.9828 33.412 54.1314 33.2904 54.266C32.904 54.6978 32.5775 55.1765 32.1994 55.6146C30.9819 57.0321 28.9565 57.0086 27.7672 55.5677C27.4125 55.1359 27.0893 54.6806 26.7279 54.255C26.6263 54.1345 26.4214 53.9859 26.2965 54.0094C25.0123 54.2456 23.7481 54.5492 22.7121 55.369C22.2774 55.7116 22.2774 56.0965 22.7238 56.3859C23.2413 56.7384 23.8001 57.034 24.3894 57.2668C26.1916 57.9207 28.0954 58.0537 30.3723 58.1147V58.1179Z" fill="#00B4D8"/>
<path d="M19.1429 16.2102C19.1429 15.7236 19.1345 15.2355 19.1429 14.7489C19.1628 13.8571 19.7841 13.2454 20.7385 13.2235C21.8178 13.2006 22.8966 13.2006 23.9748 13.2235C24.9508 13.2454 25.5854 13.8587 25.6054 14.788C25.6271 15.7424 25.6237 16.6968 25.6054 17.6511C25.5871 18.6055 24.9691 19.2485 23.9598 19.2892C22.9038 19.333 21.8445 19.3315 20.7951 19.2892C19.7458 19.247 19.1545 18.618 19.1429 17.612C19.1395 17.1458 19.1429 16.678 19.1429 16.2102ZM21.1682 17.3289H23.56V15.1307H21.1682V17.3289Z" fill="#00B4D8"/>
<path d="M40.8407 16.243C40.8407 16.7296 40.8407 17.2162 40.8407 17.7043C40.8257 18.5742 40.271 19.2188 39.3416 19.2688C38.2027 19.3306 37.061 19.3306 35.9221 19.2688C34.9777 19.2219 34.3898 18.5664 34.3748 17.6714C34.3581 16.7171 34.3581 15.7627 34.3748 14.8083C34.3898 13.8493 35.026 13.2344 36.0404 13.2156C37.0975 13.1937 38.1552 13.1937 39.2134 13.2156C40.2127 13.2375 40.8223 13.8415 40.839 14.7802C40.849 15.2683 40.8407 15.7549 40.8407 16.243ZM36.4102 17.3382H38.8086V15.1478H36.4102V17.3382Z" fill="#00B4D8"/>
<path d="M30.029 13.2249C30.5887 13.2249 31.15 13.2015 31.7079 13.2249C32.1069 13.2346 32.4866 13.3885 32.7677 13.6546C33.0489 13.9207 33.2098 14.2785 33.217 14.6534C33.2481 15.7047 33.2481 16.7566 33.217 17.809C33.192 18.632 32.5324 19.2468 31.5997 19.2828C30.522 19.3251 29.4344 19.3298 28.3651 19.2828C27.3574 19.2375 26.7628 18.5866 26.7544 17.6229C26.7544 16.6841 26.7444 15.7454 26.7544 14.8176C26.7661 13.8539 27.3924 13.2531 28.4084 13.2171C28.9464 13.1999 29.486 13.2171 30.0257 13.2171L30.029 13.2249ZM28.7898 17.324H31.1833V15.1337H28.7898V17.324Z" fill="#00B4D8"/>
<path d="M30.0024 11.5932C29.4627 11.5932 28.9248 11.6026 28.3851 11.5932C27.4757 11.5745 26.7895 10.9815 26.7661 10.1398C26.7362 9.09049 26.7362 8.03913 26.7661 6.98567C26.7752 6.60001 26.9433 6.23272 27.2351 5.96127C27.5269 5.68982 27.9195 5.53542 28.3301 5.53065C29.4278 5.49779 30.5287 5.49936 31.628 5.53065C32.5558 5.55568 33.207 6.20027 33.2237 7.08111C33.242 8.07459 33.2437 9.06807 33.2237 10.0615C33.2054 10.9721 32.5308 11.5792 31.5581 11.5948C31.0401 11.6011 30.5221 11.5932 30.0024 11.5932ZM28.7898 9.70014H31.185V7.4519H28.7898V9.70014Z" fill="#00B4D8"/>
<path d="M37.5609 11.5933C37.0412 11.5933 36.5232 11.6027 36.0052 11.5933C35.0975 11.5729 34.4112 10.9878 34.3812 10.1383C34.3446 9.08689 34.3446 8.035 34.3812 6.98258C34.3937 6.59663 34.5644 6.2301 34.8577 5.95956C35.151 5.68901 35.5442 5.53536 35.9552 5.53069C37.0523 5.50149 38.1516 5.50149 39.2531 5.53069C40.1892 5.55573 40.8238 6.19719 40.8355 7.08271C40.8488 8.07672 40.8488 9.06759 40.8355 10.0553C40.8221 10.9659 40.1576 11.5714 39.1698 11.587C38.6419 11.6011 38.0989 11.5933 37.5609 11.5933ZM38.8267 7.4144C38.0922 7.4144 37.4326 7.40031 36.773 7.42691C36.6415 7.42691 36.4099 7.58337 36.4066 7.68506C36.3733 8.35468 36.3883 9.02587 36.3883 9.68141H38.8267V7.4144Z" fill="#00B4D8"/>
<path d="M19.1427 8.49233C19.1427 8.02297 19.1427 7.55361 19.1427 7.08425C19.161 6.19716 19.7856 5.54787 20.7167 5.51971C21.8143 5.48842 22.9152 5.48999 24.0129 5.51971C24.4242 5.52152 24.8188 5.67294 25.1139 5.9422C25.4089 6.21145 25.5814 6.5776 25.5952 6.96378C25.6402 8.01358 25.6385 9.06808 25.5952 10.1179C25.5619 10.9972 24.869 11.5745 23.9196 11.5839C22.8836 11.5932 21.847 11.5932 20.8099 11.5839C19.7989 11.5745 19.156 10.958 19.1443 10.0037C19.136 9.50615 19.1427 8.99924 19.1427 8.49233ZM23.5948 9.70015C23.5948 9.00863 23.6098 8.3703 23.5798 7.73353C23.5603 7.6599 23.5207 7.59232 23.4649 7.53745C23.4091 7.48258 23.3391 7.44231 23.2617 7.42062C22.5671 7.39246 21.8693 7.40654 21.1764 7.40654V9.70015H23.5948Z" fill="#00B4D8"/>
<path d="M19.1428 23.9125C19.1428 23.4431 19.1428 22.9738 19.1428 22.5044C19.1562 21.5234 19.7908 20.8914 20.8368 20.8663C21.8528 20.8434 22.8688 20.8434 23.8848 20.8663C24.9225 20.8882 25.592 21.5219 25.6104 22.4903C25.6287 23.4588 25.6304 24.3991 25.6104 25.3519C25.5904 26.3047 24.9441 26.9164 23.9314 26.9383C22.8754 26.9571 21.8161 26.9586 20.7668 26.9383C19.7824 26.9164 19.1678 26.3031 19.1512 25.3738C19.1362 24.8872 19.1428 24.4069 19.1428 23.9125ZM23.555 25.0468V22.8111H21.1799V25.0468H23.555Z" fill="#00B4D8"/>
<path d="M29.9908 26.943C29.4311 26.943 28.8698 26.9633 28.3118 26.943C27.902 26.9397 27.5099 26.7851 27.2204 26.5125C26.9308 26.24 26.7671 25.8714 26.7645 25.4864C26.7378 24.4554 26.7395 23.4228 26.7645 22.3902C26.7828 21.5328 27.4557 20.907 28.4051 20.8788C29.4633 20.8496 30.521 20.8496 31.5781 20.8788C32.5774 20.9086 33.2154 21.5594 33.227 22.506C33.2387 23.4525 33.242 24.4147 33.227 25.3691C33.212 26.3234 32.5608 26.9226 31.5481 26.9508C31.0301 26.9649 30.5104 26.9508 29.9924 26.9508L29.9908 26.943ZM31.19 22.8095H28.8015V25.0327H31.19V22.8095Z" fill="#00B4D8"/>
<path d="M40.8407 23.9187C40.8407 24.4444 40.8557 24.9716 40.8407 25.4973C40.8386 25.8728 40.681 26.2328 40.4011 26.5009C40.1213 26.769 39.7413 26.9242 39.3416 26.9336C38.2024 26.9648 37.0598 26.9648 35.9205 26.9336C35.5095 26.9307 35.1166 26.7746 34.828 26.4998C34.5394 26.2249 34.3788 25.8536 34.3815 25.4676C34.3504 24.435 34.3504 23.4024 34.3815 22.3698C34.3838 21.9834 34.5455 21.6129 34.8324 21.3361C35.1194 21.0592 35.5094 20.8976 35.9205 20.8851C37.0381 20.8381 38.1607 20.8381 39.28 20.8851C40.2261 20.9226 40.824 21.5672 40.8407 22.459C40.849 22.9456 40.8407 23.4321 40.8407 23.9187ZM38.8086 25.0514V22.8157H36.4285V25.0514H38.8086Z" fill="#00B4D8"/>
<path d="M8.34128 21.6438C8.92257 21.6438 9.5072 21.6093 10.0852 21.6438C10.918 21.7016 11.5059 22.2054 11.5459 22.9814C11.6025 24.0907 11.6009 25.2046 11.5459 26.3139C11.5093 27.0774 10.9796 27.6078 10.1601 27.6531C8.95857 27.7188 7.75397 27.7188 6.55242 27.6531C6.17982 27.6498 5.82363 27.5087 5.5611 27.2603C5.29856 27.012 5.15084 26.6764 5.14998 26.3264C5.08835 25.2163 5.08835 24.104 5.14998 22.9939C5.19495 22.1866 5.7929 21.6923 6.66068 21.6344C7.21866 21.5968 7.78163 21.6344 8.34294 21.6344L8.34128 21.6438ZM9.53551 23.5603H7.20367V25.7507H9.53551V23.5603Z" fill="#00B4D8"/>
<path d="M51.6586 21.6468C52.2383 21.6468 52.8246 21.6124 53.3975 21.6468C54.202 21.7078 54.7817 22.1897 54.825 22.9454C54.8875 24.092 54.8875 25.2408 54.825 26.3874C54.8195 26.7166 54.6793 27.0312 54.4333 27.2657C54.1873 27.5003 53.8545 27.6368 53.5041 27.6468C52.2642 27.7117 51.0214 27.7117 49.7815 27.6468C49.4212 27.6339 49.0802 27.4905 48.83 27.2467C48.5797 27.0029 48.4396 26.6775 48.439 26.3389C48.3857 25.2124 48.3841 24.0812 48.439 22.9563C48.479 22.2085 49.0636 21.7344 49.8565 21.6406C49.9381 21.6286 50.0204 21.6213 50.103 21.6187C50.621 21.6187 51.1406 21.6187 51.6586 21.6187V21.6468ZM50.4577 25.7475H52.7996V23.5571H50.4577V25.7475Z" fill="#00B4D8"/>
<path d="M35.9771 41.6855C35.9732 42.7968 35.6188 43.8821 34.9589 44.8044C34.2989 45.7267 33.3628 46.4447 32.2688 46.8677C31.1748 47.2908 29.9719 47.4 28.812 47.1815C27.652 46.963 26.5869 46.4266 25.7512 45.64C24.9154 44.8534 24.3464 43.852 24.1161 42.7619C23.8857 41.6719 24.0043 40.5422 24.4568 39.5154C24.9093 38.4887 25.6755 37.6108 26.6586 36.9926C27.6418 36.3745 28.7979 36.0438 29.9809 36.0422C30.7694 36.0422 31.55 36.1883 32.2783 36.472C33.0065 36.7558 33.6681 37.1716 34.225 37.6958C34.782 38.22 35.2234 38.8421 35.524 39.5268C35.8247 40.2114 35.9786 40.945 35.9771 41.6855ZM30.0026 37.9385C29.4777 37.9364 28.9576 38.0318 28.4722 38.2193C27.9867 38.4068 27.5456 38.6826 27.174 39.0309C26.8025 39.3791 26.508 39.793 26.3074 40.2485C26.1068 40.7041 26.0041 41.1925 26.0052 41.6855C26.0609 42.6476 26.5083 43.5527 27.2546 44.2136C28.001 44.8746 28.9893 45.2407 30.015 45.2363C31.0408 45.2318 32.0254 44.8572 32.7653 44.1899C33.5052 43.5226 33.9437 42.6136 33.9901 41.6511C33.9817 40.6635 33.558 39.7189 32.8114 39.0235C32.0648 38.328 31.0557 37.938 30.0043 37.9385H30.0026Z" fill="#00B4D8"/>
</g>
<defs>
<clipPath id="clip0_670_8224">
<rect width="60" height="60" fill="white"/>
</clipPath>
</defs>
</svg>
