<svg width="79" height="60" viewBox="0 0 79 60" fill="none" xmlns="http://www.w3.org/2000/svg">
<g clip-path="url(#clip0_670_8248)">
<path d="M13.4936 50.9184H65.5402V35.2592C65.5402 35.0173 65.4534 34.7197 65.5619 34.5456C65.8028 34.2169 66.0739 33.9116 66.3715 33.6335C66.6124 33.9456 67.0799 34.2553 67.0944 34.5746C67.1546 37.197 67.1281 39.8242 67.1281 42.449V50.9692H68.1618C71.0195 50.9692 73.8749 50.9692 76.7302 50.9692C78.3326 50.9692 79.0121 51.6805 79.0193 53.3062C79.0193 54.7576 79.0193 56.2091 79.0193 57.6606C79.0193 59.2234 78.2651 59.9709 76.6941 60.0048C76.576 60.0048 76.4531 60.0048 76.335 60.0048H2.72282C2.48187 60.0048 2.24091 60.0169 1.99996 60.0048C0.756619 59.8959 0.0337498 59.1387 0.0168829 57.8735C-0.00400002 56.2753 -0.00400002 54.6762 0.0168829 53.0763C0.0337498 51.7627 0.787944 51.0007 2.10116 50.9934C5.31552 50.9741 8.52988 50.9934 11.9033 50.9934V35.1383C11.9033 34.8963 11.8213 34.6085 11.925 34.4246C12.0984 34.1246 12.3876 33.6989 12.6334 33.6989C12.8791 33.6989 13.2526 34.0569 13.4382 34.352C13.5659 34.5456 13.4864 34.8794 13.4864 35.1504C13.4864 40.0387 13.4864 44.927 13.4864 49.8153L13.4936 50.9184ZM39.4157 58.4178H72.8725C74.1062 58.4178 75.3399 58.3961 76.5712 58.4178C77.1904 58.4348 77.4314 58.2243 77.4121 57.5832C77.3736 56.347 77.4121 55.1084 77.4121 53.8722C77.4121 52.5611 77.4121 52.5611 76.0917 52.5611H2.93246C2.81209 52.5683 2.69139 52.5683 2.57102 52.5611C1.84815 52.4643 1.54937 52.7231 1.58792 53.5069C1.65057 54.7407 1.60479 55.9817 1.60479 57.2179C1.60479 58.4082 1.60479 58.4106 2.79029 58.4106L39.4157 58.4178Z" fill="#00B4D8"/>
<path d="M39.4977 23.103H71.063C72.9617 23.103 73.7473 23.8868 73.7521 25.7835C73.7521 26.9592 73.7521 28.1373 73.7521 29.313C73.7521 31.3161 72.9569 32.1241 70.9859 32.1265H8.21673C5.99029 32.1265 5.25537 31.3862 5.25537 29.1461C5.25537 27.9994 5.25537 26.8527 5.25537 25.706C5.26742 23.9183 6.07703 23.103 7.84324 23.103H39.4977ZM39.4977 30.5274H50.7696C57.5325 30.5274 64.2953 30.5274 71.0582 30.5274C71.875 30.5274 72.2027 30.2565 72.169 29.4243C72.1232 28.3091 72.169 27.1914 72.169 26.0762C72.169 24.6827 72.169 24.6827 70.7594 24.6803H8.26251C8.17262 24.6852 8.08253 24.6852 7.99264 24.6803C7.14447 24.5739 6.78785 24.9077 6.82882 25.8004C6.88665 26.9132 6.84327 28.0309 6.84327 29.1485C6.84327 30.4936 6.86737 30.5153 8.21191 30.5153C18.6405 30.5266 29.0707 30.5307 39.5025 30.5274H39.4977Z" fill="#00B4D8"/>
<path d="M23.0065 20.4057H17.0043C16.9705 20.6041 17.0043 20.8678 16.8934 20.9815C16.6525 21.2234 16.3296 21.533 16.0766 21.5016C15.8236 21.4701 15.5007 21.1048 15.3899 20.8049C15.279 20.5049 15.3513 20.0791 15.3513 19.7283C15.3513 15.565 15.3513 11.3992 15.3513 7.2358C15.3513 6.67939 15.2887 6.33587 14.6622 6.09395C13.2646 5.56416 12.5827 4.19249 12.7996 2.66116C12.9923 1.31127 14.0887 0.128304 15.532 0.0823404C18.5038 -0.014426 21.4756 -0.014426 24.4474 0.0823404C25.1452 0.118996 25.8075 0.402815 26.3166 0.883374C26.8257 1.36393 27.1486 2.01012 27.2281 2.70713C27.4232 4.24571 26.7461 5.58835 25.3004 6.1254C24.6908 6.3528 24.6546 6.68665 24.6571 7.20193C24.6571 11.3363 24.6571 15.4706 24.6571 19.605C24.6571 19.8178 24.6571 20.0283 24.6571 20.2388C24.6787 20.8436 24.6378 21.5306 23.8884 21.5088C23.5246 21.5088 23.1655 20.9403 22.821 20.6307L23.0065 20.4057ZM16.9826 6.46408V18.7268H23.0306V6.46408H16.9826ZM20.009 4.82389C21.3294 4.82389 22.6595 4.82389 23.9751 4.82389C24.9823 4.80938 25.6185 4.2312 25.6787 3.33127C25.7025 3.11127 25.6791 2.88872 25.6102 2.67852C25.5414 2.46831 25.4285 2.27532 25.2793 2.11245C25.1301 1.94959 24.9479 1.82061 24.745 1.73417C24.5421 1.64773 24.3232 1.60582 24.1029 1.61125C21.372 1.56609 18.6412 1.56609 15.9103 1.61125C15.698 1.6084 15.4873 1.64914 15.2912 1.73097C15.095 1.81281 14.9176 1.93401 14.7699 2.08714C14.6221 2.24028 14.507 2.42211 14.4317 2.62149C14.3564 2.82087 14.3225 3.03359 14.3321 3.2466C14.3489 4.17314 15.0212 4.80938 16.0525 4.82389C17.3729 4.83841 18.6958 4.82389 20.0186 4.82389H20.009Z" fill="#00B4D8"/>
<path d="M61.4945 20.396H55.4706C55.3983 20.6379 55.3838 20.9355 55.2296 21.1218C55.0754 21.308 54.7284 21.5669 54.5068 21.5282C54.2084 21.4299 53.9591 21.2203 53.8104 20.9428C53.6923 20.7323 53.7646 20.413 53.7646 20.142C53.7646 15.8262 53.7646 11.5105 53.7646 7.19467C53.7646 6.66004 53.6875 6.35764 53.0972 6.13266C52.4432 5.88474 51.8944 5.41804 51.5433 4.81123C51.1922 4.20442 51.0601 3.49462 51.1695 2.80148C51.3719 1.31127 52.4369 0.1404 53.9694 0.0823404C56.9107 -0.014426 59.8552 -0.014426 62.8029 0.0823404C63.5033 0.108455 64.1722 0.381134 64.6925 0.852616C65.2127 1.3241 65.5512 1.96433 65.6486 2.66116C65.863 4.21668 65.1474 5.58109 63.6848 6.14717C63.1137 6.3649 63.0872 6.68907 63.0896 7.16322C63.0896 11.329 63.0896 15.494 63.0896 19.6582C63.0896 19.8686 63.0896 20.0815 63.0896 20.292C63.0896 20.8629 63.0583 21.4629 62.3475 21.5306C61.6367 21.5983 61.4776 21.0468 61.4945 20.396ZM61.4439 18.7462V6.49069H55.42V18.7462H61.4439ZM58.3693 4.82389C59.6921 4.82389 61.0198 4.82389 62.3354 4.82389C63.4077 4.82389 64.051 4.23362 64.0872 3.29257C64.1233 2.31281 63.4848 1.61367 62.4005 1.59915C59.7548 1.56529 57.1091 1.56529 54.4634 1.59915C53.4032 1.59915 52.6851 2.36603 52.7309 3.29257C52.7767 4.2191 53.4682 4.82147 54.5019 4.83357C55.7838 4.83841 57.0754 4.82389 58.3693 4.82389Z" fill="#00B4D8"/>
<path d="M42.1024 20.4129H36.2375C36.1701 20.6669 36.1701 20.95 36.0303 21.1097C35.852 21.3104 35.5339 21.5572 35.3219 21.5185C35.1756 21.4745 35.04 21.4007 34.9235 21.3016C34.807 21.2025 34.7121 21.0803 34.6448 20.9427C34.5219 20.7008 34.5822 20.3525 34.5822 20.0525C34.5822 15.7682 34.5822 11.4838 34.5822 7.19949C34.5822 6.66727 34.5027 6.3552 33.9123 6.13022C33.2613 5.87977 32.7131 5.4167 32.3561 4.81553C31.999 4.21437 31.8537 3.51006 31.9437 2.81597C32.1292 1.36447 33.2497 0.128282 34.7484 0.079899C37.7186 -0.0168674 40.6904 -0.0168674 43.6638 0.079899C45.1626 0.128282 46.2469 1.32819 46.4758 2.81113C46.5632 3.50491 46.4178 4.20815 46.0626 4.80968C45.7074 5.41122 45.1626 5.87673 44.5144 6.13264C43.9337 6.35036 43.8277 6.64308 43.8301 7.18739C43.8469 11.5903 43.8301 15.9956 43.8445 20.4008C43.8445 20.95 43.7915 21.5741 43.1337 21.5088C42.7361 21.4677 42.3868 20.95 42.0157 20.6452L42.1024 20.4129ZM36.2038 6.45197V18.734H42.194V6.45197H36.2038ZM39.1362 4.82387C40.4856 4.82387 41.835 4.82387 43.1819 4.82387C44.1915 4.80936 44.8951 4.15376 44.9192 3.25626C44.9267 3.036 44.8888 2.81657 44.8078 2.61173C44.7269 2.40689 44.6046 2.22107 44.4487 2.06592C44.2928 1.91077 44.1067 1.78964 43.9019 1.71015C43.6972 1.63065 43.4783 1.59451 43.259 1.60397C40.5603 1.56526 37.8624 1.56526 35.1653 1.60397C34.9462 1.59364 34.7274 1.62985 34.5231 1.71024C34.3189 1.79062 34.1339 1.91337 33.9801 2.07046C33.8264 2.22755 33.7074 2.41545 33.631 2.62187C33.5545 2.82828 33.5223 3.04858 33.5364 3.26835C33.5629 4.18763 34.2376 4.80694 35.2689 4.82145C36.558 4.83839 37.8471 4.82387 39.1362 4.82387Z" fill="#00B4D8"/>
<path d="M55.3597 37.5213C55.3597 38.3076 55.3597 39.0914 55.3597 39.8752C55.3742 41.7549 56.6368 43.0854 58.4006 43.0927C60.1644 43.0999 61.468 41.7815 61.5017 39.909C61.5306 38.2156 61.5162 36.5222 61.5017 34.8288C61.5017 34.2482 61.5258 33.6483 62.2607 33.6434C62.9957 33.6386 63.092 34.2047 63.0896 34.8022C63.0896 36.5222 63.1234 38.2422 63.0776 39.9623C63.0053 42.7274 60.9523 44.7207 58.2922 44.6651C55.6971 44.6119 53.7743 42.558 53.7622 39.8123C53.7622 38.1189 53.7622 36.4255 53.7622 34.732C53.7622 34.1563 53.8923 33.6434 54.5405 33.6313C55.1887 33.6192 55.3694 34.1152 55.3646 34.6957C55.3525 35.6513 55.3597 36.5875 55.3597 37.5213Z" fill="#00B4D8"/>
<path d="M15.3515 37.3954C15.3515 36.4906 15.3515 35.5858 15.3515 34.6787C15.3515 34.0908 15.5683 33.6239 16.2093 33.6529C16.8044 33.682 16.9514 34.1368 16.9466 34.6956C16.9338 36.4164 16.9338 38.1364 16.9466 39.8557C16.9466 41.7378 18.2213 43.0756 19.9802 43.0925C21.7778 43.1119 23.0765 41.7595 23.0886 39.8363C23.1014 38.1461 23.1014 36.4527 23.0886 34.7561C23.0886 34.1876 23.1874 33.6554 23.8428 33.6433C24.544 33.6312 24.6885 34.1755 24.6861 34.7803C24.6861 36.5317 24.715 38.2832 24.6861 40.0323C24.6855 40.6472 24.5635 41.2558 24.327 41.8231C24.0905 42.3903 23.7443 42.9048 23.3084 43.3367C22.8726 43.7687 22.3557 44.1096 21.7877 44.3397C21.2197 44.5697 20.6119 44.6844 19.9995 44.677C17.4333 44.677 15.4213 42.6643 15.3515 40.0202C15.3346 39.1468 15.3539 38.2711 15.3515 37.3954Z" fill="#00B4D8"/>
<path d="M43.8373 37.572C43.8373 38.4768 43.8638 39.384 43.8373 40.2863C43.7915 41.4581 43.2987 42.5673 42.4608 43.3842C41.6229 44.2011 40.5041 44.6632 39.3362 44.6747C36.8327 44.7207 34.758 42.8894 34.6327 40.4146C34.5436 38.4792 34.599 36.556 34.5893 34.6279C34.5893 34.0788 34.7797 33.6312 35.3869 33.6603C35.9941 33.6893 36.1483 34.1441 36.1507 34.686C36.1507 36.435 36.1194 38.1841 36.1628 39.9331C36.211 41.8104 37.4399 43.0781 39.1651 43.1022C39.556 43.1207 39.9467 43.0609 40.3144 42.9263C40.682 42.7917 41.0193 42.5849 41.3066 42.3181C41.5939 42.0513 41.8254 41.7298 41.9877 41.3722C42.15 41.0147 42.2397 40.6283 42.2518 40.2355C42.3096 38.5421 42.2735 36.8487 42.2783 35.1698C42.2783 34.9279 42.2012 34.6279 42.312 34.4586C42.5526 34.1606 42.8231 33.8882 43.1192 33.6458C43.3602 33.9336 43.7915 34.2046 43.8204 34.5118C43.9095 35.5303 43.8541 36.5608 43.8541 37.5841L43.8373 37.572Z" fill="#00B4D8"/>
</g>
<defs>
<clipPath id="clip0_670_8248">
<rect width="79" height="60" fill="white"/>
</clipPath>
</defs>
</svg>
