<svg width="35" height="35" viewBox="0 0 35 35" fill="none" xmlns="http://www.w3.org/2000/svg">
<path d="M17.5014 29.1795C18.7088 29.1795 19.6875 28.2008 19.6875 26.9935V19.6974H26.9821C28.1888 19.6974 29.1672 18.7196 29.1681 17.5128C29.1688 16.3049 28.1899 15.3253 26.9821 15.3253H19.6875V8.03081C19.6875 6.82403 18.7097 5.84551 17.5029 5.84473C16.295 5.84394 15.3154 6.82292 15.3154 8.03081V15.3253H8.01938C6.81206 15.3253 5.83331 16.304 5.83331 17.5114C5.83331 18.7187 6.81206 19.6974 8.01938 19.6974H15.3154V26.9935C15.3154 28.2008 16.2941 29.1795 17.5014 29.1795Z" stroke="#A6DAE5" stroke-width="2" stroke-linecap="round" stroke-linejoin="round"/>
</svg>
