<svg width="35" height="35" viewBox="0 0 35 35" fill="none" xmlns="http://www.w3.org/2000/svg">
<path d="M14.5859 4.375C10.2891 4.42178 7.89104 4.6948 6.29769 6.28816C4.37488 8.21096 4.37488 11.3057 4.37488 17.495C4.37488 23.6846 4.37488 26.7794 6.29769 28.7022C8.2205 30.625 11.3152 30.625 17.5047 30.625C23.6942 30.625 26.7889 30.625 28.7117 28.7022C30.3054 27.1085 30.5781 24.7097 30.6249 20.4113" stroke="#03045E" stroke-width="2.1875" stroke-linecap="round" stroke-linejoin="round"/>
<path d="M20.4166 4.375H26.25C28.3123 4.375 29.3435 4.375 29.9843 5.0157C30.625 5.65641 30.625 6.68761 30.625 8.75V14.5833M29.1666 5.83333L16.0416 18.9583" stroke="#03045E" stroke-width="2.1875" stroke-linecap="round" stroke-linejoin="round"/>
</svg>
