<svg width="40" height="40" viewBox="0 0 40 40" fill="none" xmlns="http://www.w3.org/2000/svg">
<path d="M30 30C32.0745 30.7073 33.3333 31.6365 33.3333 32.6542C33.3333 34.8702 27.3638 36.6667 20 36.6667C12.6362 36.6667 6.66663 34.8702 6.66663 32.6542C6.66663 31.6365 7.92541 30.7073 9.99996 30" stroke="#00B4D8" stroke-width="2" stroke-linecap="round"/>
<path d="M25 15.833C25 18.5945 22.7615 20.833 20 20.833C17.2385 20.833 15 18.5945 15 15.833C15 13.0716 17.2385 10.833 20 10.833C22.7615 10.833 25 13.0716 25 15.833Z" stroke="#00B4D8" stroke-width="2"/>
<path d="M20 3.33301C26.7647 3.33301 32.5 9.04639 32.5 15.9778C32.5 23.0197 26.6713 27.9613 21.2875 31.3217C20.8952 31.5475 20.4515 31.6663 20 31.6663C19.5485 31.6663 19.1048 31.5475 18.7125 31.3217C13.3387 27.9285 7.5 23.044 7.5 15.9778C7.5 9.04639 13.2353 3.33301 20 3.33301Z" stroke="#00B4D8" stroke-width="2"/>
</svg>
