<svg width="40" height="40" viewBox="0 0 40 40" fill="none" xmlns="http://www.w3.org/2000/svg">
<path d="M3.33331 10L14.855 16.5283C19.1026 18.935 20.8973 18.935 25.145 16.5283L36.6666 10" stroke="#00B4D8" stroke-width="2" stroke-linejoin="round"/>
<path d="M3.3596 22.459C3.46855 27.5683 3.52303 30.1228 5.40825 32.0153C7.29345 33.9077 9.9172 33.9735 15.1647 34.1053C18.3988 34.1867 21.6011 34.1867 24.8353 34.1053C30.0828 33.9735 32.7065 33.9077 34.5918 32.0153C36.477 30.1228 36.5315 27.5683 36.6403 22.459C36.6755 20.8162 36.6755 19.1832 36.6403 17.5403C36.5315 12.4311 36.477 9.87649 34.5918 7.98411C32.7065 6.09173 30.0828 6.02581 24.8353 5.89396C21.6011 5.81269 18.3988 5.81269 15.1647 5.89394C9.9172 6.02578 7.29345 6.09169 5.40823 7.98409C3.52301 9.87648 3.46855 12.4311 3.35958 17.5403C3.32455 19.1832 3.32456 20.8162 3.3596 22.459Z" stroke="#00B4D8" stroke-width="2" stroke-linejoin="round"/>
</svg>
