<svg width="35" height="35" viewBox="0 0 35 35" fill="none" xmlns="http://www.w3.org/2000/svg">
<path d="M17.5016 29.1795C18.709 29.1795 19.6877 28.2008 19.6877 26.9935V19.6974H26.9822C28.189 19.6974 29.1674 18.7196 29.1683 17.5128C29.169 16.3049 28.19 15.3253 26.9822 15.3253H19.6877V8.03081C19.6877 6.82403 18.7098 5.84551 17.5031 5.84473C16.2951 5.84394 15.3156 6.82292 15.3156 8.03081V15.3253H8.01957C6.81224 15.3253 5.8335 16.304 5.8335 17.5114C5.8335 18.7187 6.81224 19.6974 8.01957 19.6974H15.3156V26.9935C15.3156 28.2008 16.2943 29.1795 17.5016 29.1795Z" stroke="#A6DAE5" stroke-width="2" stroke-linecap="round" stroke-linejoin="round"/>
</svg>
