<svg width="120" height="24" viewBox="0 0 120 24" fill="none" xmlns="http://www.w3.org/2000/svg">
<g clip-path="url(#clip0_2095_2224)">
<path d="M13.7276 3.44418L15.4874 6.99288C15.7274 7.48687 16.3673 7.9607 16.9073 8.05143L20.0969 8.58575C22.1367 8.92853 22.6167 10.4206 21.1468 11.8925L18.6671 14.3927C18.2471 14.8161 18.0172 15.6327 18.1471 16.2175L18.8571 19.3125C19.417 21.7623 18.1271 22.71 15.9774 21.4296L12.9877 19.6452C12.4478 19.3226 11.5579 19.3226 11.0079 19.6452L8.01827 21.4296C5.8785 22.71 4.57865 21.7522 5.13859 19.3125L5.84851 16.2175C5.97849 15.6327 5.74852 14.8161 5.32856 14.3927L2.84884 11.8925C1.389 10.4206 1.85895 8.92853 3.89872 8.58575L7.08837 8.05143C7.61831 7.9607 8.25824 7.48687 8.49821 6.99288L10.258 3.44418C11.2179 1.51861 12.7777 1.51861 13.7276 3.44418Z" fill="#00B4D8"/>
<path d="M37.7276 3.44418L39.4874 6.99288C39.7274 7.48687 40.3673 7.9607 40.9073 8.05143L44.0969 8.58575C46.1367 8.92853 46.6167 10.4206 45.1468 11.8925L42.6671 14.3927C42.2471 14.8161 42.0172 15.6327 42.1471 16.2175L42.8571 19.3125C43.417 21.7623 42.1271 22.71 39.9774 21.4296L36.9877 19.6452C36.4478 19.3226 35.5579 19.3226 35.0079 19.6452L32.0183 21.4296C29.8785 22.71 28.5786 21.7522 29.1386 19.3125L29.8485 16.2175C29.9785 15.6327 29.7485 14.8161 29.3286 14.3927L26.8488 11.8925C25.389 10.4206 25.8589 8.92853 27.8987 8.58575L31.0884 8.05143C31.6183 7.9607 32.2582 7.48687 32.4982 6.99288L34.258 3.44418C35.2179 1.51861 36.7777 1.51861 37.7276 3.44418Z" fill="#00B4D8"/>
<path d="M61.7276 3.44418L63.4874 6.99288C63.7274 7.48687 64.3673 7.9607 64.9073 8.05143L68.0969 8.58575C70.1367 8.92853 70.6167 10.4206 69.1468 11.8925L66.6671 14.3927C66.2471 14.8161 66.0172 15.6327 66.1471 16.2175L66.8571 19.3125C67.417 21.7623 66.1271 22.71 63.9774 21.4296L60.9877 19.6452C60.4478 19.3226 59.5579 19.3226 59.0079 19.6452L56.0183 21.4296C53.8785 22.71 52.5786 21.7522 53.1386 19.3125L53.8485 16.2175C53.9785 15.6327 53.7485 14.8161 53.3286 14.3927L50.8488 11.8925C49.389 10.4206 49.8589 8.92853 51.8987 8.58575L55.0884 8.05143C55.6183 7.9607 56.2582 7.48687 56.4982 6.99288L58.258 3.44418C59.2179 1.51861 60.7777 1.51861 61.7276 3.44418Z" fill="#00B4D8"/>
<path d="M85.7276 3.44418L87.4874 6.99288C87.7274 7.48687 88.3673 7.9607 88.9073 8.05143L92.0969 8.58575C94.1367 8.92853 94.6167 10.4206 93.1468 11.8925L90.6671 14.3927C90.2471 14.8161 90.0172 15.6327 90.1471 16.2175L90.8571 19.3125C91.417 21.7623 90.1271 22.71 87.9774 21.4296L84.9877 19.6452C84.4478 19.3226 83.5579 19.3226 83.0079 19.6452L80.0183 21.4296C77.8785 22.71 76.5786 21.7522 77.1386 19.3125L77.8485 16.2175C77.9785 15.6327 77.7485 14.8161 77.3286 14.3927L74.8488 11.8925C73.389 10.4206 73.8589 8.92853 75.8987 8.58575L79.0884 8.05143C79.6183 7.9607 80.2582 7.48687 80.4982 6.99288L82.258 3.44418C83.2179 1.51861 84.7777 1.51861 85.7276 3.44418Z" fill="#00B4D8"/>
<path d="M109.728 3.44418L111.487 6.99288C111.727 7.48687 112.367 7.9607 112.907 8.05143L116.097 8.58575C118.137 8.92853 118.617 10.4206 117.147 11.8925L114.667 14.3927C114.247 14.8161 114.017 15.6327 114.147 16.2175L114.857 19.3125C115.417 21.7623 114.127 22.71 111.977 21.4296L108.988 19.6452C108.448 19.3226 107.558 19.3226 107.008 19.6452L104.018 21.4296C101.878 22.71 100.579 21.7522 101.139 19.3125L101.849 16.2175C101.978 15.6327 101.749 14.8161 101.329 14.3927L98.8488 11.8925C97.389 10.4206 97.8589 8.92853 99.8987 8.58575L103.088 8.05143C103.618 7.9607 104.258 7.48687 104.498 6.99288L106.258 3.44418C107.218 1.51861 108.778 1.51861 109.728 3.44418Z" fill="#00B4D8"/>
</g>
<defs>
<clipPath id="clip0_2095_2224">
<rect width="120" height="24" fill="white"/>
</clipPath>
</defs>
</svg>
