<svg width="60" height="60" viewBox="0 0 60 60" fill="none" xmlns="http://www.w3.org/2000/svg">
<g clip-path="url(#clip0_670_8191)">
<path d="M16.0014 32.229C16.0014 31.17 16.0194 30.129 16.0014 29.088C15.9773 28.9865 15.9324 28.8911 15.8693 28.8079C15.8063 28.7247 15.7266 28.6556 15.6353 28.605C14.232 27.8171 13.0183 26.7314 12.0795 25.4243C11.1408 24.1172 10.4998 22.6203 10.2015 21.039C10.1325 20.715 10.0905 20.385 10.0395 20.064C7.69915 19.92 5.90489 18.21 6.0009 15.756C6.08191 13.746 7.63915 12.228 10.0035 11.964C10.0035 10.395 9.9795 8.814 10.0035 7.239C10.0079 6.5542 10.0884 5.87201 10.2435 5.205C10.6206 3.71729 11.483 2.39774 12.6943 1.45505C13.9055 0.51236 15.3966 0.000349324 16.9315 0C20.232 0 23.5145 0 26.806 0C27.6641 0 28.0062 0.345 28.0062 1.221C28.0062 1.743 28.0062 2.262 28.0062 2.784C28.0155 2.85585 28.0295 2.927 28.0482 2.997H30.6226C31.7118 2.997 31.9998 3.297 31.9998 4.35C31.9998 6.87 31.9998 9.387 31.9998 11.952C33.341 12.057 34.4602 12.552 35.2523 13.659C35.84 14.4592 36.1085 15.4496 36.0054 16.437C35.8434 18.381 34.2741 19.812 32.0118 20.037C31.9158 20.538 31.8438 21.066 31.7118 21.582C31.3642 23.0361 30.7208 24.4029 29.8215 25.5973C28.9222 26.7917 27.7864 27.788 26.485 28.524C26.3195 28.5978 26.1821 28.7227 26.093 28.8804C26.0039 29.0381 25.9678 29.2202 25.9899 29.4C26.0229 30.336 25.9899 31.272 25.9899 32.25L31.9908 34.128C31.9908 33.693 31.9908 33.321 31.9908 32.949C31.9963 32.1697 32.3092 31.424 32.8615 30.8741C33.4138 30.3242 34.1608 30.0144 34.9402 30.012C40.293 30.012 45.6478 30.012 51.0047 30.012C51.3958 30.0096 51.7836 30.0848 52.1456 30.2331C52.5075 30.3814 52.8365 30.5999 53.1136 30.876C53.3906 31.1522 53.6101 31.4805 53.7596 31.8419C53.909 32.2034 53.9853 32.5909 53.9841 32.982C53.9841 34.182 53.9841 35.358 53.9991 36.546C54.0074 36.589 54.0194 36.6311 54.0351 36.672C54.1491 36.519 54.2481 36.402 54.3351 36.276C55.3073 34.71 57.0355 34.221 58.5358 35.1C60.036 35.979 60.4291 37.755 59.5199 39.345C57.9297 42.126 56.3514 44.916 54.7192 47.664C54.2167 48.4727 53.966 49.4125 53.9991 50.364C54.0531 52.551 54.0201 54.741 53.9991 56.928C54.0141 57.3339 53.9455 57.7386 53.7975 58.1169C53.6496 58.4952 53.4254 58.8391 53.139 59.1271C52.8526 59.4152 52.51 59.6413 52.1325 59.7915C51.755 59.9416 51.3507 60.0126 50.9446 60H1.24819C0.315047 60 0 59.67 0 58.707C0 53.811 0 48.911 0 44.007C0 39.84 2.43337 36.507 6.40896 35.244C9.40941 34.293 12.4099 33.366 15.3893 32.427C15.6023 32.376 15.7824 32.304 16.0014 32.229ZM52.0068 52.572C51.7593 52.8953 51.4788 53.1919 51.1697 53.457C50.0235 54.249 48.8653 55.029 47.6712 55.743C47.5123 55.868 47.3196 55.9426 47.118 55.9571C46.9164 55.9715 46.715 55.9252 46.54 55.8241C46.3649 55.7231 46.2242 55.5718 46.1359 55.39C46.0477 55.2082 46.016 55.004 46.0449 54.804C46.0449 53.661 46.2069 52.518 46.2099 51.375C46.2442 50.5454 46.5058 49.7411 46.966 49.05C48.5663 46.326 50.1455 43.588 51.7038 40.836C51.8925 40.4981 51.9956 40.119 52.0038 39.732C52.0338 37.65 52.0188 35.568 52.0188 33.486C52.0188 32.307 51.7188 31.986 50.5486 31.986C45.5298 31.986 40.5101 31.986 35.4893 31.986C34.3161 31.986 34.0101 32.286 34.0101 33.462V56.514C34.0101 57.684 34.3101 57.99 35.4923 57.99H50.5516C50.7174 58.0005 50.8838 58.0005 51.0497 57.99C51.5897 57.921 51.9798 57.612 51.9948 57.072C52.0248 55.59 51.9978 54.102 51.9978 52.572H52.0068ZM13.22 35.349L13.148 35.268C11.1887 35.868 9.24739 36.498 7.27009 37.107C3.85258 38.166 1.9983 40.671 1.9983 44.25C1.9983 48.602 1.9983 52.954 1.9983 57.306V57.957H8.0202V46.044H10.0245V57.972H15.4793C15.3923 57.738 15.3263 57.543 15.2513 57.354L10.1835 44.7C9.84448 43.854 9.94949 43.521 10.6876 43.017L12.4249 41.835C11.8248 41.25 11.2757 40.716 10.7296 40.173C9.71546 39.168 9.71246 38.868 10.7056 37.875C11.5457 37.025 12.3839 36.183 13.22 35.349ZM21.0212 9.999C18.4388 9.999 15.8554 9.999 13.271 9.999C12.6979 9.999 12.1368 10.14 12.0708 10.746C11.9838 11.517 11.9028 12.375 12.1578 13.074C12.8359 14.946 13.7031 16.749 14.4742 18.591C14.5108 18.7273 14.596 18.8454 14.7137 18.9233C14.8314 19.0012 14.9735 19.0335 15.1133 19.014C19.0319 19.002 22.9494 19.002 26.866 19.014C27.0065 19.0371 27.1505 19.0076 27.2706 18.9312C27.3907 18.8549 27.4784 18.7369 27.5171 18.6C28.1472 17.085 28.7743 15.564 29.4644 14.076C29.8728 13.2368 30.0627 12.3081 30.0165 11.376C29.9625 10.368 29.6564 10.017 28.6603 10.014L21.0212 9.999ZM23.9466 57.981V38.682C21.9961 39.1065 19.9772 39.1065 18.0267 38.682V57.972L23.9466 57.981ZM12.0408 8.073C12.5509 8.049 13.025 8.007 13.499 8.007C15.9804 8.007 18.4588 8.025 20.9371 8.007C24.1506 7.968 26.431 5.244 25.9359 2.031C25.8459 2.031 25.7439 2.01 25.6358 2.01C22.7614 2.01 19.887 2.01 17.0126 2.01C16.5554 2.01772 16.1014 2.08633 15.6623 2.214C13.133 2.922 11.7588 5.154 12.0408 8.073ZM26.938 24.969H23.0375V22.986H26.938V21.033H15.0383V23.028H18.9658V25.005H15.0653C14.9062 25.515 15.1133 25.785 15.4613 26.058C17.0431 27.3043 18.9983 27.9819 21.0121 27.9819C23.026 27.9819 24.9812 27.3043 26.563 26.058C26.899 25.8 27.1121 25.521 26.938 24.969ZM23.9616 36.582V29.589C22.0274 30.1374 19.9798 30.1446 18.0417 29.61V36.582C19.982 37.092 22.0213 37.092 23.9616 36.582ZM32.0148 57.975V44.541H31.8828C30.0825 49.005 28.3122 53.472 26.506 57.984L32.0148 57.975ZM12.4669 39.075C13.109 39.705 13.7481 40.326 14.3842 40.956C15.3023 41.856 15.2423 42.393 14.1471 43.122L12.2418 44.4L15.9474 53.652V35.583L12.4669 39.075ZM29.7585 44.4L27.7032 43.014C26.803 42.414 26.746 41.832 27.5351 41.049C28.2072 40.38 28.8943 39.72 29.4884 39.141L26.0289 35.658V53.463L26.1159 53.49L29.7585 44.4ZM54.6472 39.807L54.2361 40.5C52.3759 43.722 50.5396 46.956 48.6373 50.154C48.0972 51.054 48.3012 52.002 48.1272 52.995C49.2674 52.395 50.1735 51.738 50.7046 50.595C51.1667 49.602 51.7908 48.684 52.3428 47.73C53.672 45.426 55.0012 43.125 56.3574 40.782L54.6472 39.807ZM29.9805 5.007C29.2964 5.007 28.6573 5.007 28.0152 5.007C27.9475 5.01102 27.8815 5.02942 27.8214 5.06098C27.7614 5.09253 27.7088 5.13652 27.6671 5.19C27.1541 6.117 26.659 7.059 26.1399 8.034H29.9805V5.007ZM9.9795 14.043C8.82132 14.109 7.9752 14.97 8.0022 16.035C8.01854 16.5489 8.23386 17.0364 8.60275 17.3946C8.97165 17.7528 9.46527 17.9537 9.9795 17.955V14.043ZM32.0268 17.964C33.203 17.868 34.0371 17.019 33.9981 15.957C33.9591 14.805 32.9209 13.938 32.0268 14.058V17.964ZM31.9818 39.531L29.6414 41.853L31.9818 43.482V39.531ZM28.8583 35.277L32.0058 38.433C32.0058 37.833 32.0058 37.218 32.0058 36.597C32.0007 36.5137 31.9764 36.4326 31.9348 36.3603C31.8931 36.2879 31.8353 36.2262 31.7658 36.18C30.7816 35.853 29.8005 35.565 28.8583 35.277ZM57.3626 39.033C57.6446 38.433 58.3017 37.923 57.8277 37.215C57.7081 37.0722 57.5591 36.9569 57.3907 36.8772C57.2224 36.7974 57.0388 36.7551 56.8525 36.753C56.0934 36.786 56.0004 37.524 55.6523 38.052L57.3626 39.033ZM12.0018 18.132C11.8932 19.7767 12.2137 21.4214 12.9319 22.905C13.16 21.147 13.007 19.593 12.0018 18.132ZM29.0264 22.845C29.7615 21.738 30.1905 19.404 29.9265 18.183C28.9993 19.932 28.9033 20.424 29.0264 22.845Z" fill="#00B4D8"/>
<path d="M36.0354 39.9571V38.0371H49.9725V39.9571H36.0354Z" fill="#00B4D8"/>
<path d="M36.0564 42.0271H47.9652V43.9501H36.0564V42.0271Z" fill="#00B4D8"/>
<path d="M40.0229 35.964V34.05H49.9604V35.964H40.0229Z" fill="#00B4D8"/>
<path d="M36.0354 47.9551V46.0381H45.9729V47.9551H36.0354Z" fill="#00B4D8"/>
<path d="M36.0354 50.0249H43.9626V51.9659H36.0354V50.0249Z" fill="#00B4D8"/>
<path d="M43.9746 54.0481V55.9681H36.0564V54.0481H43.9746Z" fill="#00B4D8"/>
<path d="M37.9703 35.973H36.0503V34.041H37.9703V35.973Z" fill="#00B4D8"/>
<path d="M18.9988 15.972C19.0048 16.3685 18.8926 16.7578 18.6765 17.0904C18.4605 17.4229 18.1503 17.6837 17.7856 17.8394C17.4208 17.9952 17.018 18.0389 16.6283 17.9649C16.2386 17.891 15.8797 17.7028 15.5974 17.4244C15.315 17.1459 15.1219 16.7896 15.0427 16.4011C14.9635 16.0125 15.0017 15.6092 15.1525 15.2424C15.3033 14.8756 15.5598 14.562 15.8894 14.3414C16.2191 14.1209 16.6069 14.0034 17.0035 14.004C17.2638 14.002 17.522 14.0513 17.7632 14.1492C18.0044 14.2471 18.2239 14.3915 18.4093 14.5743C18.5946 14.7571 18.742 14.9746 18.8432 15.2145C18.9444 15.4543 18.9972 15.7117 18.9988 15.972Z" fill="#00B4D8"/>
<path d="M27.0041 16.0141C27.0017 16.4105 26.8813 16.7972 26.6584 17.1251C26.4354 17.4529 26.12 17.707 25.7522 17.8551C25.3844 18.0031 24.9809 18.0385 24.593 17.9565C24.2051 17.8746 23.8503 17.6792 23.5738 17.3951C23.2972 17.111 23.1115 16.7511 23.0402 16.3611C22.9688 15.9712 23.0151 15.5688 23.1732 15.2052C23.3312 14.8417 23.5939 14.5333 23.9277 14.3194C24.2615 14.1055 24.6514 13.9958 25.0478 14.0041C25.3083 14.0076 25.5655 14.0624 25.8048 14.1653C26.0441 14.2683 26.2607 14.4173 26.4424 14.6039C26.624 14.7906 26.7672 15.0112 26.8635 15.2532C26.9599 15.4951 27.0077 15.7537 27.0041 16.0141Z" fill="#00B4D8"/>
</g>
<defs>
<clipPath id="clip0_670_8191">
<rect width="60" height="60" fill="white"/>
</clipPath>
</defs>
</svg>
