<svg width="60" height="60" viewBox="0 0 60 60" fill="none" xmlns="http://www.w3.org/2000/svg">
<g clip-path="url(#clip0_670_8212)">
<path d="M29.9856 60C13.4695 59.9775 0.0128572 46.5284 9.21003e-06 30.0297C-0.0128388 13.417 13.4181 -0.022454 30.0145 2.81656e-05C46.6108 0.0225103 60.0771 13.5311 60 30.0699C59.9229 46.6344 46.4968 60.0225 29.9856 60ZM17.6194 38.2004C22.946 40.8692 28.6231 42.7717 34.4823 43.8514C34.5434 43.7888 34.6429 43.6908 34.7361 43.5945C38.4655 39.685 41.6628 35.3006 44.2452 30.5549C44.3929 30.2835 44.6483 30.0731 44.3946 29.6797C42.8769 27.3126 41.4941 24.8524 39.8624 22.5689C38.2564 20.3207 36.4063 18.2427 34.6927 16.1261C29.1944 17.0979 23.8477 18.7884 18.7902 21.1541C18.6296 21.2312 18.3935 21.1637 18.1221 21.1637C17.5822 26.8255 17.4164 32.5168 17.6258 38.2004H17.6194ZM18.2618 19.7747C25.2479 16.5629 32.4716 14.5267 40.1274 13.9711C40.103 13.8373 40.0697 13.7054 40.0278 13.576C39.3068 11.8096 38.6547 10.0062 37.8373 8.27667C36.954 6.4235 35.7864 4.72931 34.2077 3.36111C32.0043 1.45334 29.576 1.16428 26.992 2.51803C25.6167 3.23414 24.4049 4.22768 23.4331 5.43589C20.075 9.5999 18.9186 14.5556 18.2618 19.7747ZM12.2634 36.8948C11.7816 38.8861 11.2757 40.7248 10.9176 42.5924C10.4358 45.1088 10.3426 47.6493 11.2066 50.1159C11.9261 52.1682 13.2816 53.5798 15.5059 53.9861C17.4492 54.341 19.3217 53.9861 21.1381 53.3196C25.7795 51.6078 29.5985 48.6626 33.0899 45.2469C33.1221 45.2148 33.114 45.1409 33.1285 45.0719C25.765 43.5833 18.8496 40.9705 12.2634 36.8948ZM48.3983 34.7462C49.3137 34.0364 50.2099 33.378 51.0659 32.6714C53.1151 30.982 54.9395 29.0855 56.2404 26.7409C56.8715 25.6024 57.3164 24.3899 57.3646 23.0811C57.4433 20.7928 56.3143 19.142 54.4738 17.9199C52.7072 16.7412 50.7013 16.1534 48.6312 15.7905C45.3341 15.2044 42.0177 15.2301 38.6965 15.5641C37.9288 15.6412 37.166 15.7664 36.2875 15.8853C41.4845 21.4833 45.522 27.6868 48.3999 34.7462H48.3983ZM31.2141 48.9565C31.9738 49.4864 32.6595 49.9971 33.3822 50.4628C35.9872 52.1522 38.7061 53.6071 41.8346 54.0246C45.4513 54.5064 47.9502 53.159 49.0118 49.4961C49.7024 47.1113 49.5096 44.6945 49.0841 42.2921C48.4417 38.6918 47.1793 35.3002 45.5782 32.0274C45.503 31.8931 45.4199 31.7633 45.3292 31.6388C41.6354 38.2678 37.0022 44.0441 31.2141 48.9565ZM17.4443 15.3746C17.2727 15.3541 17.1 15.3439 16.9272 15.3441C15.0402 15.495 13.1371 15.5528 11.2677 15.8258C9.09316 16.147 7.00054 16.8183 5.19862 18.1544C3.1863 19.6526 2.2484 21.615 2.76393 24.1362C3.07388 25.6554 3.79498 26.9979 4.69915 28.2408C6.87207 31.2325 9.70825 33.4936 12.7821 35.48C13.8421 36.1641 14.9502 36.7744 16.1049 37.4617C15.962 30.0056 16.1579 22.6925 17.4443 15.3746ZM55.1579 16.5067C50.5744 8.50149 43.879 3.69352 34.8405 1.86123C34.9296 1.97722 35.025 2.0882 35.1264 2.19364C36.5412 3.40607 37.6172 4.8915 38.5503 6.48612C39.8019 8.65259 40.7994 10.9562 41.523 13.3512C41.6081 13.6242 41.6515 13.8988 42.0771 13.886C42.9556 13.8603 43.8437 13.886 44.7157 13.9165C47.2275 14 49.7024 14.3179 52.0728 15.1899C53.0717 15.5577 54.0321 16.0218 55.1579 16.5067ZM1.78588 26.2351C1.19206 30.456 1.56987 34.7569 2.89049 38.8097C4.21111 42.8625 6.43968 46.5603 9.40633 49.6213C8.47003 44.9306 9.66971 40.5128 11.0685 36.1609C7.27678 33.4294 3.79337 30.534 1.78588 26.2351ZM30.0321 49.9425C26.2934 52.7046 22.4213 55.1262 17.5054 55.6321C21.3983 57.5366 25.6749 58.5267 30.0088 58.5267C34.3428 58.5267 38.6194 57.5366 42.5123 55.6321C37.606 55.1005 33.7484 52.6901 30.0321 49.9425ZM50.7013 49.6004C53.6186 46.5302 55.809 42.8439 57.1108 38.8138C58.4133 34.8473 58.9802 28.1043 58.1949 26.3073C57.7034 27.1456 57.2505 28.0336 56.6917 28.851C54.8801 31.5039 52.4904 33.5771 49.9224 35.4608C48.9459 36.177 48.9427 36.1722 49.3153 37.3091C50.189 39.9733 50.8619 42.6824 50.902 45.4991C50.9197 46.8737 50.7704 48.2531 50.6997 49.5972L50.7013 49.6004ZM24.8929 1.97846C16.0064 3.72778 9.35333 8.56411 4.93363 16.4875C6.46735 15.585 8.12314 15.0245 9.83352 14.6134C12.1782 14.0702 14.5821 13.8252 16.9882 13.8844C17.6049 13.894 17.8539 13.6884 18.0707 13.0718C18.7356 11.1801 19.4261 9.28354 20.3014 7.48337C21.3707 5.30833 22.9451 3.42079 24.8929 1.97846Z" fill="#00B4D8"/>
</g>
<defs>
<clipPath id="clip0_670_8212">
<rect width="60" height="60" fill="white"/>
</clipPath>
</defs>
</svg>
