<svg width="18" height="18" viewBox="0 0 18 18" fill="none" xmlns="http://www.w3.org/2000/svg">
<path d="M9 8.25L6 15.75" stroke="white" stroke-width="1.125" stroke-linecap="round" stroke-linejoin="round"/>
<path d="M7.48026 12.4293C7.94482 12.6355 8.45902 12.75 9 12.75C11.071 12.75 12.75 11.071 12.75 9C12.75 6.92893 11.071 5.25 9 5.25C6.92893 5.25 5.25 6.92893 5.25 9C5.25 9.6831 5.43275 10.3234 5.75191 10.875" stroke="white" stroke-width="1.125" stroke-linecap="round" stroke-linejoin="round"/>
<path d="M9 16.5C13.1421 16.5 16.5 13.1421 16.5 9C16.5 4.85786 13.1421 1.5 9 1.5C4.85786 1.5 1.5 4.85786 1.5 9C1.5 13.1421 4.85786 16.5 9 16.5Z" stroke="white" stroke-width="1.125"/>
</svg>
