<svg width="38" height="38" viewBox="0 0 38 38" fill="none" xmlns="http://www.w3.org/2000/svg">
<rect width="38" height="38" rx="19" fill="#00B4D8"/>
<path d="M21.25 13.75V16.75H24.25M25.75 12.25L21.5544 16.4456" stroke="white" stroke-width="1.5" stroke-linecap="round" stroke-linejoin="round"/>
<path d="M16.8687 14.2842L16.5667 13.6047C16.3692 13.1604 16.2705 12.9383 16.1229 12.7683C15.9378 12.5552 15.6966 12.3985 15.4268 12.3159C15.2114 12.25 14.9683 12.25 14.4822 12.25C13.7709 12.25 13.4153 12.25 13.1168 12.3867C12.7652 12.5478 12.4476 12.8975 12.321 13.2629C12.2136 13.5732 12.2444 13.8921 12.3059 14.5298C12.9609 21.3176 16.6824 25.0391 23.4702 25.694C24.108 25.7556 24.4268 25.7864 24.7371 25.679C25.1025 25.5525 25.4522 25.2348 25.6133 24.8832C25.75 24.5846 25.75 24.2291 25.75 23.5178C25.75 23.0316 25.75 22.7885 25.6842 22.5732C25.6016 22.3034 25.4448 22.0622 25.2318 21.8771C25.0617 21.7295 24.8396 21.6308 24.3953 21.4333L23.7159 21.1313C23.2347 20.9174 22.9941 20.8106 22.7496 20.7873C22.5157 20.765 22.2798 20.7979 22.0608 20.8832C21.832 20.9723 21.6297 21.1408 21.2253 21.4778C20.8226 21.8134 20.6213 21.9812 20.3753 22.071C20.1573 22.1507 19.869 22.1802 19.6392 22.1463C19.3802 22.1082 19.1817 22.0022 18.785 21.7901C17.5504 21.1304 16.8696 20.4496 16.2099 19.215C15.9979 18.8183 15.8918 18.6198 15.8537 18.3608C15.8198 18.1311 15.8493 17.8427 15.929 17.6247C16.0188 17.3787 16.1866 17.1774 16.5221 16.7747C16.8592 16.3703 17.0278 16.168 17.1169 15.9392C17.2021 15.7202 17.235 15.4843 17.2127 15.2504C17.1895 15.0059 17.0825 14.7653 16.8687 14.2842Z" stroke="white" stroke-width="1.5" stroke-linecap="round"/>
</svg>
