<svg width="79" height="80" viewBox="0 0 79 80" fill="none" xmlns="http://www.w3.org/2000/svg">
<g clip-path="url(#clip0_2123_143)">
<path d="M3.0886 33.7526C2.41749 33.7526 1.82509 33.7723 1.23487 33.7526C0.469764 33.7199 0.0369349 33.3023 0.00195885 32.6116C-0.0330172 31.9209 0.401998 31.4006 1.17803 31.311C1.42309 31.2917 1.66906 31.2866 1.91471 31.2957C9.46808 31.2957 17.0215 31.2957 24.5748 31.2957C24.955 31.2816 25.3353 31.3199 25.705 31.4093C26.3258 31.5886 26.5335 32.0935 26.4723 32.6903C26.4111 33.287 26.0941 33.6783 25.493 33.722C24.8372 33.7679 24.1813 33.722 23.4294 33.722V71.0421H54.0487C52.8901 66.8036 53.4672 62.9062 56.132 59.4568C58.7705 56.0358 62.3206 54.403 66.7297 54.4642C66.745 54.1581 66.7691 53.8718 66.7691 53.5898C66.7691 40.878 66.7691 28.1662 66.7691 15.4544C66.7691 13.5242 65.84 12.5952 63.9273 12.593H55.9462C55.9462 13.404 55.9462 14.1822 55.9462 14.9604C55.9462 16.7594 54.9734 17.7452 53.1656 17.7474C44.9025 17.7561 36.6394 17.7561 28.3763 17.7474C26.6056 17.7474 25.6591 16.7769 25.6438 15.0106C25.6438 14.2499 25.6438 13.4805 25.6438 12.6455C25.3356 12.6258 25.0776 12.5952 24.8175 12.5952C22.391 12.5952 19.9645 12.5952 17.5381 12.5952C15.7827 12.5908 14.7859 13.5526 14.7793 15.3014C14.764 19.1486 14.7793 22.9936 14.7793 26.8408C14.7793 27.8769 14.3902 28.3207 13.5596 28.3207C12.7923 28.3207 12.3485 27.8835 12.3266 27.0091C12.296 25.8659 12.3157 24.7183 12.3157 23.5729C12.3157 20.8733 12.3157 18.1715 12.3157 15.4719C12.3157 12.1449 14.3509 10.1229 17.6692 10.1186L25.3574 10.112C25.4557 10.0934 25.5523 10.0663 25.646 10.0311C25.646 9.48247 25.646 8.89227 25.646 8.30426C25.6722 6.68232 26.6231 5.70303 28.2386 5.68117C30.2541 5.66149 32.2717 5.68117 34.296 5.68117C34.3681 5.45165 34.4381 5.27459 34.4818 5.09316C35.2141 2.03944 37.7127 -1.70842e-05 40.7534 -1.70842e-05C42.2263 -0.0179161 43.6599 0.474614 44.8108 1.3939C45.9616 2.31318 46.7587 3.60253 47.0666 5.04288C47.189 5.56531 47.3749 5.69865 47.8667 5.69865C49.6374 5.6768 51.4102 5.68117 53.1831 5.69865C54.9559 5.71614 55.9352 6.6845 55.944 8.49881C55.944 9.0125 55.944 9.52619 55.944 10.1382H58.2786C60.187 10.1382 62.0954 10.1382 64.0038 10.1382C67.1779 10.1382 69.2261 12.1777 69.2261 15.3538C69.2261 28.2026 69.2218 41.0514 69.213 53.9002C69.213 54.6084 69.3835 54.9254 70.0874 55.1593C75.6464 56.9933 79.402 62.4559 78.9582 67.9818C78.4773 74.1024 74.1709 78.9398 68.1812 79.8186C62.8845 80.5946 58.6852 78.6032 55.627 74.2292C55.5002 74.0129 55.315 73.8367 55.0927 73.7208C54.8704 73.6048 54.62 73.5537 54.3701 73.5734C44.1162 73.5909 33.8624 73.5909 23.6086 73.5734C23.0031 73.5734 22.7102 73.7636 22.4369 74.3013C20.2159 78.6731 15.5554 80.8372 10.8511 79.6983C6.33481 78.6054 3.09078 74.4521 3.08422 69.6847C3.07257 58.0644 3.07257 46.4433 3.08422 34.8216L3.0886 33.7526ZM5.6025 63.1116V68.2769C6.60806 68.2769 7.5699 68.2769 8.50989 68.2769C9.44987 68.2769 9.98107 68.7294 9.97014 69.536C9.95921 70.3426 9.48703 70.7208 8.54049 70.7339C7.59395 70.747 6.59276 70.7339 5.61562 70.7339C5.83422 74.5549 9.67503 77.7988 13.5421 77.5102C17.8551 77.1889 20.9286 73.9013 20.9373 69.5579C20.9504 63.1779 20.9504 56.7973 20.9373 50.4158C20.9373 50.2104 20.9111 50.0049 20.8936 49.7273C17.8332 51.0694 15.1772 50.2891 12.6458 48.4616C11.7672 47.8622 10.8112 47.3849 9.804 47.043C8.4512 46.523 6.96629 46.4555 5.5719 46.8506V53.1286C6.6649 53.1286 7.71637 53.1067 8.77221 53.1286C9.6007 53.1504 10.0554 53.5767 10.0838 54.2784C10.1253 55.0412 9.62256 55.5549 8.73723 55.579C7.68795 55.6052 6.63648 55.579 5.58501 55.579V60.6066H6.86382C8.28254 60.6066 9.70563 60.5956 11.1156 60.6066C12.1671 60.6066 12.6808 61.0438 12.6633 61.87C12.6458 62.6963 12.154 63.0548 11.1331 63.0767C10.779 63.0767 10.4248 63.0767 10.0707 63.0767L5.6025 63.1116ZM66.1548 77.4119C71.8384 77.4119 76.5427 72.7712 76.5296 67.1599C76.5165 61.5487 71.8122 56.8337 66.2007 56.814C60.5892 56.7943 55.9615 61.3848 55.9462 66.9676C55.9352 72.8127 60.4209 77.4031 66.1483 77.4119H66.1548ZM53.3186 8.14906H46.5617C44.944 8.14906 44.6861 7.89768 44.6227 6.27355C44.544 4.17289 43.1209 2.61871 41.042 2.36733C39.2058 2.14873 37.4176 3.40782 36.8886 5.32924C36.7912 5.7256 36.7319 6.13038 36.7115 6.53804C36.6197 7.80806 36.2743 8.14469 34.9737 8.14688C33.4194 8.14688 31.8652 8.14688 30.3131 8.14688H28.0265V15.2052H53.3186V8.14906ZM5.60687 33.7985V44.3499C8.92741 43.8647 11.778 44.9139 14.4536 46.6801C15.0839 47.1056 15.7665 47.448 16.4844 47.6988C17.796 48.1359 19.0705 48.0026 20.2006 47.0998C20.4515 46.9158 20.653 46.6726 20.7872 46.3919C20.9215 46.1113 20.9843 45.8018 20.9701 45.491C20.9308 41.8886 20.9504 38.2775 20.9504 34.6882V33.7985H5.60687Z" fill="#000137"/>
<path d="M40.8127 26.3686C34.5986 26.3686 28.383 26.3686 22.1661 26.3686C21.8661 26.3837 21.5653 26.3712 21.2676 26.3314C21.0074 26.2914 20.7703 26.1589 20.6 25.9581C20.4298 25.7573 20.3377 25.5017 20.3407 25.2385C20.3036 24.6833 20.5025 24.1936 21.0884 24.0209C21.4297 23.935 21.7815 23.8982 22.1333 23.9116C34.646 23.9116 47.1594 23.9116 59.6735 23.9116C59.9986 23.8926 60.3247 23.9251 60.6397 24.0078C60.9215 24.0827 61.1637 24.2633 61.3159 24.5119C61.4681 24.7606 61.5188 25.0584 61.4573 25.3434C61.4374 25.6194 61.3135 25.8776 61.1106 26.0659C60.9078 26.2541 60.641 26.3584 60.3643 26.3577C60.091 26.3752 59.8178 26.3708 59.5467 26.3708C53.3006 26.3723 47.0559 26.3715 40.8127 26.3686Z" fill="#000137"/>
<path d="M39.7848 52.2039C39.7848 52.9668 39.7979 53.734 39.7848 54.4925C39.7586 55.9986 38.8033 57.0282 37.3015 57.0697C35.6664 57.1156 34.0225 57.12 32.3961 57.0697C30.9446 57.0216 29.9675 55.9768 29.95 54.5319C29.9303 52.9515 29.9325 51.3689 29.95 49.7885C29.9653 48.3305 30.9096 47.2812 32.3655 47.2266C34.0531 47.1632 35.7451 47.1588 37.4327 47.2266C38.8623 47.2878 39.7586 48.3195 39.787 49.7513C39.7848 50.5688 39.7848 51.3864 39.7848 52.2039ZM37.2687 54.5625V49.7338H32.4355V54.5625H37.2687Z" fill="#000137"/>
<path d="M39.7852 37.1277C39.7852 37.9168 39.8005 38.7081 39.7852 39.4994C39.7546 40.953 38.7819 41.9935 37.3413 42.0307C35.7062 42.0744 34.0623 42.07 32.4359 42.0307C30.9669 41.9957 29.9635 40.9377 29.9482 39.4469C29.9329 37.8665 29.9286 36.2839 29.9482 34.7035C29.9657 33.2827 30.9123 32.2444 32.3222 32.1985C34.0361 32.1438 35.7564 32.1438 37.4703 32.1985C38.8125 32.2444 39.7372 33.2499 39.7787 34.5855C39.8049 35.4292 39.7787 36.2752 39.7787 37.1211L39.7852 37.1277ZM32.4709 34.6795V39.5322H37.2801V34.6795H32.4709Z" fill="#000137"/>
<path d="M51.7772 52.875C49.0797 52.875 46.3822 52.875 43.689 52.875C42.5654 52.875 41.9664 52.0399 42.3774 51.1066C42.6419 50.5164 43.1556 50.4136 43.7349 50.4158C46.0237 50.4158 48.3124 50.4158 50.6011 50.4158H59.6774C60.9431 50.4158 61.5093 50.8071 61.4831 51.6618C61.459 52.4793 60.8819 52.8771 59.7059 52.8771L51.7772 52.875Z" fill="#000137"/>
<path d="M51.8626 37.8294C49.1651 37.8294 46.469 37.8294 43.7744 37.8294C42.7841 37.8294 42.2748 37.4097 42.2638 36.625C42.2529 35.8402 42.7688 35.3724 43.7394 35.3702C49.1607 35.3702 54.582 35.3702 60.0033 35.3702C60.9258 35.3702 61.4985 35.8861 61.4876 36.6424C61.4766 37.3988 60.9673 37.8228 60.0404 37.825C57.3101 37.8338 54.5863 37.8294 51.8626 37.8294Z" fill="#000137"/>
<path d="M39.328 62.9979C41.9512 62.9979 44.5569 62.9979 47.1714 62.9979C48.1791 62.9979 48.6469 63.4001 48.6469 64.2177C48.6469 65.0352 48.1616 65.4549 47.1692 65.4571C41.9403 65.4571 36.7113 65.4571 31.4824 65.4571C30.3369 65.4571 29.679 64.6745 30.0222 63.7652C30.2648 63.1094 30.7829 62.9892 31.4037 62.9914C34.0444 63.0045 36.6873 62.9979 39.328 62.9979Z" fill="#000137"/>
<path d="M62.8432 68.7775C65.8293 66.8102 68.717 64.9063 71.6135 63.0133C72.4879 62.4471 73.2552 62.598 73.618 63.374C73.9175 64.0122 73.7711 64.5718 73.1918 64.9478C69.8399 67.1337 66.4742 69.3073 63.0946 71.4684C62.3448 71.9471 61.6978 71.7526 61.2081 70.9962C60.4211 69.7852 59.6466 68.5662 58.8844 67.3392C58.3903 66.5413 58.4887 65.8943 59.1248 65.479C59.761 65.0637 60.4605 65.2342 60.9917 66.0124C61.6038 66.9086 62.2005 67.8157 62.8432 68.7775Z" fill="#000137"/>
</g>
<defs>
<clipPath id="clip0_2123_143">
<rect width="79" height="80" fill="white"/>
</clipPath>
</defs>
</svg>
