<svg width="39" height="40" viewBox="0 0 39 40" fill="none" xmlns="http://www.w3.org/2000/svg">
<g clip-path="url(#clip0_2164_2540)">
<g clip-path="url(#clip1_2164_2540)">
<path d="M1.52475 16.8763C1.19345 16.8763 0.900992 16.8862 0.609617 16.8763C0.231909 16.8599 0.0182337 16.6512 0.000967026 16.3058C-0.0162996 15.9604 0.198454 15.7003 0.581559 15.6555C0.702537 15.6458 0.823967 15.6433 0.945238 15.6478C4.67412 15.6478 8.403 15.6478 12.1319 15.6478C12.3195 15.6408 12.5073 15.6599 12.6898 15.7047C12.9963 15.7943 13.0988 16.0468 13.0686 16.3451C13.0384 16.6435 12.8819 16.8392 12.5851 16.861C12.2614 16.884 11.9376 16.861 11.5664 16.861V35.5211H26.6823C26.1103 33.4018 26.3952 31.4531 27.7107 29.7284C29.0133 28.0179 30.7658 27.2015 32.9425 27.2321C32.9501 27.0791 32.962 26.9359 32.962 26.7949C32.962 20.439 32.962 14.0831 32.962 7.72719C32.962 6.76211 32.5033 6.2976 31.559 6.29651H27.619C27.619 6.702 27.619 7.09109 27.619 7.48018C27.619 8.37968 27.1388 8.87261 26.2463 8.8737C22.167 8.87807 18.0878 8.87807 14.0085 8.8737C13.1344 8.8737 12.6671 8.38843 12.6596 7.50532C12.6596 7.12497 12.6596 6.74025 12.6596 6.32274C12.5074 6.3129 12.3801 6.2976 12.2517 6.2976C11.0538 6.2976 9.85592 6.2976 8.65804 6.2976C7.79147 6.29542 7.29937 6.77632 7.29613 7.65068C7.28858 9.57429 7.29613 11.4968 7.29613 13.4204C7.29613 13.9385 7.10404 14.1603 6.69396 14.1603C6.31517 14.1603 6.0961 13.9417 6.08531 13.5046C6.0702 12.9329 6.07991 12.3591 6.07991 11.7864C6.07991 10.4366 6.07991 9.08573 6.07991 7.73593C6.07991 6.07245 7.08462 5.06147 8.72279 5.05928L12.5182 5.05601C12.5668 5.04668 12.6144 5.03315 12.6607 5.01557C12.6607 4.74123 12.6607 4.44614 12.6607 4.15213C12.6736 3.34116 13.1431 2.85151 13.9406 2.84058C14.9356 2.83075 15.9316 2.84058 16.9309 2.84058C16.9665 2.72582 17.0011 2.63729 17.0227 2.54658C17.3842 1.01972 18.6177 -8.54209e-06 20.1188 -8.54209e-06C20.8459 -0.00895807 21.5536 0.237307 22.1218 0.69695C22.6899 1.15659 23.0834 1.80126 23.2354 2.52144C23.2959 2.78266 23.3876 2.84933 23.6304 2.84933C24.5045 2.8384 25.3797 2.84058 26.2549 2.84933C27.1301 2.85807 27.6136 3.34225 27.6179 4.2494C27.6179 4.50625 27.6179 4.76309 27.6179 5.06912H28.7705C29.7126 5.06912 30.6547 5.06912 31.5968 5.06912C33.1638 5.06912 34.1749 6.08885 34.1749 7.67691C34.1749 14.1013 34.1728 20.5257 34.1685 26.9501C34.1685 27.3042 34.2526 27.4627 34.6001 27.5796C37.3444 28.4966 39.1985 31.2279 38.9794 33.9909C38.742 37.0512 36.616 39.4699 33.6591 39.9093C31.0443 40.2973 28.9712 39.3016 27.4614 37.1146C27.3988 37.0065 27.3074 36.9184 27.1977 36.8604C27.0879 36.8024 26.9643 36.7769 26.8409 36.7867C21.7789 36.7954 16.7169 36.7954 11.6549 36.7867C11.356 36.7867 11.2113 36.8818 11.0765 37.1507C9.98002 39.3366 7.67924 40.4186 5.35687 39.8492C3.12731 39.3027 1.52583 37.2261 1.52259 34.8423C1.51684 29.0322 1.51684 23.2217 1.52259 17.4108L1.52475 16.8763ZM2.76579 31.5558V34.1385C3.26221 34.1385 3.73704 34.1385 4.20108 34.1385C4.66512 34.1385 4.92736 34.3647 4.92197 34.768C4.91657 35.1713 4.68347 35.3604 4.21619 35.367C3.74891 35.3735 3.25465 35.367 2.77227 35.367C2.88018 37.2774 4.77628 38.8994 6.68532 38.7551C8.81452 38.5944 10.3318 36.9506 10.3361 34.7789C10.3426 31.589 10.3426 28.3986 10.3361 25.2079C10.3361 25.1052 10.3232 25.0024 10.3146 24.8636C8.80373 25.5347 7.49254 25.1445 6.24287 24.2308C5.80912 23.9311 5.33716 23.6925 4.83995 23.5215C4.17211 23.2615 3.43906 23.2278 2.75068 23.4253V26.5643C3.29027 26.5643 3.80935 26.5534 4.33058 26.5643C4.73959 26.5752 4.96405 26.7883 4.97808 27.1392C4.99859 27.5206 4.75038 27.7775 4.31332 27.7895C3.79532 27.8026 3.27624 27.7895 2.75716 27.7895V30.3033H3.38847C4.08885 30.3033 4.79139 30.2978 5.48745 30.3033C6.00653 30.3033 6.26013 30.5219 6.2515 30.935C6.24287 31.3482 6.00005 31.5274 5.49608 31.5383C5.32126 31.5383 5.14643 31.5383 4.97161 31.5383L2.76579 31.5558ZM32.6587 38.7059C35.4645 38.7059 37.7869 36.3856 37.7804 33.58C37.774 30.7743 35.4516 28.4168 32.6814 28.407C29.9111 28.3972 27.6266 30.6924 27.619 33.4838C27.6136 36.4063 29.8281 38.7016 32.6555 38.7059H32.6587ZM26.3218 4.07453H22.9861C22.1876 4.07453 22.0602 3.94884 22.0289 3.13677C21.9901 2.08644 21.2875 1.30935 20.2612 1.18366C19.3547 1.07437 18.472 1.70391 18.2108 2.66462C18.1627 2.8628 18.1335 3.06519 18.1234 3.26902C18.0781 3.90403 17.9076 4.07234 17.2655 4.07344C16.4982 4.07344 15.7309 4.07344 14.9647 4.07344H13.8359V7.60259H26.3218V4.07453ZM2.76795 16.8993V22.175C4.4072 21.9323 5.81444 22.457 7.13534 23.3401C7.44649 23.5528 7.78346 23.724 8.13788 23.8494C8.78538 24.068 9.41454 24.0013 9.97247 23.5499C10.0963 23.4579 10.1958 23.3363 10.2621 23.196C10.3283 23.0556 10.3593 22.9009 10.3523 22.7455C10.3329 20.9443 10.3426 19.1387 10.3426 17.3441V16.8993H2.76795Z" fill="#0B1030"/>
<path d="M20.1481 13.1844C17.0804 13.1844 14.0119 13.1844 10.9428 13.1844C10.7947 13.1919 10.6462 13.1857 10.4992 13.1658C10.3708 13.1458 10.2538 13.0795 10.1697 12.9791C10.0856 12.8787 10.0402 12.7509 10.0417 12.6193C10.0233 12.3417 10.1215 12.0969 10.4108 12.0105C10.5793 11.9676 10.753 11.9492 10.9266 11.9559C17.1037 11.9559 23.2813 11.9559 29.4591 11.9559C29.6196 11.9464 29.7806 11.9626 29.9361 12.004C30.0752 12.0414 30.1948 12.1317 30.2699 12.256C30.3451 12.3804 30.3701 12.5293 30.3397 12.6718C30.3299 12.8098 30.2687 12.9389 30.1686 13.033C30.0684 13.1271 29.9368 13.1793 29.8001 13.1789C29.6652 13.1876 29.5303 13.1855 29.3965 13.1855C26.313 13.1862 23.2302 13.1858 20.1481 13.1844Z" fill="#0B1030"/>
<path d="M19.6409 26.102C19.6409 26.4834 19.6473 26.8671 19.6409 27.2463C19.6279 27.9994 19.1563 28.5142 18.4149 28.5349C17.6077 28.5579 16.7962 28.5601 15.9933 28.5349C15.2767 28.5109 14.7943 27.9884 14.7857 27.266C14.776 26.4758 14.7771 25.6845 14.7857 24.8943C14.7932 24.1653 15.2594 23.6407 15.9782 23.6133C16.8113 23.5816 17.6466 23.5795 18.4797 23.6133C19.1855 23.6439 19.6279 24.1598 19.6419 24.8757C19.6409 25.2845 19.6409 25.6932 19.6409 26.102ZM18.3987 27.2813V24.867H16.0127V27.2813H18.3987Z" fill="#0B1030"/>
<path d="M19.6406 18.5638C19.6406 18.9584 19.6481 19.3541 19.6406 19.7497C19.6255 20.4765 19.1452 20.9968 18.4341 21.0153C17.6269 21.0372 16.8153 21.035 16.0124 21.0153C15.2872 20.9979 14.7919 20.4689 14.7843 19.7235C14.7768 18.9333 14.7746 18.142 14.7843 17.3518C14.793 16.6413 15.2602 16.1222 15.9563 16.0992C16.8024 16.0719 17.6517 16.0719 18.4977 16.0992C19.1604 16.1222 19.6168 16.6249 19.6373 17.2927C19.6503 17.7146 19.6373 18.1376 19.6373 18.5606L19.6406 18.5638ZM16.0297 17.3397V19.7661H18.4039V17.3397H16.0297Z" fill="#0B1030"/>
<path d="M25.561 26.4375C24.2293 26.4375 22.8976 26.4375 21.568 26.4375C21.0134 26.4375 20.7177 26.02 20.9205 25.5533C21.0511 25.2582 21.3047 25.2068 21.5907 25.2079C22.7206 25.2079 23.8505 25.2079 24.9804 25.2079H29.4611C30.0859 25.2079 30.3654 25.4035 30.3525 25.8309C30.3406 26.2397 30.0557 26.4386 29.4751 26.4386L25.561 26.4375Z" fill="#0B1030"/>
<path d="M25.603 18.9146C24.2713 18.9146 22.9403 18.9146 21.61 18.9146C21.1212 18.9146 20.8697 18.7048 20.8643 18.3124C20.8589 17.92 21.1136 17.6862 21.5928 17.6851C24.2691 17.6851 26.9454 17.6851 29.6218 17.6851C30.0772 17.6851 30.3599 17.943 30.3545 18.3212C30.3491 18.6993 30.0977 18.9114 29.6401 18.9124C28.2922 18.9168 26.9476 18.9146 25.603 18.9146Z" fill="#0B1030"/>
<path d="M19.4153 31.499C20.7103 31.499 21.9967 31.499 23.2874 31.499C23.7849 31.499 24.0158 31.7001 24.0158 32.1089C24.0158 32.5177 23.7762 32.7275 23.2863 32.7286C20.7049 32.7286 18.1235 32.7286 15.5422 32.7286C14.9767 32.7286 14.6519 32.3373 14.8213 31.8826C14.9411 31.5548 15.1968 31.4946 15.5033 31.4957C16.807 31.5023 18.1117 31.499 19.4153 31.499Z" fill="#0B1030"/>
<path d="M31.024 34.3888C32.4981 33.4051 33.9237 32.4531 35.3536 31.5066C35.7853 31.2236 36.164 31.299 36.3432 31.687C36.491 32.0061 36.4187 32.2859 36.1327 32.4739C34.478 33.5669 32.8165 34.6536 31.1481 35.7342C30.7779 35.9736 30.4585 35.8763 30.2168 35.4981C29.8283 34.8926 29.4459 34.2831 29.0696 33.6696C28.8257 33.2707 28.8743 32.9472 29.1883 32.7395C29.5023 32.5318 29.8477 32.6171 30.1099 33.0062C30.4121 33.4543 30.7067 33.9079 31.024 34.3888Z" fill="#0B1030"/>
</g>
</g>
<defs>
<clipPath id="clip0_2164_2540">
<rect width="39" height="40" fill="white"/>
</clipPath>
<clipPath id="clip1_2164_2540">
<rect width="39" height="40" fill="white"/>
</clipPath>
</defs>
</svg>
