<svg width="208" height="80" viewBox="0 0 208 80" fill="none" xmlns="http://www.w3.org/2000/svg">
<g clip-path="url(#clip0_2123_2562)">
<path d="M126.703 50.6874C126.703 51.7305 126.703 52.7023 126.703 53.681C126.703 55.0627 126.593 55.2124 125.237 55.6338V64.3408C125.414 64.3799 125.572 64.426 125.732 64.4513C126.629 64.5987 126.959 64.9602 126.966 65.8975C126.977 67.97 126.966 70.0426 126.987 72.1036C126.987 72.3753 127.227 72.6517 127.383 72.9096C127.58 73.2412 127.909 73.529 128.001 73.8837C128.372 75.3275 128.688 76.7852 128.997 78.2452C129.226 79.3736 128.768 79.9815 127.623 79.9861C123.596 80.0046 119.568 80.0046 115.536 79.9861C114.403 79.9861 113.934 79.3529 114.181 78.2291C114.49 76.799 114.808 75.3713 115.149 73.9482C115.22 73.6534 115.337 73.2136 115.543 73.1353C116.361 72.8198 116.198 72.1704 116.198 71.5647C116.198 69.8676 116.198 68.1727 116.198 66.4778C116.198 64.8221 116.324 64.6655 117.936 64.3477V55.5578C116.45 55.5578 116.42 54.4962 116.466 53.3517C116.503 52.4974 116.466 51.643 116.466 50.738H94.5064L102.818 72.7691C104.42 72.7553 105.844 73.2066 107.035 74.2567C107.644 74.783 108.139 75.4293 108.49 76.1558C108.84 76.8823 109.039 77.6734 109.073 78.4801C109.135 79.4243 108.677 79.9769 107.729 79.9815C103.672 80.0023 99.6122 79.9815 95.555 79.9815C94.8269 79.9815 94.4445 79.5509 94.2041 78.8831C92.8533 75.1341 91.4902 71.3897 90.1149 67.6499C90.021 67.3943 89.9043 67.1456 89.7234 66.715C89.064 68.8727 88.4641 70.8301 87.8688 72.7714C88.574 73.0915 89.2426 73.3195 89.8493 73.6925C91.5665 74.7611 92.4869 76.3569 92.6655 78.3719C92.7617 79.468 92.2854 79.9838 91.1841 79.9954C86.1562 80.0076 81.1267 80.0076 76.0957 79.9954C74.77 79.9954 74.3556 79.3045 74.77 77.9113C76.9886 70.434 79.2439 62.9683 81.4099 55.4749C81.838 53.985 81.8861 52.3868 82.1311 50.692C80.5284 50.692 79.1546 50.7104 77.8015 50.692C75.3287 50.6505 73.5107 49.1283 73.0826 46.7772C72.5949 44.1381 74.6029 41.5498 77.2451 41.4001C78.0723 41.346 78.9021 41.346 79.7293 41.4001C80.3956 41.4507 80.6703 41.2159 80.8352 40.5688C81.98 36.1243 83.1408 31.6868 84.2993 27.2469C85.2587 23.5762 87.6719 21.3103 91.2757 20.8221C93.7462 20.4859 95.887 21.3103 97.7438 22.9453C100.902 25.7302 104.061 28.5127 107.22 31.293C108.748 32.6378 110.224 34.0426 111.8 35.316C113.732 36.8704 114.666 38.7703 114.165 41.384H115.227C120.312 41.384 125.4 41.3701 130.487 41.3978C131.438 41.4009 132.363 41.7077 133.13 42.2739C133.896 42.8401 134.463 43.6364 134.751 44.548C135.053 45.4392 135.077 46.4021 134.82 47.3075C134.563 48.213 134.037 49.0178 133.313 49.6142C132.418 50.3474 131.291 50.7324 130.137 50.6989C129.033 50.6897 127.923 50.6874 126.703 50.6874ZM83.1202 41.2619C83.2347 41.3172 83.2827 41.3609 83.3331 41.3609C86.9965 41.3609 90.6438 41.3817 94.298 41.3494C94.5109 41.3494 94.8406 40.9994 94.9139 40.7507C95.3214 39.369 95.6557 37.9873 96.0358 36.6056C96.393 35.3091 97.1806 35.0236 98.2613 35.795C99.6808 36.8083 101.087 37.8399 102.504 38.8601C103.662 39.6937 104.725 40.8428 106.018 41.2619C107.312 41.681 108.844 41.3771 110.27 41.3817C111.697 41.3863 112.239 40.7691 111.823 39.3229C111.648 38.7207 111.316 38.1766 110.861 37.7478C105.925 33.3494 100.995 28.9418 95.9786 24.6355C92.5442 21.6971 87.8619 23.2769 86.6851 27.6568C86.1058 29.8169 85.5403 31.9792 84.9793 34.1416C84.3566 36.5166 83.7368 38.89 83.1202 41.2619ZM103.994 43.795H92.3404C87.4864 43.795 82.6302 43.795 77.774 43.795C76.3888 43.795 75.4203 44.7161 75.3974 45.9781C75.3745 47.24 76.343 48.175 77.7053 48.2648C77.877 48.2763 78.0487 48.2648 78.2204 48.2648C95.4138 48.2648 112.608 48.2648 129.803 48.2648C130.201 48.2706 130.599 48.2273 130.986 48.1358C131.445 48.0113 131.852 47.74 132.144 47.3629C132.436 46.9858 132.599 46.5233 132.607 46.0453C132.615 45.5672 132.468 45.0995 132.188 44.7127C131.909 44.3259 131.512 44.041 131.057 43.9009C130.641 43.8075 130.213 43.7703 129.787 43.7904C121.19 43.7889 112.593 43.7889 103.994 43.7904V43.795ZM77.3893 77.5336H89.9134C89.6272 76.221 88.3107 75.2492 86.7881 75.1894C85.1854 75.1249 84.8053 74.6045 85.2701 73.0777C87.4697 65.8745 89.6722 58.6697 91.8779 51.4634C91.9489 51.2331 91.9878 51.0028 92.0473 50.7334H84.3886C84.3749 51.0581 84.3886 51.3414 84.3451 51.6177C84.1528 53.1214 84.1162 54.6735 83.7201 56.1174C82.4631 60.6448 81.0664 65.1307 79.727 69.635C78.9531 72.2372 78.1838 74.8416 77.3893 77.5336ZM106.376 77.5705C105.872 75.9585 104.663 75.2032 102.744 75.194C101.261 75.194 101.126 75.0973 100.61 73.734L94.2156 56.7691C93.9866 56.145 93.7302 55.5256 93.4051 54.6966C92.5533 57.4807 91.7611 60.0483 90.9895 62.6206C90.9554 62.8178 90.9809 63.0207 91.0628 63.2032C92.7418 67.8349 94.4316 72.4628 96.132 77.0869C96.1986 77.2105 96.2932 77.3166 96.4081 77.3966C96.5231 77.4766 96.6552 77.5283 96.7937 77.5475C99.9602 77.5797 103.129 77.5705 106.376 77.5705ZM124.516 72.6931V66.9361H118.648V72.6931H124.516ZM116.818 77.5129H126.348C126.197 76.8013 126.096 76.152 125.908 75.5302C125.851 75.4309 125.771 75.3468 125.675 75.285C125.579 75.2233 125.47 75.1858 125.356 75.1756C122.842 75.1495 120.328 75.1495 117.814 75.1756C117.7 75.1838 117.589 75.2197 117.491 75.2802C117.393 75.3407 117.31 75.4241 117.251 75.5233C117.068 76.1473 116.96 76.7944 116.818 77.5129ZM120.441 55.567V64.3615H122.794C122.794 61.5981 122.794 58.8969 122.794 56.2026C122.794 56.0069 122.76 55.8111 122.737 55.567H120.441ZM124.257 50.7311H118.95V53.0339H124.257V50.7311ZM97.2836 41.2895H101.767L98.0049 38.5722L97.2836 41.2895Z" fill="#000137"/>
<path d="M118.547 28.8451H113.673C112.256 28.8451 111.921 28.5043 111.919 27.065C111.919 25.4277 111.919 23.7927 111.919 22.1554C111.919 20.9556 112.329 20.5434 113.508 20.5434C115.156 20.5434 116.805 20.5434 118.545 20.5434C118.545 18.8532 118.545 17.2527 118.545 15.6545C118.545 14.2061 118.852 13.9044 120.322 13.9021C121.95 13.9021 123.575 13.9021 125.203 13.9021C126.417 13.9021 126.806 14.2959 126.806 15.4933C126.806 17.1284 126.806 18.7634 126.806 20.5411H128.159C129.471 20.5411 130.785 20.5411 132.097 20.5411C132.878 20.5411 133.37 20.9487 133.382 21.7363C133.414 23.7144 133.418 25.6971 133.382 27.6753C133.366 28.4628 132.86 28.8405 132.074 28.8405C130.366 28.8405 128.656 28.8405 126.808 28.8405V30.3972C126.808 31.6315 126.82 32.8658 126.808 34.1001C126.794 35.0005 126.389 35.4818 125.535 35.5003C123.624 35.5371 121.712 35.5371 119.797 35.5003C118.948 35.4818 118.563 35.0029 118.563 34.0817C118.538 32.3868 118.547 30.6943 118.547 28.8451ZM120.947 16.3661V17.354C120.947 18.7357 120.961 20.1174 120.947 21.4991C120.931 22.5308 120.489 22.9499 119.465 22.9637C118.524 22.9637 117.581 22.9637 116.638 22.9637H114.371V26.3903C114.694 26.4064 114.971 26.4271 115.248 26.4294C116.592 26.4294 117.934 26.4294 119.275 26.4294C120.553 26.4294 120.942 26.8417 120.951 28.1474C120.951 28.5227 120.951 28.8958 120.951 29.2688V33.0362H124.411V28.2418C124.411 26.7772 124.759 26.4341 126.243 26.4317H130.968V22.9545C129.29 22.9545 127.665 22.9545 126.041 22.9545C124.807 22.9545 124.42 22.5561 124.418 21.2965C124.418 19.6684 124.418 18.038 124.418 16.3684L120.947 16.3661Z" fill="#000137"/>
<path d="M97.753 3.65824e-06C99.0191 -0.00213827 100.273 0.247639 101.443 0.734955C102.613 1.22227 103.675 1.9375 104.569 2.83946C105.463 3.74142 106.17 4.81229 106.651 5.99042C107.131 7.16855 107.376 8.43066 107.369 9.70409C107.323 15.0305 102.998 19.3575 97.753 19.3276C96.4582 19.3808 95.166 19.1702 93.9542 18.7085C92.7423 18.2469 91.6357 17.5436 90.7009 16.641C89.7661 15.7384 89.0223 14.6551 88.5142 13.4561C88.0061 12.2571 87.7441 10.9672 87.7441 9.66379C87.7441 8.36043 88.0061 7.07052 88.5142 5.87153C89.0223 4.67253 89.7661 3.5892 90.7009 2.68659C91.6357 1.78398 92.7423 1.08071 93.9542 0.619041C95.166 0.157367 96.4582 -0.0531947 97.753 3.65824e-06ZM97.7736 16.9119C99.2001 16.9037 100.592 16.4698 101.773 15.6653C102.955 14.8608 103.872 13.7218 104.409 12.3925C104.946 11.0633 105.079 9.60367 104.791 8.19842C104.503 6.79316 103.807 5.50552 102.79 4.49856C101.774 3.49159 100.484 2.8106 99.0822 2.54181C97.6809 2.27303 96.2318 2.42854 94.9184 2.98866C93.605 3.54878 92.4864 4.48831 91.7042 5.68827C90.9221 6.88823 90.5116 8.29465 90.5247 9.72942C90.5494 11.6454 91.3245 13.4742 92.6816 14.8189C94.0387 16.1636 95.8685 16.9157 97.7736 16.9119Z" fill="#000137"/>
</g>
<defs>
<clipPath id="clip0_2123_2562">
<rect width="62" height="80" fill="white" transform="translate(73)"/>
</clipPath>
</defs>
</svg>
