<svg width="80" height="80" viewBox="0 0 80 80" fill="none" xmlns="http://www.w3.org/2000/svg">
<g clip-path="url(#clip0_540_3019)">
<path d="M0 6.08122C0.327083 5.49788 0.833333 5.29372 1.4875 5.30413C3.25417 5.3333 5.02917 5.2708 6.7875 5.34163C7.31378 5.38239 7.81216 5.59462 8.20625 5.9458C9.57083 7.21872 10.8604 8.5708 12.2354 9.94788C14.0083 8.16872 15.7333 6.4458 17.4438 4.71247C18.3729 3.77497 19.4854 3.42288 20.7125 3.87913C21.3917 4.1333 21.9625 4.66038 22.675 5.11663C22.7333 5.06872 22.8958 4.95205 23.0375 4.81663C23.8708 4.03538 24.3229 4.04163 25.1458 4.85622C25.4042 5.11247 25.6583 5.37288 25.9146 5.63122C27.475 7.20205 27.625 8.4958 26.3312 10.5771C26.6869 10.8022 27.0222 11.0581 27.3333 11.3416C28.1667 12.2041 28.1396 13.2375 27.3146 14.1208C26.8979 14.5771 26.4479 15.0187 25.9937 15.4437C25.0896 16.2771 24.0583 16.2771 23.1542 15.4145C22.875 15.1479 22.6354 14.8396 22.3708 14.5437L20.8333 16.0958C21.1577 16.335 21.466 16.5953 21.7563 16.875C22.5667 17.7333 22.5708 18.8041 21.7771 19.6666C21.3729 20.1062 20.9438 20.5229 20.5146 20.9375C19.5604 21.85 18.4979 21.8604 17.5604 20.9375C17.3028 20.6489 17.0668 20.3419 16.8542 20.0187L15.1875 21.6854C15.5375 21.9437 15.9438 22.1583 16.2292 22.4771C17.0438 23.3521 17.0125 24.3666 16.1833 25.2562C15.775 25.6923 15.3535 26.1152 14.9187 26.525C13.9833 27.4104 12.9458 27.4125 12.0167 26.525C11.7502 26.2342 11.5018 25.9274 11.2729 25.6062C10.2312 26.35 9.24583 26.7104 8.14792 26.3583C6.7875 25.9229 5.94583 24.8333 5.14583 23.7562C4.975 23.5271 5.19375 22.9458 5.34375 22.5687C5.45 22.3041 5.74167 22.1146 5.97917 21.8625L5.36875 21.2166C4.13125 19.8958 4.11875 18.1062 5.36875 16.8104C6.91042 15.2271 8.48125 13.6854 10.0542 12.125C10.2948 11.9338 10.5562 11.7703 10.8333 11.6375C9.4 10.1937 8.18333 8.9583 6.93125 7.7458C6.71059 7.57847 6.4393 7.49172 6.1625 7.49997C4.65417 7.47705 3.14792 7.46247 1.64167 7.49997C0.977083 7.52497 0.416667 7.38955 0 6.86247V6.08122ZM7.75208 23.3562C8.72083 24.5791 9.09375 24.6062 10.2229 23.475L24.2729 9.42288C25.35 8.3458 25.3146 7.93747 24.1187 6.99372L7.75208 23.3562ZM7.52083 20.1896L20.9562 6.75413C19.9667 5.5833 19.6771 5.56663 18.5875 6.65413L7.40833 17.8354C6.33333 18.9104 6.35417 19.2375 7.52083 20.1896ZM13.7708 23.0166L12.8187 23.9583L13.4188 24.7916L14.4958 23.8729L13.7708 23.0166ZM25.6042 12.7437L24.8667 11.9104L23.8625 12.9333L24.6313 13.7312L25.6042 12.7437ZM18.9375 19.2458L19.9792 18.2312L19.4083 17.5396L18.3333 18.5666L18.9375 19.2458Z" fill="white"/>
<path d="M33.3644 24.7375C32.2019 23.5667 31.4019 22.223 31.1269 20.6125C31.0519 20.1776 31.0122 19.7372 31.0081 19.2959C30.9956 17.2688 30.9769 15.2417 31.0081 13.2146C31.0498 10.35 33.1602 8.27504 36.0081 8.25629C37.6206 8.24379 39.231 8.24588 40.8414 8.25629C43.6352 8.27088 45.7581 10.1313 45.9123 12.9125C46.0373 15.1917 45.981 17.4959 45.9123 19.7688C45.8456 21.6917 44.9977 23.3105 43.5456 24.75C45.6498 25.3605 47.3789 26.4167 48.6477 28.148C49.9164 29.8792 50.4727 31.8521 50.3914 34.0813C51.9414 34.2605 53.4519 34.4396 54.9644 34.6084C58.3206 34.9792 61.6789 35.3146 65.0289 35.7313C66.6956 35.9396 67.9456 36.8209 68.5164 38.4542C68.6685 38.8709 68.8873 38.9813 69.2977 39.0021C70.3394 39.0542 71.381 39.1438 72.406 39.248C74.5477 39.4563 75.5581 40.4313 75.781 42.5813C75.8727 43.473 75.7956 44.3834 75.7956 45.3688C75.9352 45.4021 76.1768 45.4667 76.4206 45.5167C77.359 45.7026 78.2067 46.2009 78.8256 46.9303C79.4446 47.6597 79.7982 48.5773 79.8289 49.5334C79.8623 50.598 79.8519 51.6646 79.8289 52.7292C79.8143 53.5625 79.4123 53.9459 78.556 53.9563C77.4935 53.9688 76.4289 53.9563 75.2664 53.9563C75.2873 55.5 74.8623 56.8521 73.7477 57.9146C72.6331 58.9771 71.2914 59.3105 69.7206 59.2563V60.1417C69.7206 64.6653 69.7206 69.1869 69.7206 73.7063C69.7206 75.6646 68.9393 76.4459 66.9893 76.4521C66.2373 76.4521 65.4831 76.4521 64.7289 76.4521C63.1519 76.4292 62.2831 75.5688 62.2581 73.9771C62.2352 72.6 62.2581 71.223 62.2581 69.8459V59.2917H21.4831V73.523C21.4831 75.7063 20.7289 76.4396 18.5227 76.4521H16.7289C14.8269 76.4521 14.0206 75.648 14.0206 73.7646C14.0206 69.2438 14.0206 64.7223 14.0206 60.2V59.275C12.481 59.2917 11.1039 58.975 9.98102 57.9021C8.85811 56.8292 8.45602 55.5167 8.47061 53.9584C7.38727 53.9584 6.35394 53.9584 5.31852 53.9584C4.28311 53.9584 3.91019 53.5834 3.90186 52.5563C3.90186 51.673 3.90186 50.7896 3.90186 49.9063C3.91644 47.4063 5.47477 45.6813 7.95186 45.4167C8.10394 45.4 8.25811 45.3896 8.55186 45.3646C8.11019 41.775 9.76644 40.1813 13.4602 40.6292C11.2185 37.5438 10.9352 34.498 13.2519 31.5521C15.0331 29.2771 17.5227 28.4709 20.2956 29.2292C23.7519 30.175 25.3894 32.6667 25.5039 36.2209C25.6181 36.2131 25.7316 36.1971 25.8435 36.173C26.0519 36.1105 26.2789 36.0313 26.5914 35.9271C26.5914 34.8105 26.4748 33.6813 26.6123 32.5938C27.0998 28.7146 29.2331 26.1355 32.9644 24.9209C33.0769 24.8688 33.1935 24.8105 33.3644 24.7375ZM66.5685 51.7334V50.9792C66.5685 47.3681 66.5685 43.757 66.5685 40.1459C66.5685 38.7167 65.9998 38.0459 64.5602 37.8771C61.6977 37.5417 58.831 37.2396 55.9664 36.9209C49.6164 36.2125 43.2664 35.5028 36.9164 34.7917C35.2935 34.6125 34.6019 35.2625 34.6019 36.898C34.6019 41.5757 34.6019 46.2535 34.6019 50.9313V51.7271L66.5685 51.7334ZM73.0268 54.0042H10.7352C10.5269 55.8792 11.6914 57.0625 13.6935 57.0625H70.0477C70.1769 57.0625 70.306 57.0625 70.4373 57.0625C72.0998 56.998 73.1789 55.7459 73.0227 54.0042H73.0268ZM32.3269 36.1334C33.1748 33.4125 34.5539 32.373 37.0123 32.6146C39.0956 32.823 41.1894 33.0813 43.2769 33.3125C44.8935 33.4917 46.5081 33.6605 48.1706 33.8396C48.1852 33.6438 48.1998 33.5188 48.1998 33.3938C48.2164 29.675 45.2685 26.7959 41.3248 26.7271C39.4289 26.6938 37.5331 26.7084 35.6373 26.7271C35.0661 26.7222 34.4963 26.7837 33.9394 26.9105C30.1394 27.8625 28.106 31.125 28.8185 35.8L32.3269 36.1334ZM32.3831 47.5917H31.4123C23.9123 47.5917 16.406 47.5917 8.89352 47.5917C8.5305 47.5797 8.16714 47.6013 7.80811 47.6563C6.93311 47.8209 6.30186 48.3563 6.17269 49.2209C6.05186 50.0542 6.14769 50.9021 6.14769 51.7313H32.3831V47.5917ZM33.1935 16.25C33.1935 17.373 33.1644 18.4355 33.1935 19.4938C33.281 22.0896 35.331 24.2855 37.8539 24.5063C40.6144 24.7542 43.1039 23.0813 43.5914 20.4625C43.8456 19.1084 43.7644 17.6896 43.8373 16.25H33.1935ZM23.2644 35.8667C23.2598 34.9374 22.9797 34.0303 22.4596 33.2602C21.9394 32.4901 21.2025 31.8915 20.3421 31.5403C19.4817 31.189 18.5365 31.1008 17.626 31.2869C16.7154 31.473 15.8806 31.9249 15.2269 32.5855C14.5733 33.2461 14.1303 34.0858 13.9539 34.9982C13.7776 35.9107 13.8758 36.8549 14.2362 37.7115C14.5966 38.5681 15.203 39.2986 15.9786 39.8106C16.7542 40.3225 17.6642 40.5929 18.5935 40.5875C19.2115 40.587 19.8233 40.464 20.3934 40.2256C20.9635 39.9871 21.4807 39.638 21.9151 39.1984C22.3495 38.7588 22.6923 38.2375 22.9239 37.6645C23.1555 37.0916 23.2712 36.4784 23.2644 35.8605V35.8667ZM32.3894 38.3334C30.931 38.2105 29.5477 38.0709 28.1539 37.9896C27.7125 37.9855 27.2729 38.0473 26.8498 38.173C25.1956 38.5896 24.0956 39.8396 24.0019 41.3709C23.8956 43.0688 24.756 44.375 26.4581 45C28.3914 45.7146 30.3894 45.2771 32.3894 45.4167V38.3334ZM19.2435 74.2334V59.2938H16.2623V74.2334H19.2435ZM67.4998 59.3125H64.5039V74.2146H67.4998V59.3125ZM68.7914 51.7167H77.6498C77.6498 50.9855 77.6748 50.3125 77.6498 49.6334C77.6019 48.5646 76.8935 47.673 75.831 47.6375C73.5039 47.5584 71.1727 47.6125 68.7977 47.6125L68.7914 51.7167ZM43.6894 13.9834C44.031 11.9355 42.8289 10.4417 40.8644 10.4417C39.2519 10.4292 37.6407 10.4292 36.031 10.4417C34.0644 10.4605 32.8456 12.0334 33.3039 13.9834H43.6894ZM10.8331 45.3459H23.0206C22.6935 44.6834 22.3081 44.0959 22.1102 43.4355C21.9352 42.8605 21.6498 42.7521 21.1144 42.7563C18.3914 42.7813 15.6664 42.798 12.9435 42.7563C10.6727 42.725 10.6248 42.9063 10.7581 45.2563C10.756 45.275 10.7852 45.2938 10.8331 45.3459ZM68.8123 41.1417V45.4C70.1914 45.4 71.5206 45.423 72.831 45.3771C72.9688 45.3537 73.0991 45.2982 73.2113 45.2149C73.3235 45.1316 73.4145 45.023 73.4769 44.898C73.8205 43.9616 73.7831 42.9278 73.3727 42.0188C73.3192 41.8942 73.2396 41.7825 73.1394 41.6913C73.0391 41.6 72.9205 41.5312 72.7914 41.4896C71.4831 41.3396 70.1685 41.25 68.8123 41.1417Z" fill="white"/>
<path d="M64.3419 25.6438H50.6252C49.1377 25.6438 48.8794 25.3917 48.8794 23.9376V6.93964C48.8794 5.50631 49.144 5.23547 50.5461 5.23547H78.2231C79.5377 5.23547 79.844 5.54172 79.844 6.82714V24.0584C79.844 25.3438 79.5419 25.6417 78.219 25.6417L64.3419 25.6438ZM51.1023 23.3938H77.6044V7.46881H51.1023V23.3938Z" fill="white"/>
<path d="M64.8564 16.8146C64.3876 18.5354 63.0605 18.4229 61.7522 18.3646C61.3105 18.3458 60.8668 18.3896 60.4293 18.3458C59.7751 18.2833 59.3564 17.9292 59.3772 17.2312C59.398 16.5333 59.8168 16.2125 60.4897 16.1896C60.5152 16.1854 60.5413 16.1854 60.5668 16.1896C62.2835 16.5958 63.1314 15.7 63.5918 14.1917C63.6584 13.8832 63.8017 13.5966 64.0085 13.3583C64.3251 13.0646 64.7585 12.6729 65.1064 12.7042C65.4543 12.7354 65.8814 13.1729 66.0751 13.5375C66.3647 14.0771 66.4793 14.7083 66.671 15.3021C66.8626 15.8958 67.0585 16.4812 67.3189 17.2687C67.5855 16.4479 67.8001 15.8104 68.0022 15.15C68.171 14.6187 68.4355 14.2 69.0605 14.1708C69.7189 14.1375 70.0335 14.5333 70.2418 15.0958C70.5439 15.9292 70.8668 16.7375 71.1918 17.5542C72.6855 17.075 74.1876 17.3292 75.6689 17.3458C76.248 17.3458 76.5876 17.8292 76.5626 18.4292C76.5355 19.0687 76.1314 19.4354 75.521 19.4708C74.771 19.5167 74.0105 19.4354 73.2626 19.5104C72.9022 19.5479 72.546 19.7833 72.221 19.9917C72.0126 20.1271 71.8855 20.3854 71.698 20.5625C71.073 21.1479 70.273 21.0167 69.9001 20.25C69.6751 19.7875 69.5105 19.2979 69.2335 18.6062C68.9397 19.5083 68.6918 20.2187 68.4772 20.9375C68.298 21.5375 68.0001 22 67.3085 21.9792C66.6585 21.9667 66.3814 21.5125 66.2043 20.95C65.7585 19.5687 65.3043 18.1937 64.8564 16.8146Z" fill="white"/>
<path d="M55.0939 11.0709C54.5231 11.0709 53.9543 11.0834 53.3856 11.0709C52.6189 11.05 52.146 10.6167 52.1564 9.9667C52.1564 9.3417 52.6189 8.91045 53.3377 8.89795C54.4779 8.87712 55.6168 8.87712 56.7543 8.89795C57.471 8.89795 57.9335 9.34378 57.9481 9.96045C57.9627 10.5771 57.4835 11.05 56.7231 11.0709C56.1814 11.0834 55.6377 11.0709 55.0939 11.0709Z" fill="white"/>
<path d="M55.0373 21.9854C54.4414 21.9854 53.8456 22.0041 53.2519 21.9854C52.5789 21.9583 52.1748 21.5687 52.1685 20.9083C52.1623 20.2479 52.5706 19.8395 53.2373 19.8208C54.4289 19.7916 55.6185 19.7937 56.8102 19.8208C57.5102 19.8354 57.9914 20.3208 57.9394 20.9375C57.8831 21.5979 57.4935 21.9562 56.8227 21.9916H55.0373V21.9854Z" fill="white"/>
<path d="M54.9999 14.6896C54.4062 14.6896 53.8104 14.7042 53.2166 14.6896C53.0794 14.6979 52.942 14.6778 52.813 14.6305C52.6839 14.5831 52.5661 14.5096 52.4669 14.4145C52.3677 14.3194 52.2892 14.2048 52.2365 14.0779C52.1837 13.951 52.1578 13.8145 52.1604 13.6771C52.1229 13.0521 52.4874 12.5896 53.1083 12.5625C54.3958 12.5063 55.6916 12.5042 56.9812 12.5625C57.6062 12.5917 57.9645 13.0563 57.9249 13.6813C57.926 13.8174 57.8992 13.9524 57.8462 14.0778C57.7932 14.2032 57.7152 14.3165 57.6169 14.4107C57.5186 14.505 57.402 14.5781 57.2745 14.6257C57.1469 14.6733 57.0109 14.6943 56.8749 14.6875C56.2499 14.7021 55.6249 14.6896 54.9999 14.6896Z" fill="white"/>
<path d="M55.0728 16.1875C55.6666 16.1875 56.2624 16.173 56.8561 16.1875C57.5395 16.2084 57.9249 16.6042 57.9332 17.2605C57.9453 17.3987 57.928 17.538 57.8826 17.6692C57.8372 17.8003 57.7647 17.9204 57.6697 18.0217C57.5748 18.1229 57.4596 18.203 57.3316 18.2567C57.2036 18.3104 57.0657 18.3365 56.927 18.3334C55.6881 18.3792 54.4478 18.3792 53.2061 18.3334C53.0608 18.3408 52.9157 18.3164 52.7808 18.2618C52.646 18.2073 52.5247 18.1239 52.4254 18.0175C52.3262 17.9111 52.2514 17.7843 52.2063 17.646C52.1613 17.5076 52.147 17.3611 52.1645 17.2167C52.1936 16.5542 52.6061 16.1917 53.2832 16.175C53.8791 16.175 54.4728 16.175 55.0686 16.175L55.0728 16.1875Z" fill="white"/>
</g>
<defs>
<clipPath id="clip0_540_3019">
<rect width="80" height="80" fill="white"/>
</clipPath>
</defs>
</svg>
