<svg width="52" height="40" viewBox="0 0 52 40" fill="none" xmlns="http://www.w3.org/2000/svg">
<g clip-path="url(#clip0_2164_3354)">
<path d="M32.929 8.67641H36.4014C36.4014 8.37882 36.4014 8.09575 36.4014 7.80543C36.4471 7.14597 36.7401 6.52838 37.2216 6.0771C37.703 5.62581 38.337 5.37438 38.9959 5.37346C39.6548 5.37253 40.2895 5.6222 40.7722 6.07214C41.2549 6.52207 41.5496 7.13884 41.5971 7.79817C41.5971 8.06817 41.5971 8.33963 41.5971 8.69238C42.1151 8.69238 42.6099 8.7069 43.1105 8.69238C44.3302 8.64738 45.1766 9.23384 45.5962 10.3298C46.0607 11.542 46.4094 12.7976 46.7884 14.0431C47.305 15.7372 47.8012 17.44 48.3178 19.1326C48.3984 19.3873 48.536 19.6202 48.72 19.8134C49.6508 20.7744 50.5946 21.7228 51.5515 22.6586C51.7025 22.7995 51.8211 22.9717 51.8991 23.1632C51.977 23.3547 52.0125 23.561 52.0029 23.7677C51.9913 27.0644 52.0029 30.361 52.0029 33.6577C52.0029 34.4764 51.7063 34.7784 50.9018 34.7813C49.5317 34.7813 48.1615 34.7813 46.7551 34.7813C46.3486 36.8542 45.2765 38.4293 43.3869 39.3714C41.9516 40.087 40.4584 40.1683 38.9175 39.7125C36.3132 38.9417 33.5005 35.6639 35.2063 31.3032H19.4949C19.297 31.3151 19.0985 31.3088 18.9017 31.2843C18.4257 31.1928 18.1783 30.8836 18.1986 30.4002C18.1891 30.1977 18.2578 29.9993 18.3904 29.8463C18.523 29.6933 18.7092 29.5974 18.9104 29.5786C19.0901 29.5585 19.2711 29.5536 19.4515 29.5641C24.9206 29.5641 30.3902 29.5641 35.8603 29.5641C36.2511 29.5808 36.6334 29.4462 36.9281 29.1881C39.1534 27.3344 42.3538 27.3736 44.6109 29.223C44.8567 29.4165 45.1567 29.5282 45.4689 29.5423C47.0373 29.5728 48.6071 29.5568 50.2175 29.5568C50.2334 29.403 50.2594 29.2665 50.2594 29.1213C50.2594 27.4911 50.2725 25.861 50.2479 24.2308C50.2336 23.9726 50.1314 23.7271 49.9585 23.5354C49.1121 22.6441 48.215 21.8007 47.3759 20.9021C47.0814 20.5919 46.8582 20.2208 46.7219 19.8149C45.8986 17.1555 45.1159 14.4844 44.3143 11.8178C44.226 11.5274 44.1696 11.1907 43.9859 10.9657C43.8021 10.7406 43.4679 10.446 43.1988 10.4431C39.8059 10.4082 36.413 10.4198 32.9261 10.4198V26.565C32.9368 26.7456 32.9315 26.9268 32.9102 27.1065C32.8234 27.5855 32.5224 27.8323 32.0421 27.825C31.5617 27.8178 31.2723 27.5478 31.2072 27.0673C31.1915 26.8867 31.1882 26.7053 31.1971 26.5244C31.1971 19.841 31.1971 13.1567 31.1971 6.47137C31.1971 5.45522 30.9627 5.2186 29.9644 5.2186H2.88503C2.03139 5.2186 1.72755 5.48715 1.72755 6.2812C1.72755 13.9265 1.72755 21.5718 1.72755 29.2171C1.72755 29.3071 1.72755 29.3972 1.74201 29.5278C1.8867 29.5409 2.01836 29.5655 2.15437 29.567C3.65331 29.567 5.15081 29.5772 6.64975 29.5583C6.87608 29.5512 7.09438 29.4725 7.27334 29.3333C10.8992 26.2979 16.1643 28.0863 17.1973 32.7127C17.2176 32.7998 17.2306 32.8898 17.261 33.0466H31.6442C31.8246 33.0374 32.0055 33.0412 32.1853 33.0582C32.6642 33.1322 32.9203 33.4284 32.9218 33.9118C32.9232 34.3952 32.6657 34.6927 32.1897 34.7711C32.01 34.7905 31.829 34.7954 31.6485 34.7856H17.2755C16.9441 36.5552 16.0934 37.9793 14.6104 38.9765C13.5114 39.7264 12.1932 40.0842 10.8673 39.9927C8.0995 39.833 5.90317 37.8152 5.25353 34.7885H1.28481C0.245966 34.7842 0 34.549 0 33.5169V16.7243C0 13.2655 0 9.80579 0 6.34507C0 4.54359 1.06633 3.48389 2.86767 3.48389C11.9298 3.48389 20.992 3.48389 30.0541 3.48389C31.8786 3.48389 32.9275 4.54649 32.929 6.39443C32.9304 7.13332 32.929 7.8751 32.929 8.67641ZM6.93333 33.935C6.93764 34.7946 7.19594 35.6337 7.67556 36.346C8.15519 37.0584 8.8346 37.612 9.62786 37.937C10.4211 38.2619 11.2926 38.3435 12.1321 38.1714C12.9716 37.9994 13.7414 37.5814 14.3441 36.9704C14.9468 36.3594 15.3554 35.5828 15.5182 34.7388C15.6809 33.8948 15.5906 33.0213 15.2585 32.2288C14.9265 31.4364 14.3677 30.7605 13.6527 30.2867C12.9378 29.8129 12.0989 29.5624 11.2421 29.567C10.6733 29.5698 10.1106 29.6851 9.58619 29.9062C9.06179 30.1273 8.58594 30.4498 8.18581 30.8554C7.78569 31.2611 7.46914 31.7418 7.25423 32.2702C7.03933 32.7986 6.93029 33.3643 6.93333 33.935ZM36.3971 33.9219C36.3988 34.7816 36.6546 35.6214 37.1321 36.3352C37.6096 37.049 38.2873 37.6047 39.0796 37.932C39.8719 38.2594 40.7431 38.3436 41.5831 38.1741C42.4231 38.0046 43.1942 37.5889 43.7987 36.9798C44.4033 36.3706 44.8142 35.5952 44.9795 34.7517C45.1448 33.9082 45.0571 33.0344 44.7274 32.2409C44.3977 31.4474 43.8409 30.7699 43.1274 30.2939C42.4139 29.818 41.5757 29.565 40.7189 29.567C39.5702 29.5697 38.4697 30.03 37.6592 30.8466C36.8488 31.6633 36.3948 32.7695 36.3971 33.9219ZM1.75938 33.0088H5.23183C5.40256 32.4282 5.55882 31.8809 5.71508 31.3453H1.75938V33.0088ZM50.2291 31.3365H46.2632C46.4368 31.9172 46.6003 32.4616 46.7682 33.0175H50.2406L50.2291 31.3365ZM38.1435 8.66625H39.8681C39.8073 8.09866 40.0707 7.45848 39.4587 7.1217C39.3101 7.05444 39.1488 7.0205 38.9859 7.02225C38.8229 7.02401 38.6623 7.06142 38.5153 7.13186C37.9221 7.48026 38.1666 8.10882 38.1435 8.66625Z" fill="#0B1030"/>
<path d="M13.8651 20.0021C13.0071 20.0021 12.2316 20.0021 11.4576 20.0021C10.711 20.0021 10.4042 19.69 10.3999 18.9453C10.3999 17.8958 10.3999 16.8448 10.3999 15.7938C10.3999 15.1115 10.7182 14.7951 11.391 14.7878C12.1983 14.7791 13.0057 14.7878 13.8637 14.7878C13.8637 13.9604 13.8637 13.191 13.8637 12.4115C13.8637 11.6 14.153 11.3111 14.9806 11.3097C15.9934 11.3097 17.0062 11.3097 18.019 11.3097C18.7613 11.3097 19.0637 11.6189 19.0695 12.3694C19.0695 13.1475 19.0695 13.9256 19.0695 14.7864H21.3844C22.2395 14.7864 22.5246 15.0767 22.5274 15.9172C22.5274 16.913 22.5274 17.9089 22.5274 18.9047C22.5274 19.69 22.2251 19.9963 21.4553 20.0021C20.6856 20.0079 19.9072 20.0021 19.0622 20.0021C19.0622 20.8049 19.0622 21.5757 19.0622 22.3465C19.0622 23.1928 18.7729 23.4774 17.9178 23.4788C16.905 23.4788 15.8922 23.4788 14.8794 23.4788C14.1747 23.4788 13.8666 23.1565 13.8666 22.4423C13.8593 21.6483 13.8651 20.8557 13.8651 20.0021ZM15.6014 13.0691C15.6014 13.8718 15.6014 14.6296 15.6014 15.3917C15.6014 16.238 15.312 16.5254 14.4612 16.5283C13.6944 16.5283 12.9276 16.5283 12.1622 16.5283V18.2703C12.9579 18.2703 13.7277 18.2703 14.4988 18.2703C15.3076 18.2703 15.5985 18.5606 15.6014 19.3866C15.6014 20.1589 15.6014 20.9297 15.6014 21.7093H17.3376C17.3376 20.9167 17.3376 20.1604 17.3376 19.4026C17.3376 18.5534 17.6269 18.2703 18.4748 18.2674C19.2416 18.2674 20.0099 18.2674 20.7594 18.2674V16.5254C19.9578 16.5254 19.2011 16.5254 18.4444 16.5254C17.6342 16.5254 17.3419 16.2264 17.3376 15.4106C17.3376 14.6383 17.3376 13.8675 17.3376 13.072L15.6014 13.0691Z" fill="#0B1030"/>
<path d="M39.7884 20.8674C38.4356 20.8674 37.0813 20.8674 35.7285 20.8674C34.982 20.8674 34.6709 20.5567 34.6694 19.8135C34.6694 17.6234 34.6694 15.4324 34.6694 13.2404C34.6694 12.487 34.9718 12.1778 35.7112 12.1749C37.7498 12.1749 39.7899 12.1749 41.8285 12.1749C42.3508 12.1749 42.6763 12.3999 42.8268 12.9007C43.4924 15.1334 44.1724 17.3631 44.8293 19.6001C45.0608 20.3854 44.6773 20.863 43.8483 20.8674C42.4897 20.8717 41.1354 20.8674 39.7884 20.8674ZM42.8123 19.1109C42.8197 19.054 42.8197 18.9964 42.8123 18.9396C42.3407 17.3428 41.8748 15.7561 41.38 14.1738C41.3409 14.0519 41.0978 13.9271 40.9459 13.9227C40.0633 13.8995 39.1807 13.9111 38.2982 13.9111H36.4375V19.1109H42.8123Z" fill="#0B1030"/>
<path d="M39.8567 1.75938C39.8567 2.06713 39.8755 2.37633 39.8567 2.68263C39.8561 2.79644 39.8317 2.90887 39.7852 3.01266C39.7386 3.11645 39.6709 3.2093 39.5863 3.28521C39.5018 3.36112 39.4024 3.41842 39.2944 3.4534C39.1865 3.48837 39.0724 3.50026 38.9596 3.48829C38.8507 3.49113 38.7423 3.47157 38.6412 3.43083C38.5401 3.39008 38.4484 3.32901 38.3716 3.25137C38.2949 3.17372 38.2349 3.08115 38.1952 2.97935C38.1554 2.87754 38.1369 2.76866 38.1407 2.6594C38.1204 2.06326 38.1204 1.46567 38.1407 0.866624C38.1358 0.747932 38.1561 0.62955 38.2002 0.519312C38.2443 0.409074 38.3113 0.309492 38.3966 0.227155C38.482 0.144818 38.5838 0.0816025 38.6953 0.0416914C38.8068 0.00178032 38.9255 -0.0139167 39.0435 -0.00436114C39.534 0.0116069 39.8378 0.333871 39.8639 0.885495C39.8769 1.17582 39.8639 1.46615 39.8639 1.75648L39.8567 1.75938Z" fill="#0B1030"/>
<path d="M36.4289 22.6137C36.7183 22.6137 37.0077 22.5977 37.297 22.6137C37.5158 22.622 37.7232 22.714 37.8765 22.8709C38.0298 23.0277 38.1174 23.2375 38.1213 23.4572C38.1251 23.6769 38.045 23.8897 37.8974 24.0519C37.7498 24.2141 37.5458 24.3135 37.3274 24.3295C36.697 24.3615 36.0654 24.3615 35.4349 24.3295C34.943 24.3063 34.6522 23.9449 34.658 23.4586C34.6533 23.3497 34.6704 23.2409 34.7083 23.1388C34.7461 23.0366 34.804 22.9431 34.8784 22.8637C34.9528 22.7843 35.0423 22.7206 35.1416 22.6765C35.2409 22.6323 35.348 22.6085 35.4566 22.6064C35.4928 22.6064 35.529 22.6064 35.5652 22.6064H36.4333L36.4289 22.6137Z" fill="#0B1030"/>
<path d="M34.8781 1.18311C34.9779 1.25859 35.2528 1.38489 35.3975 1.59828C35.7228 2.09591 36.0199 2.61158 36.2873 3.14282C36.5333 3.61751 36.3958 4.06026 35.9661 4.30414C35.5364 4.54801 35.0878 4.45656 34.8014 3.99784C34.4729 3.48116 34.1706 2.94822 33.8956 2.40104C33.5918 1.78989 34.0128 1.17295 34.8781 1.18311Z" fill="#0B1030"/>
<path d="M42.5981 4.44348C41.8183 4.42025 41.3929 3.78443 41.6736 3.21394C41.9632 2.63399 42.2859 2.07127 42.6401 1.52858C42.6984 1.43619 42.7751 1.35688 42.8654 1.29561C42.9557 1.23435 43.0576 1.19245 43.1648 1.17256C43.2719 1.15266 43.382 1.15519 43.4882 1.17998C43.5944 1.20477 43.6943 1.2513 43.7817 1.31664C44.1781 1.57939 44.3271 1.95246 44.1 2.3894C43.8069 2.96566 43.4818 3.52494 43.1262 4.0646C42.9931 4.26783 42.7124 4.36654 42.5981 4.44348Z" fill="#0B1030"/>
<path d="M13.8624 33.9466C13.857 34.4651 13.698 34.9703 13.4056 35.3979C13.1132 35.8255 12.7006 36.1561 12.2204 36.3477C11.7401 36.5393 11.2139 36.5831 10.7087 36.4737C10.2035 36.3643 9.74214 36.1066 9.38339 35.7333C9.02465 35.36 8.78471 34.8881 8.69413 34.3776C8.60354 33.8671 8.6664 33.341 8.8747 32.8665C9.083 32.3919 9.42732 31.9903 9.86385 31.7127C10.3004 31.435 10.8094 31.294 11.326 31.3075C12.0077 31.3305 12.6537 31.6189 13.1271 32.1115C13.6005 32.6041 13.8642 33.2623 13.8624 33.9466ZM11.2667 33.048C11.1539 33.0459 11.0419 33.0663 10.937 33.1079C10.8322 33.1496 10.7366 33.2117 10.6558 33.2907C10.5751 33.3697 10.5108 33.464 10.4666 33.5681C10.4224 33.6722 10.3993 33.7841 10.3986 33.8973C10.3845 34.0193 10.3962 34.1429 10.4331 34.2601C10.47 34.3772 10.5312 34.4852 10.6126 34.577C10.6941 34.6687 10.7939 34.7421 10.9057 34.7924C11.0174 34.8427 11.1385 34.8686 11.2609 34.8686C11.3834 34.8686 11.5044 34.8427 11.6161 34.7924C11.7279 34.7421 11.8277 34.6687 11.9092 34.577C11.9906 34.4852 12.0518 34.3772 12.0887 34.2601C12.1256 34.1429 12.1373 34.0193 12.1232 33.8973C12.1217 33.6707 12.0306 33.4541 11.8701 33.2949C11.7095 33.1357 11.4925 33.0469 11.2667 33.048Z" fill="#0B1030"/>
<path d="M40.71 36.5219C40.1934 36.5195 39.6892 36.363 39.2615 36.0723C38.8337 35.7817 38.5018 35.3699 38.308 34.8895C38.1141 34.409 38.0671 33.8816 38.1728 33.3742C38.2785 32.8669 38.5322 32.4026 38.9017 32.0403C39.2712 31.678 39.7397 31.4341 40.2476 31.3397C40.7556 31.2453 41.2801 31.3046 41.7544 31.5101C42.2287 31.7155 42.6313 32.0579 42.9112 32.4936C43.191 32.9293 43.3354 33.4386 43.3259 33.9569C43.3075 34.6416 43.0242 35.2923 42.5359 35.7711C42.0476 36.2498 41.3927 36.5191 40.71 36.5219ZM41.5911 33.9191C41.5736 33.7047 41.4775 33.5044 41.3216 33.3568C41.1656 33.2092 40.9607 33.1248 40.7463 33.1197C40.532 33.1147 40.3233 33.1894 40.1606 33.3295C39.9979 33.4696 39.8926 33.6651 39.865 33.8785C39.8494 33.9996 39.8593 34.1226 39.8941 34.2396C39.9289 34.3566 39.9879 34.465 40.0671 34.5577C40.1464 34.6504 40.2442 34.7253 40.3542 34.7776C40.4642 34.8299 40.5839 34.8584 40.7056 34.8612C40.8273 34.8641 40.9482 34.8413 41.0605 34.7942C41.1728 34.7471 41.274 34.6769 41.3575 34.5881C41.441 34.4992 41.505 34.3938 41.5452 34.2785C41.5855 34.1633 41.6011 34.0408 41.5911 33.9191Z" fill="#0B1030"/>
</g>
<defs>
<clipPath id="clip0_2164_3354">
<rect width="52" height="40" fill="white"/>
</clipPath>
</defs>
</svg>
