<svg width="40" height="40" viewBox="0 0 40 40" fill="none" xmlns="http://www.w3.org/2000/svg">
<g clip-path="url(#clip0_2164_3529)">
<path d="M19.9904 40C8.97966 39.985 0.00857145 31.0189 6.14002e-06 20.0198C-0.00855917 8.9447 8.9454 -0.0149693 20.0096 1.87771e-05C31.0739 0.0150069 40.0514 9.02071 40 20.0466C39.9486 31.0896 30.9979 40.015 19.9904 40ZM11.7463 25.4669C15.2973 27.2461 19.0821 28.5145 22.9882 29.2343C23.0289 29.1925 23.0953 29.1272 23.1574 29.063C25.6436 26.4567 27.7752 23.5337 29.4968 20.3699C29.5953 20.189 29.7655 20.0487 29.5964 19.7864C28.5846 18.2084 27.6627 16.5683 26.575 15.0459C25.5043 13.5471 24.2709 12.1618 23.1285 10.7508C19.4629 11.3986 15.8985 12.5256 12.5268 14.1027C12.4197 14.1541 12.2623 14.1092 12.0814 14.1092C11.7215 17.8837 11.6109 21.6778 11.7505 25.4669H11.7463ZM12.1745 13.1831C16.8319 11.042 21.6478 9.68447 26.7516 9.31405C26.7353 9.22489 26.7132 9.13691 26.6852 9.05068C26.2045 7.87305 25.7698 6.67079 25.2248 5.51778C24.636 4.28233 23.8576 3.15287 22.8051 2.24074C21.3362 0.968892 19.7174 0.776188 17.9947 1.67868C17.0778 2.15609 16.2699 2.81845 15.6221 3.62392C13.3833 6.39993 12.6124 9.70374 12.1745 13.1831ZM8.1756 24.5965C7.8544 25.9241 7.51714 27.1499 7.27838 28.395C6.95718 30.0726 6.89508 31.7662 7.4711 33.4106C7.95076 34.7788 8.8544 35.7198 10.3373 35.9907C11.6328 36.2273 12.8812 35.9907 14.0921 35.5464C17.1863 34.4052 19.7323 32.4417 22.06 30.1646C22.0814 30.1432 22.076 30.094 22.0857 30.0479C17.1767 29.0555 12.5664 27.3137 8.1756 24.5965ZM32.2655 23.1641C32.8758 22.6909 33.4732 22.252 34.0439 21.7809C35.4101 20.6547 36.6263 19.3903 37.4936 17.8273C37.9144 17.0682 38.2109 16.26 38.243 15.3874C38.2955 13.8619 37.5428 12.7613 36.3159 11.9466C35.1381 11.1608 33.8009 10.769 32.4208 10.527C30.2227 10.1362 28.0118 10.1534 25.7976 10.3761C25.2859 10.4274 24.7773 10.511 24.1917 10.5902C27.6563 14.3222 30.348 18.4578 32.2666 23.1641H32.2655ZM20.8094 32.6377C21.3159 32.9909 21.773 33.3314 22.2548 33.6419C23.9914 34.7681 25.8041 35.738 27.8897 36.0164C30.3009 36.3376 31.9668 35.4394 32.6745 32.9974C33.1349 31.4076 33.0064 29.7963 32.7227 28.1948C32.2944 25.7945 31.4529 23.5335 30.3854 21.3516C30.3353 21.262 30.2799 21.1755 30.2195 21.0925C27.757 25.5119 24.6681 29.3628 20.8094 32.6377ZM11.6296 10.2497C11.5152 10.236 11.4 10.2292 11.2848 10.2294C10.0268 10.33 8.75804 10.3686 7.51178 10.5506C6.06211 10.7647 4.66703 11.2122 3.46574 12.1029C2.1242 13.1018 1.49894 14.41 1.84262 16.0908C2.04926 17.1036 2.52998 17.9986 3.13277 18.8272C4.58138 20.8217 6.47217 22.3291 8.52142 23.6534C9.22806 24.1094 9.96682 24.5162 10.7366 24.9745C10.6413 20.0038 10.772 15.1284 11.6296 10.2497ZM36.772 11.0045C33.7163 5.66766 29.2527 2.46235 23.227 1.24082C23.2864 1.31815 23.35 1.39213 23.4176 1.46243C24.3608 2.27071 25.0782 3.261 25.7002 4.32408C26.5346 5.76839 27.1996 7.30412 27.682 8.9008C27.7388 9.0828 27.7677 9.26587 28.0514 9.25731C28.6371 9.24018 29.2291 9.25731 29.8105 9.27765C31.485 9.33332 33.1349 9.54529 34.7152 10.1266C35.3812 10.3718 36.0214 10.6812 36.772 11.0045ZM1.19058 17.49C0.79471 20.304 1.04658 23.1712 1.92699 25.8731C2.8074 28.575 4.29312 31.0402 6.27088 33.0809C5.64669 29.9537 6.44647 27.0086 7.37902 24.1073C4.85118 22.2862 2.52891 20.356 1.19058 17.49ZM20.0214 33.295C17.5289 35.1364 14.9475 36.7508 11.6702 37.088C14.2655 38.3577 17.1166 39.0178 20.0059 39.0178C22.8952 39.0178 25.7463 38.3577 28.3415 37.088C25.0707 36.7337 22.4989 35.1267 20.0214 33.295ZM33.8009 33.067C35.7457 31.0201 37.206 28.5626 38.0739 25.8759C38.9422 23.2316 39.3201 18.7362 38.7966 17.5382C38.469 18.0971 38.167 18.6891 37.7944 19.234C36.5867 21.0026 34.9936 22.3847 33.2816 23.6405C32.6306 24.118 32.6285 24.1148 32.8769 24.8728C33.4593 26.6488 33.9079 28.4549 33.9347 30.3327C33.9465 31.2491 33.8469 32.1687 33.7998 33.0648L33.8009 33.067ZM16.5953 1.31897C10.671 2.48519 6.23555 5.70941 3.28909 10.9916C4.31157 10.39 5.41542 10.0163 6.55568 9.74228C8.11881 9.38013 9.72143 9.21683 11.3255 9.25623C11.7366 9.26266 11.9026 9.12562 12.0471 8.71452C12.4904 7.45338 12.9508 6.18903 13.5343 4.98891C14.2471 3.53889 15.2967 2.28053 16.5953 1.31897Z" fill="#0B1030"/>
</g>
<defs>
<clipPath id="clip0_2164_3529">
<rect width="40" height="40" fill="white"/>
</clipPath>
</defs>
</svg>
