<svg width="31" height="40" viewBox="0 0 31 40" fill="none" xmlns="http://www.w3.org/2000/svg">
<g clip-path="url(#clip0_2164_4747)">
<g clip-path="url(#clip1_2164_4747)">
<path d="M26.8511 25.3437C26.8511 25.8653 26.8511 26.3512 26.8511 26.8406C26.8511 27.5314 26.7961 27.6063 26.1184 27.817V32.1705C26.2066 32.19 26.2856 32.2131 26.3657 32.2257C26.8145 32.2994 26.9793 32.4802 26.9827 32.9488C26.9885 33.9851 26.9827 35.0213 26.993 36.0519C26.993 36.1877 27.1132 36.3259 27.1911 36.4548C27.2895 36.6207 27.4544 36.7646 27.5002 36.9419C27.6856 37.6638 27.8436 38.3927 27.9982 39.1227C28.1127 39.6869 27.8837 39.9908 27.3113 39.9931C25.298 40.0023 23.2835 40.0023 21.2679 39.9931C20.7012 39.9931 20.4665 39.6765 20.5902 39.1146C20.7447 38.3996 20.9039 37.6857 21.0744 36.9741C21.1099 36.8268 21.1683 36.6068 21.2713 36.5677C21.68 36.4099 21.5988 36.0852 21.5988 35.7824C21.5988 34.9338 21.5988 34.0864 21.5988 33.239C21.5988 32.4111 21.6617 32.3328 22.4677 32.1739V27.779C21.7247 27.779 21.7098 27.2482 21.7327 26.6759C21.751 26.2487 21.7327 25.8216 21.7327 25.3691H10.7529L14.9086 36.3846C15.7099 36.3777 16.422 36.6034 17.0173 37.1284C17.3217 37.3915 17.5693 37.7147 17.7445 38.078C17.9198 38.4412 18.019 38.8367 18.0361 39.2401C18.067 39.7122 17.8381 39.9885 17.3641 39.9908C15.3356 40.0012 13.3058 39.9908 11.2772 39.9908C10.9132 39.9908 10.722 39.7755 10.6018 39.4416C9.92639 37.5671 9.24485 35.6949 8.55721 33.825C8.51027 33.6972 8.45189 33.5729 8.36145 33.3576C8.03175 34.4364 7.73181 35.4151 7.43416 36.3858C7.78676 36.5458 8.12104 36.6598 8.42441 36.8463C9.28301 37.3806 9.74322 38.1785 9.83251 39.186C9.8806 39.7341 9.64248 39.992 9.09183 39.9977C6.57785 40.0039 4.06311 40.0039 1.54761 39.9977C0.884768 39.9977 0.677559 39.6523 0.884768 38.9557C1.99408 35.2171 3.1217 31.4842 4.20468 27.7375C4.41876 26.9926 4.4428 26.1935 4.5653 25.346C3.76394 25.346 3.07706 25.3553 2.40048 25.346C1.1641 25.3253 0.255129 24.5642 0.0410513 23.3886C-0.202791 22.0691 0.801198 20.7749 2.1223 20.7001C2.53589 20.673 2.9508 20.673 3.3644 20.7001C3.69754 20.7254 3.83491 20.608 3.91734 20.2844C4.48974 18.0622 5.07015 15.8435 5.64942 13.6235C6.12909 11.7882 7.33571 10.6552 9.13762 10.4111C10.3729 10.243 11.4432 10.6552 12.3717 11.4727C13.9507 12.8651 15.5302 14.2564 17.11 15.6466C17.8736 16.319 18.612 17.0213 19.3996 17.6581C20.3658 18.4353 20.8329 19.3852 20.5822 20.692H21.1134C23.656 20.692 26.1997 20.6851 28.7434 20.6989C29.2188 20.7005 29.6814 20.8539 30.0645 21.137C30.4477 21.4201 30.7315 21.8183 30.8751 22.2741C31.0262 22.7197 31.0383 23.2011 30.9098 23.6538C30.7813 24.1066 30.5184 24.509 30.1561 24.8072C29.7087 25.1738 29.1451 25.3663 28.5683 25.3495C28.0165 25.3449 27.4613 25.3437 26.8511 25.3437ZM5.05985 20.631C5.11709 20.6586 5.14113 20.6805 5.16631 20.6805C6.99799 20.6805 8.82166 20.6909 10.6488 20.6748C10.7552 20.6748 10.9201 20.4998 10.9567 20.3754C11.1605 19.6846 11.3276 18.9937 11.5177 18.3029C11.6962 17.6546 12.0901 17.5118 12.6304 17.8976C13.3402 18.4042 14.0431 18.92 14.7517 19.4301C15.331 19.8469 15.8622 20.4215 16.509 20.631C17.1558 20.8406 17.9217 20.6886 18.6349 20.6909C19.3481 20.6932 19.6194 20.3846 19.411 19.6615C19.3239 19.3604 19.1578 19.0884 18.9302 18.874C16.462 16.6748 13.9973 14.471 11.489 12.3178C9.77184 10.8486 7.43073 11.6385 6.8423 13.8285C6.55267 14.9085 6.2699 15.9897 5.98942 17.0709C5.67804 18.2583 5.36818 19.4451 5.05985 20.631ZM15.497 21.8976H9.66995C7.24298 21.8976 4.81486 21.8976 2.38674 21.8976C1.69414 21.8976 1.20989 22.3581 1.19844 22.9891C1.18699 23.6201 1.67124 24.0875 2.3524 24.1325C2.43826 24.1382 2.52412 24.1325 2.60998 24.1325C11.2067 24.1325 19.8037 24.1325 28.4011 24.1325C28.6003 24.1354 28.7991 24.1137 28.993 24.068C29.2225 24.0057 29.4256 23.8701 29.5717 23.6815C29.7179 23.4929 29.799 23.2617 29.803 23.0227C29.8071 22.7837 29.7337 22.5498 29.5939 22.3564C29.4542 22.163 29.2558 22.0205 29.0285 21.9505C28.8201 21.9038 28.6064 21.8852 28.3931 21.8953C24.0948 21.8945 19.7961 21.8945 15.497 21.8953V21.8976ZM2.19442 38.7669H8.45647C8.31337 38.1106 7.65511 37.6247 6.89382 37.5947C6.09246 37.5625 5.90242 37.3023 6.13481 36.5389C7.23458 32.9373 8.33588 29.3349 9.4387 25.7318C9.47419 25.6166 9.49365 25.5015 9.52342 25.3668H5.69407C5.6872 25.5291 5.69407 25.6707 5.67232 25.8089C5.57615 26.5608 5.55784 27.3368 5.35979 28.0588C4.73129 30.3224 4.03296 32.5654 3.36326 34.8175C2.97631 36.1186 2.59166 37.4209 2.19442 38.7669ZM16.6876 38.7853C16.4357 37.9793 15.8313 37.6017 14.8719 37.597C14.1301 37.597 14.0625 37.5487 13.805 36.8671L10.6075 28.3846C10.4931 28.0726 10.3648 27.7629 10.2023 27.3483C9.77642 28.7404 9.38032 30.0242 8.99452 31.3103C8.97745 31.4089 8.99021 31.5104 9.03115 31.6017C9.87067 33.9175 10.7155 36.2315 11.5657 38.5435C11.599 38.6053 11.6464 38.6584 11.7038 38.6984C11.7613 38.7384 11.8273 38.7642 11.8966 38.7738C13.4798 38.7899 15.0642 38.7853 16.6876 38.7853ZM25.7578 36.3466V33.4681H22.8237V36.3466H25.7578ZM21.909 38.7565H26.6736C26.5981 38.4007 26.5477 38.076 26.4538 37.7652C26.4254 37.7155 26.3855 37.6734 26.3374 37.6426C26.2894 37.6117 26.2347 37.5929 26.1779 37.5878C24.921 37.5748 23.664 37.5748 22.407 37.5878C22.3496 37.592 22.2941 37.6099 22.2451 37.6402C22.196 37.6704 22.155 37.7121 22.1254 37.7617C22.0338 38.0737 21.98 38.3973 21.909 38.7565ZM23.7201 27.7836V32.1808H24.8969C24.8969 30.7991 24.8969 29.4485 24.8969 28.1014C24.8969 28.0035 24.8797 27.9056 24.8683 27.7836H23.7201ZM25.6284 25.3656H22.9748V26.517H25.6284V25.3656ZM12.1416 20.6448H14.3831L12.5022 19.2862L12.1416 20.6448Z" fill="#0B1030"/>
<path d="M22.7732 14.4226H20.3359C19.6273 14.4226 19.4601 14.2521 19.459 13.5325C19.459 12.7139 19.459 11.8964 19.459 11.0777C19.459 10.4778 19.6639 10.2717 20.2535 10.2717C21.0777 10.2717 21.902 10.2717 22.772 10.2717C22.772 9.42658 22.772 8.62635 22.772 7.82727C22.772 7.10304 22.9254 6.9522 23.6604 6.95105C24.4743 6.95105 25.2872 6.95105 26.1011 6.95105C26.7078 6.95105 26.9025 7.14794 26.9025 7.74667C26.9025 8.56418 26.9025 9.38168 26.9025 10.2706H27.579C28.235 10.2706 28.8921 10.2706 29.5481 10.2706C29.9385 10.2706 30.1846 10.4744 30.1903 10.8681C30.2064 11.8572 30.2086 12.8486 30.1903 13.8376C30.1823 14.2314 29.9293 14.4202 29.5366 14.4202C28.6826 14.4202 27.8275 14.4202 26.9036 14.4202V15.1986C26.9036 15.8158 26.9093 16.4329 26.9036 17.0501C26.8967 17.5003 26.6941 17.7409 26.2671 17.7501C25.3116 17.7686 24.3553 17.7686 23.3982 17.7501C22.9735 17.7409 22.7812 17.5014 22.7812 17.0409C22.7686 16.1934 22.7732 15.3471 22.7732 14.4226ZM23.9729 8.18306V8.67701C23.9729 9.36786 23.9798 10.0587 23.9729 10.7496C23.9649 11.2654 23.744 11.4749 23.2322 11.4819C22.7617 11.4819 22.2901 11.4819 21.8184 11.4819H20.6851V13.1951C20.8465 13.2032 20.985 13.2136 21.1235 13.2147C21.7955 13.2147 22.4664 13.2147 23.1372 13.2147C23.776 13.2147 23.9706 13.4208 23.9752 14.0737C23.9752 14.2614 23.9752 14.4479 23.9752 14.6344V16.5181H25.705V14.1209C25.705 13.3886 25.879 13.217 26.6208 13.2159H28.9837V11.4772C28.1446 11.4772 27.3318 11.4772 26.5201 11.4772C25.9031 11.4772 25.7096 11.2781 25.7084 10.6482C25.7084 9.83418 25.7084 9.01898 25.7084 8.18421L23.9729 8.18306Z" fill="#0B1030"/>
<path d="M12.3765 1.82912e-06C13.0095 -0.00106914 13.6366 0.12382 14.2214 0.367478C14.8063 0.611135 15.3375 0.968749 15.7844 1.41973C16.2313 1.87071 16.5851 2.40614 16.8254 2.99521C17.0657 3.58427 17.1878 4.21533 17.1846 4.85205C17.1617 7.51526 14.9992 9.67876 12.3765 9.66379C11.7291 9.69039 11.083 9.58511 10.4771 9.35427C9.87116 9.12343 9.31787 8.7718 8.85045 8.3205C8.38304 7.86919 8.01113 7.32753 7.75708 6.72803C7.50303 6.12853 7.37207 5.48358 7.37207 4.8319C7.37207 4.18022 7.50303 3.53526 7.75708 2.93576C8.01113 2.33627 8.38304 1.7946 8.85045 1.34329C9.31787 0.891988 9.87116 0.540357 10.4771 0.30952C11.083 0.0786833 11.7291 -0.0265973 12.3765 1.82912e-06ZM12.3868 8.45596C13.1001 8.45183 13.7961 8.2349 14.3867 7.83264C14.9773 7.43038 15.436 6.86088 15.7046 6.19627C15.9732 5.53167 16.0396 4.80184 15.8956 4.09921C15.7515 3.39658 15.4033 2.75276 14.8952 2.24928C14.387 1.7458 13.7418 1.4053 13.0411 1.27091C12.3405 1.13651 11.6159 1.21427 10.9592 1.49433C10.3025 1.77439 9.74318 2.24415 9.35211 2.84414C8.96104 3.44412 8.75579 4.14733 8.76235 4.86471C8.7747 5.82268 9.16223 6.7371 9.8408 7.40946C10.5194 8.08182 11.4342 8.45786 12.3868 8.45596Z" fill="#0B1030"/>
</g>
</g>
<defs>
<clipPath id="clip0_2164_4747">
<rect width="31" height="40" fill="white"/>
</clipPath>
<clipPath id="clip1_2164_4747">
<rect width="31" height="40" fill="white"/>
</clipPath>
</defs>
</svg>
