<svg width="80" height="61" viewBox="0 0 80 61" fill="none" xmlns="http://www.w3.org/2000/svg">
<g clip-path="url(#clip0_2123_2520)">
<path d="M50.66 13.2317H56.0022C56.0022 12.7779 56.0022 12.3462 56.0022 11.9035C56.0724 10.8978 56.5233 9.95596 57.264 9.26775C58.0046 8.57954 58.9801 8.19611 59.9937 8.1947C61.0073 8.1933 61.9838 8.57403 62.7264 9.26019C63.469 9.94634 63.9225 10.8869 63.9956 11.8924C63.9956 12.3041 63.9956 12.7181 63.9956 13.2561C64.7924 13.2561 65.5537 13.2782 66.3239 13.2561C68.2003 13.1874 69.5025 14.0818 70.148 15.7532C70.8626 17.6017 71.399 19.5166 71.9822 21.416C72.7769 23.9994 73.5404 26.5961 74.335 29.1774C74.4591 29.5658 74.6708 29.9209 74.9538 30.2156C76.3858 31.6811 77.8379 33.1275 79.31 34.5546C79.5423 34.7694 79.7248 35.032 79.8447 35.3241C79.9647 35.6162 80.0192 35.9307 80.0045 36.2459C79.9866 41.2733 80.0045 46.3008 80.0045 51.3282C80.0045 52.5768 79.5481 53.0372 78.3105 53.0417C76.2026 53.0417 74.0946 53.0417 71.931 53.0417C71.3055 56.2029 69.6561 58.6048 66.749 60.0415C64.5409 61.1329 62.2437 61.2569 59.8731 60.5618C55.8664 59.3863 51.5392 54.3876 54.1636 47.7375H29.9922C29.6878 47.7557 29.3823 47.7461 29.0796 47.7087C28.3472 47.5693 27.9666 47.0977 27.9978 46.3605C27.9833 46.0517 28.089 45.7492 28.2929 45.5158C28.4969 45.2825 28.7834 45.1363 29.0929 45.1076C29.3693 45.0768 29.6478 45.0694 29.9254 45.0854C38.3395 45.0854 46.7542 45.0854 55.1697 45.0854C55.771 45.1109 56.3591 44.9056 56.8125 44.5121C60.236 41.6851 65.1597 41.7449 68.6322 44.5652C69.0104 44.8604 69.4719 45.0307 69.9521 45.0522C72.3651 45.0987 74.7802 45.0744 77.2577 45.0744C77.2821 44.8397 77.3222 44.6316 77.3222 44.4102C77.3222 41.9242 77.3422 39.4381 77.3044 36.9521C77.2824 36.5584 77.1253 36.1841 76.8592 35.8917C75.557 34.5325 74.177 33.2463 72.8859 31.8759C72.433 31.4028 72.0896 30.8369 71.8798 30.2178C70.6133 26.1622 69.409 22.0889 68.1758 18.0223C68.0401 17.5795 67.9533 17.0659 67.6706 16.7228C67.3879 16.3797 66.8737 15.9303 66.4597 15.9258C61.2398 15.8727 56.02 15.8904 50.6555 15.8904V40.5118C50.672 40.7872 50.6638 41.0636 50.6311 41.3375C50.4975 42.0681 50.0345 42.4444 49.2955 42.4333C48.5565 42.4223 48.1113 42.0105 48.0111 41.2778C47.987 41.0025 47.9818 40.7258 47.9955 40.4498C47.9955 30.2577 47.9955 20.0641 47.9955 9.86902C47.9955 8.31939 47.6349 7.95855 46.0991 7.95855H4.43851C3.12521 7.95855 2.65776 8.36809 2.65776 9.57902C2.65776 21.2381 2.65776 32.8972 2.65776 44.5563C2.65776 44.6936 2.65776 44.8308 2.68002 45.0301C2.90262 45.05 3.10518 45.0876 3.31441 45.0898C5.62048 45.0898 7.92432 45.1053 10.2304 45.0766C10.5786 45.0658 10.9144 44.9457 11.1898 44.7334C16.7679 40.1045 24.8681 42.8318 26.4574 49.8871C26.4886 50.0199 26.5086 50.1571 26.5554 50.3962H48.6834C48.9609 50.3821 49.2392 50.3881 49.5159 50.4139C50.2526 50.5268 50.6466 50.9784 50.6489 51.7156C50.6511 52.4528 50.2549 52.9066 49.5225 53.0262C49.2461 53.0557 48.9677 53.0631 48.69 53.0483H26.5776C26.0679 55.7469 24.759 57.9186 22.4775 59.4394C20.7867 60.5829 18.7588 61.1286 16.719 60.989C12.4608 60.7455 9.0818 57.6684 8.08236 53.0527H1.97663C0.378409 53.0461 0 52.6875 0 51.1135V25.5048C0 20.2301 0 14.954 0 9.67642C0 6.92915 1.64051 5.31311 4.4118 5.31311C18.3536 5.31311 32.2953 5.31311 46.2371 5.31311C49.044 5.31311 50.6578 6.93358 50.66 9.75169C50.6622 10.8785 50.66 12.0097 50.66 13.2317ZM10.6667 51.751C10.6733 53.062 11.0707 54.3416 11.8086 55.4279C12.5464 56.5142 13.5917 57.3585 14.8121 57.854C16.0325 58.3496 17.3732 58.474 18.6648 58.2116C19.9563 57.9493 21.1406 57.3119 22.0678 56.3801C22.9951 55.4483 23.6237 54.264 23.8741 52.9769C24.1245 51.6898 23.9855 50.3577 23.4747 49.1492C22.9638 47.9406 22.1041 46.9099 21.0042 46.1874C19.9043 45.4648 18.6137 45.0829 17.2955 45.0898C16.4204 45.0942 15.5548 45.27 14.748 45.6071C13.9412 45.9442 13.2091 46.4361 12.5936 47.0547C11.978 47.6733 11.491 48.4064 11.1604 49.2122C10.8297 50.0181 10.662 50.8807 10.6667 51.751ZM55.9955 51.7311C55.9982 53.0421 56.3917 54.3228 57.1263 55.4114C57.8609 56.4999 58.9036 57.3474 60.1225 57.8466C61.3414 58.3457 62.6817 58.4742 63.9741 58.2157C65.2664 57.9572 66.4526 57.3233 67.3827 56.3943C68.3128 55.4653 68.9449 54.2828 69.1992 52.9965C69.4535 51.7101 69.3186 50.3777 68.8114 49.1676C68.3042 47.9575 67.4475 46.9243 66.3498 46.1984C65.2521 45.4726 63.9626 45.0868 62.6444 45.0898C60.8773 45.094 59.1841 45.7959 57.9373 47.0413C56.6904 48.2867 55.992 49.9736 55.9955 51.7311ZM2.70673 50.3387H8.04897C8.31163 49.4532 8.55203 48.6186 8.79243 47.8017H2.70673V50.3387ZM77.2755 47.7884H71.1742C71.4413 48.6739 71.6928 49.5041 71.951 50.3519H77.2933L77.2755 47.7884ZM58.6823 13.2162H61.3356C61.2421 12.3506 61.6472 11.3744 60.7056 10.8608C60.4771 10.7582 60.2289 10.7064 59.9782 10.7091C59.7276 10.7118 59.4805 10.7688 59.2543 10.8763C58.3417 11.4076 58.7179 12.3661 58.6823 13.2162Z" fill="#000137"/>
<path d="M21.3311 30.5034C20.0111 30.5034 18.818 30.5034 17.6272 30.5034C16.4786 30.5034 16.0067 30.0274 16 28.8918C16 27.2912 16 25.6885 16 24.0857C16 23.0453 16.4897 22.5627 17.5248 22.5516C18.7668 22.5383 20.0089 22.5516 21.3289 22.5516C21.3289 21.2898 21.3289 20.1165 21.3289 18.9277C21.3289 17.6902 21.7741 17.2497 23.0473 17.2474C24.6055 17.2474 26.1636 17.2474 27.7218 17.2474C28.8637 17.2474 29.3289 17.719 29.3378 18.8635C29.3378 20.05 29.3378 21.2366 29.3378 22.5494H32.8993C34.2148 22.5494 34.6533 22.9921 34.6578 24.2739C34.6578 25.7925 34.6578 27.3112 34.6578 28.8298C34.6578 30.0274 34.1925 30.4945 33.0083 30.5034C31.8242 30.5122 30.6266 30.5034 29.3267 30.5034C29.3267 31.7276 29.3267 32.9031 29.3267 34.0786C29.3267 35.3692 28.8815 35.8031 27.5659 35.8053C26.0078 35.8053 24.4496 35.8053 22.8915 35.8053C21.8075 35.8053 21.3333 35.3139 21.3333 34.2247C21.3222 33.0138 21.3311 31.8051 21.3311 30.5034ZM24.0022 19.9305C24.0022 21.1547 24.0022 22.3103 24.0022 23.4725C24.0022 24.7631 23.557 25.2015 22.2482 25.2059C21.0684 25.2059 19.8887 25.2059 18.7112 25.2059V27.8624C19.9354 27.8624 21.1196 27.8624 22.3061 27.8624C23.5504 27.8624 23.9978 28.3051 24.0022 29.5648C24.0022 30.7425 24.0022 31.918 24.0022 33.1068H26.6733C26.6733 31.8981 26.6733 30.7447 26.6733 29.5891C26.6733 28.2941 27.1185 27.8624 28.4229 27.858C29.6027 27.858 30.7846 27.858 31.9377 27.858V25.2015C30.7045 25.2015 29.5403 25.2015 28.3762 25.2015C27.1297 25.2015 26.68 24.7454 26.6733 23.5013C26.6733 22.3236 26.6733 21.1481 26.6733 19.9349L24.0022 19.9305Z" fill="#000137"/>
<path d="M61.2132 31.8227C59.132 31.8227 57.0485 31.8227 54.9673 31.8227C53.8187 31.8227 53.3401 31.349 53.3379 30.2155C53.3379 26.8757 53.3379 23.5344 53.3379 20.1917C53.3379 19.0427 53.8031 18.5712 54.9406 18.5668C58.0769 18.5668 61.2155 18.5668 64.3518 18.5668C65.1554 18.5668 65.6562 18.9099 65.8877 19.6736C66.9116 23.0784 67.9578 26.4787 68.9684 29.8901C69.3245 31.0878 68.7347 31.8161 67.4592 31.8227C65.3691 31.8294 63.2856 31.8227 61.2132 31.8227ZM65.8654 29.1441C65.8768 29.0574 65.8768 28.9696 65.8654 28.8829C65.1398 26.4477 64.423 24.0281 63.6618 21.6151C63.6017 21.4292 63.2277 21.2388 62.994 21.2321C61.6362 21.1967 60.2784 21.2144 58.9205 21.2144H56.058V29.1441H65.8654Z" fill="#000137"/>
<path d="M61.3176 2.68312C61.3176 3.15243 61.3466 3.62396 61.3176 4.09106C61.3167 4.26463 61.2793 4.43609 61.2076 4.59437C61.136 4.75265 61.0318 4.89424 60.9018 5.01C60.7717 5.12577 60.6187 5.21314 60.4527 5.26648C60.2866 5.31983 60.1111 5.33795 59.9375 5.3197C59.77 5.32403 59.6033 5.29421 59.4477 5.23207C59.2921 5.16993 59.151 5.0768 59.033 4.95839C58.915 4.83998 58.8226 4.69881 58.7615 4.54356C58.7004 4.38831 58.6718 4.22226 58.6777 4.05564C58.6465 3.14653 58.6465 2.2352 58.6777 1.32166C58.6701 1.14065 58.7014 0.960119 58.7692 0.792006C58.8371 0.623892 58.9401 0.47203 59.0714 0.346466C59.2027 0.220902 59.3593 0.124499 59.5309 0.0636343C59.7025 0.00276993 59.8851 -0.021168 60.0667 -0.00659581C60.8212 0.0177555 61.2887 0.509209 61.3288 1.35044C61.3488 1.79319 61.3288 2.23594 61.3288 2.67869L61.3176 2.68312Z" fill="#000137"/>
<path d="M56.0445 34.4859C56.4897 34.4859 56.9349 34.4616 57.3801 34.4859C57.7167 34.4985 58.0357 34.6388 58.2716 34.8781C58.5074 35.1173 58.6421 35.4373 58.6481 35.7723C58.6541 36.1072 58.5309 36.4318 58.3037 36.6792C58.0766 36.9266 57.7628 37.0781 57.4268 37.1026C56.457 37.1513 55.4852 37.1513 54.5153 37.1026C53.7585 37.0672 53.3111 36.5159 53.32 35.7743C53.3128 35.6083 53.3392 35.4425 53.3974 35.2867C53.4556 35.1309 53.5446 34.9883 53.6591 34.8672C53.7736 34.7461 53.9113 34.649 54.0641 34.5816C54.2168 34.5143 54.3816 34.4779 54.5487 34.4749C54.6044 34.4749 54.66 34.4749 54.7157 34.4749H56.0512L56.0445 34.4859Z" fill="#000137"/>
<path d="M53.6582 1.80427C53.8118 1.91938 54.2347 2.11198 54.4573 2.4374C54.9579 3.19629 55.4149 3.98268 55.8263 4.79283C56.2047 5.51673 55.9932 6.19193 55.3321 6.56384C54.671 6.93575 53.981 6.79628 53.5402 6.09674C53.0349 5.3088 52.5699 4.49606 52.1468 3.66161C51.6794 2.72962 52.3271 1.78877 53.6582 1.80427Z" fill="#000137"/>
<path d="M65.5357 6.77631C64.3359 6.74089 63.6815 5.77127 64.1133 4.90126C64.5589 4.01684 65.0554 3.15869 65.6003 2.3311C65.69 2.1902 65.8079 2.06924 65.9468 1.97582C66.0857 1.88239 66.2425 1.8185 66.4074 1.78816C66.5723 1.75781 66.7417 1.76167 66.905 1.79948C67.0684 1.83729 67.2221 1.90824 67.3565 2.00789C67.9664 2.40858 68.1957 2.97751 67.8462 3.64385C67.3954 4.52263 66.8952 5.37554 66.3482 6.19852C66.1434 6.50845 65.7116 6.65899 65.5357 6.77631Z" fill="#000137"/>
<path d="M21.3266 51.7686C21.3184 52.5594 21.0738 53.3298 20.6239 53.9818C20.1741 54.6339 19.5393 55.1381 18.8005 55.4303C18.0616 55.7224 17.252 55.7893 16.4748 55.6225C15.6976 55.4556 14.9878 55.0626 14.4359 54.4933C13.884 53.9241 13.5149 53.2044 13.3755 52.4259C13.2361 51.6473 13.3328 50.8451 13.6533 50.1214C13.9738 49.3977 14.5035 48.7852 15.1751 48.3619C15.8467 47.9385 16.6297 47.7234 17.4246 47.744C18.4733 47.7791 19.4671 48.2189 20.1955 48.9701C20.9238 49.7213 21.3295 50.7251 21.3266 51.7686ZM17.3333 50.3983C17.1598 50.3951 16.9874 50.4261 16.8261 50.4897C16.6648 50.5532 16.5178 50.6479 16.3935 50.7684C16.2693 50.8889 16.1703 51.0326 16.1024 51.1914C16.0345 51.3502 15.9989 51.5208 15.9977 51.6934C15.976 51.8795 15.9941 52.068 16.0509 52.2467C16.1077 52.4253 16.2018 52.59 16.3271 52.7299C16.4524 52.8698 16.606 52.9818 16.7779 53.0584C16.9498 53.1351 17.136 53.1747 17.3244 53.1747C17.5128 53.1747 17.699 53.1351 17.8709 53.0584C18.0428 52.9818 18.1964 52.8698 18.3217 52.7299C18.447 52.59 18.5411 52.4253 18.5979 52.2467C18.6547 52.068 18.6728 51.8795 18.6511 51.6934C18.6487 51.3479 18.5086 51.0175 18.2615 50.7747C18.0145 50.5319 17.6806 50.3966 17.3333 50.3983Z" fill="#000137"/>
<path d="M62.6313 55.6959C61.8365 55.6923 61.0608 55.4536 60.4027 55.0103C59.7447 54.567 59.2341 53.9391 58.9358 53.2065C58.6376 52.4738 58.5652 51.6694 58.7279 50.8957C58.8905 50.122 59.2809 49.4139 59.8493 48.8614C60.4177 48.3089 61.1385 47.9371 61.9199 47.7931C62.7014 47.6491 63.5083 47.7396 64.238 48.0529C64.9677 48.3662 65.5872 48.8883 66.0177 49.5527C66.4482 50.2172 66.6703 50.9939 66.6558 51.7842C66.6274 52.8285 66.1915 53.8207 65.4403 54.5509C64.6891 55.281 63.6816 55.6917 62.6313 55.6959ZM63.9869 51.7267C63.9598 51.3997 63.8121 51.0943 63.5721 50.8692C63.3321 50.6441 63.0169 50.5153 62.6871 50.5076C62.3574 50.4999 62.0364 50.6139 61.7861 50.8275C61.5357 51.0411 61.3737 51.3393 61.3313 51.6647C61.3072 51.8494 61.3225 52.037 61.376 52.2154C61.4296 52.3939 61.5203 52.5591 61.6422 52.7005C61.7642 52.8418 61.9146 52.956 62.0839 53.0358C62.2531 53.1155 62.4373 53.159 62.6245 53.1634C62.8117 53.1677 62.9977 53.1329 63.1705 53.0612C63.3433 52.9894 63.4989 52.8823 63.6274 52.7468C63.7559 52.6113 63.8543 52.4505 63.9162 52.2747C63.9781 52.099 64.0022 51.9123 63.9869 51.7267Z" fill="#000137"/>
</g>
<defs>
<clipPath id="clip0_2123_2520">
<rect width="80" height="61" fill="white"/>
</clipPath>
</defs>
</svg>
