<svg width="208" height="80" viewBox="0 0 208 80" fill="none" xmlns="http://www.w3.org/2000/svg">
<g clip-path="url(#clip0_2123_2589)">
<path d="M112.637 0C113.865 0.227451 115.115 0.37978 116.32 0.696959C125.097 3.00485 130.689 10.156 130.809 19.181C130.809 19.494 130.828 19.807 130.809 20.1179C130.736 21.2239 130.88 22.2192 131.565 23.1937C132.327 24.283 132.502 25.6122 132.31 26.9498C132.266 27.1473 132.28 27.3533 132.35 27.5434C132.42 27.7335 132.543 27.8996 132.705 28.0223C136.212 31.1524 136.426 36.1939 133.264 39.6766C131.344 41.7925 129.083 43.1113 126.124 42.9673C124.677 42.9109 123.276 42.4486 122.082 41.6339C121.679 41.3584 121.439 41.3835 121.07 41.684C120.4 42.2616 119.676 42.7732 118.907 43.2114C118.248 43.562 118.006 43.9877 118.107 44.6846C118.123 44.9536 118.123 45.2233 118.107 45.4922H119.069C121.607 45.5235 124.159 45.4108 126.683 45.6216C130.496 45.9388 133.587 49.217 133.701 53.0273C133.82 56.9545 133.753 60.8879 133.759 64.8171C133.759 67.9931 133.759 71.1691 133.759 74.345C133.759 77.9237 131.699 79.9791 128.119 79.9791C127.046 79.9791 125.971 79.9791 124.898 79.9791C124.035 79.9791 123.51 79.5388 123.487 78.844C123.464 78.1491 124.01 77.6483 124.906 77.6399C126.11 77.6399 127.315 77.6399 128.52 77.6399C130.2 77.6232 131.384 76.5486 131.389 74.8813C131.412 67.749 131.435 60.6166 131.374 53.4864C131.351 50.4919 129.24 48.1507 126.261 47.9399C123.581 47.75 120.879 47.9003 118.124 47.9003C117.981 50.2854 117.074 52.2823 115.184 53.7931C113.85 54.871 112.179 55.4518 110.459 55.4353C109.461 55.4447 108.47 55.2547 107.547 54.8766C106.623 54.4984 105.786 53.9398 105.084 53.2339C103.595 51.7732 102.889 49.9744 102.774 47.894H99.0906C99.2502 48.1903 99.3699 48.4324 99.5106 48.6661C101.537 52.1571 103.526 55.6732 105.6 59.1309C107.116 61.6474 108.29 64.2433 108.212 67.3462H109.107C112.617 67.3462 116.126 67.3462 119.636 67.3462C119.922 67.331 120.21 67.3584 120.488 67.4276C120.747 67.4917 120.973 67.6496 121.121 67.8704C121.269 68.0912 121.329 68.359 121.288 68.6212C121.28 68.885 121.174 69.1366 120.992 69.3287C120.81 69.5209 120.564 69.6403 120.299 69.6646C120.039 69.6935 119.776 69.7005 119.514 69.6854H106.115V77.6253H106.923C110.851 77.6253 114.78 77.6253 118.71 77.6253C119.018 77.6253 119.438 77.5857 119.61 77.7589C119.925 78.074 120.312 78.5602 120.266 78.9253C120.219 79.2905 119.72 79.6515 119.348 79.9207C119.176 80.048 118.84 79.9624 118.579 79.9624C110.825 79.9624 103.072 80.0021 95.3193 79.9478C90.5358 79.9207 86.8212 77.834 84.2593 73.8129C83.8142 73.116 83.4845 72.7299 82.529 72.8823C81.183 73.0909 79.9588 72.5463 78.9194 71.6678C77.7631 70.694 76.6137 69.7063 75.4714 68.7047C74.9108 68.2307 74.46 67.6417 74.1501 66.9782C73.8402 66.3147 73.6785 65.5924 73.676 64.861C73.6466 63.7675 73.676 62.672 73.5857 61.5828C73.4765 60.1659 73.7327 58.9326 75.0892 58.1251C74.6693 57.401 74.2157 56.7583 73.9301 56.0384C73.4003 54.7426 72.9418 53.419 72.5568 52.0737C72.3468 51.2849 72.7668 50.7152 73.443 50.5984C74.1191 50.4815 74.7029 50.8529 74.831 51.6417C75.211 53.9955 76.4898 55.9236 77.7204 57.8413C78.1109 58.4485 78.9803 58.7532 79.6249 59.1956L79.2995 59.6129L80.8177 57.9936C79.9462 56.5142 79.0349 55.0723 78.2138 53.5657C75.4357 48.5012 78.1172 42.4101 83.7323 41.1832C87.2558 40.4132 90.2418 41.5337 92.3942 44.4029C93.463 45.8508 94.3719 47.4088 95.1051 49.05C97.2806 53.8494 94.4542 59.3876 89.3095 60.6124C89.0827 60.6667 88.8601 60.7272 88.5199 60.8211C88.8874 61.1487 89.1961 61.4158 89.4964 61.6913C91.0524 63.1061 91.2372 65.1782 89.8933 66.7953C88.6564 68.2769 87.3734 69.7167 86.0841 71.1586C85.7712 71.5071 85.7208 71.7492 85.9665 72.1644C87.1256 74.1197 88.6627 75.6492 90.8403 76.6446C90.8697 76.3733 90.9075 76.1834 90.9075 75.9914C90.9075 74.3513 90.9075 72.7112 90.9075 71.0731C90.9075 68.6713 92.243 67.3441 94.6389 67.3379H97.0874C96.974 67.0645 96.8774 66.8621 96.8039 66.6576C96.552 66.0796 96.5039 65.4339 96.6674 64.8253C96.8309 64.2166 97.1964 63.6807 97.7047 63.3043C98.2162 62.9297 98.8431 62.7441 99.4775 62.7795C100.112 62.8149 100.714 63.0691 101.18 63.4984C102.44 64.6252 103.67 65.7937 104.93 66.9414C105.217 67.15 105.522 67.3323 105.842 67.486C105.905 65.4565 105.39 63.4504 104.355 61.6996C101.074 56.0405 97.7915 50.3869 94.5087 44.7389C93.5163 42.9969 92.0444 41.5723 90.266 40.6322C88.4875 39.6921 86.4761 39.2755 84.4678 39.4312C82.4594 39.587 80.5374 40.3086 78.9273 41.5115C77.3171 42.7144 76.0855 44.3486 75.3769 46.2225C75.3106 46.419 75.2342 46.6119 75.148 46.8006C74.8352 47.4141 74.2325 47.6624 73.6403 47.4266C73.3562 47.3169 73.1274 47.1 73.0038 46.8231C72.8803 46.5463 72.872 46.232 72.981 45.9492C73.818 43.264 75.5455 40.9397 77.8821 39.3552C79.3253 38.3561 80.9583 37.6597 82.6813 37.3085C84.4044 36.9573 86.1814 36.9587 87.9039 37.3125C89.6264 37.6663 91.2583 38.3652 92.7 39.3665C94.1418 40.3678 95.3631 41.6505 96.2894 43.1363C96.4012 43.2803 96.495 43.4373 96.5687 43.6037C97.1021 45.2731 98.2633 45.7426 99.9285 45.511C100.823 45.3858 101.751 45.488 102.648 45.488C102.99 44.1838 102.908 44.0106 101.858 43.4013C97.9168 41.0788 95.2941 37.7401 94.0657 33.3434C93.9397 32.8927 93.8011 32.6068 93.2467 32.4795C90.6345 31.8806 88.9441 30.2468 88.3562 27.6551C87.785 25.126 88.5703 22.9537 90.5589 21.2844C90.7428 21.1493 90.8881 20.969 90.9805 20.7611C91.0729 20.5533 91.1093 20.3252 91.086 20.0991C90.9033 15.5501 92.0687 11.385 94.8027 7.71245C98.1331 3.24274 102.65 0.799207 108.183 0.143982C108.408 0.116855 108.637 0.0479942 108.863 0H112.637ZM124.722 23.7133H123.76C120.879 23.7133 117.996 23.7842 115.117 23.6987C109.628 23.5359 105.529 21.0214 102.963 16.1866C102.301 14.9345 101.963 13.526 101.461 12.1467C101.312 12.2635 101.086 12.4305 100.871 12.612C98.8843 14.2566 97.407 16.4272 96.6107 18.8721C95.3046 22.9642 95.5377 27.1981 96.0752 31.3277C96.9152 37.7964 102.486 42.6418 109.172 43.2365C115.499 43.7978 121.582 39.8831 123.823 33.886C125.047 30.6015 124.608 27.2127 124.722 23.7133ZM128.455 21.3699C128.455 20.4768 128.497 19.7006 128.442 18.9264C128.402 17.8884 128.285 16.8548 128.092 15.8339C125.349 3.39506 112.817 0.436121 104.378 3.35124C104.202 3.38764 104.047 3.48937 103.945 3.63561C103.842 3.78185 103.8 3.96155 103.826 4.13793C103.851 6.06396 103.826 7.9879 103.838 9.91184C103.874 16.4307 108.84 21.3595 115.388 21.3699C119.447 21.3699 123.507 21.3699 127.567 21.3699H128.455ZM93.5512 52.418C93.4231 51.792 93.4315 51.0825 93.1312 50.5399C92.1968 48.7767 91.3296 46.9362 90.1116 45.3774C88.3247 43.0946 85.0216 42.6835 82.4996 44.1254C79.9777 45.5673 78.7031 48.6369 79.8076 51.3078C80.5531 53.1128 81.6639 54.7864 82.7474 56.4265C83.4929 57.5471 84.8473 58.0312 86.0589 58.3338C89.8261 59.279 93.4546 56.3034 93.5512 52.418ZM103.698 77.6253C103.698 74.7979 103.698 72.0705 103.685 69.3432C103.668 69.1173 103.568 68.9056 103.404 68.7485C102.211 67.6175 101.003 66.5046 99.7794 65.4098C99.624 65.272 99.3321 65.2825 99.1032 65.222C99.1032 65.4599 99.0003 65.7332 99.0906 65.9231C99.3657 66.5116 99.7206 67.0645 100.027 67.6342C100.701 68.8695 100.237 69.675 98.8261 69.6833C97.3856 69.6833 95.9451 69.6833 94.5066 69.6833C93.8158 69.6833 93.2929 69.9296 93.2824 70.6891C93.2572 72.6673 93.2656 74.6434 93.2824 76.6216C93.2824 77.2476 93.6541 77.6212 94.2589 77.6253C97.3646 77.6378 100.477 77.6253 103.698 77.6253ZM81.9222 70.6077C83.1107 70.5535 83.8121 70.2113 84.3727 69.5644C85.5507 68.206 86.7435 66.8517 87.9152 65.4953C88.6522 64.6377 88.6102 64.0346 87.7619 63.2939C86.5461 62.2276 85.3177 61.1759 84.0871 60.1262C83.2472 59.4022 82.6319 59.4522 81.8697 60.3078C81.141 61.1237 80.4481 61.9771 79.7005 62.7722C78.953 63.5672 77.9388 63.369 77.5776 62.3048C77.4096 61.8144 77.334 61.2844 77.1135 60.8211C76.9833 60.5457 76.6536 60.3662 76.4122 60.1429C76.2505 60.4288 75.9523 60.7105 75.9481 60.9985C75.9313 62.2505 75.9901 63.4921 76.0363 64.7379C76.0678 65.5725 76.2988 66.3217 76.9644 66.8913C78.134 67.8909 79.2743 68.9342 80.4775 69.8857C80.9647 70.2697 81.6093 70.4575 81.9222 70.6077ZM105.208 44.8641C105.208 46.1328 105.113 47.3055 105.229 48.4595C105.478 50.9761 107.526 52.8666 110.083 53.0774C112.492 53.2756 114.913 51.7022 115.467 49.3046C115.806 47.8731 115.736 46.3457 115.862 44.6951C112.2 45.8553 108.746 45.8908 105.208 44.8641ZM131.246 29.9254C130.24 31.2546 128.949 32.1853 127.279 32.4816C126.779 32.5713 126.586 32.7946 126.469 33.2537C125.938 35.3254 124.991 37.2688 123.684 38.9671C123.535 39.1632 123.399 39.3656 123.264 39.5639C126.082 41.5442 129.543 40.722 131.968 37.5753C133.757 35.2444 133.442 31.6803 131.248 29.9254H131.246ZM93.5638 19.8654C93.6793 19.8258 93.757 19.8237 93.7738 19.7903C93.8459 19.6571 93.905 19.5174 93.9502 19.3729C95.124 15.235 97.4759 11.9422 101.075 9.5404C101.235 9.43398 101.451 9.25453 101.455 9.10637C101.484 7.69993 101.472 6.29349 101.472 4.8182C95.5713 8.22578 92.9129 15.2016 93.5638 19.8654ZM93.4399 22.4112C91.6907 22.8285 90.4455 24.5438 90.5316 26.3759C90.6177 28.208 91.8902 29.8023 93.4399 30.0276V22.4112ZM127.069 30.0923C129.673 29.3745 130.864 26.3154 129.427 24.1306C129.359 24.029 129.272 23.9416 129.17 23.8736C129.068 23.8056 128.953 23.7582 128.833 23.7342C128.27 23.6778 127.701 23.7154 127.124 23.7154C127.099 23.845 127.081 23.976 127.071 24.1077C127.069 26.0838 127.069 28.0557 127.069 30.0923Z" fill="#000137"/>
<path d="M110.255 38.0364C109.116 38.0286 108.023 37.5919 107.195 36.8142C106.367 36.0366 105.867 34.976 105.795 33.8463C105.745 33.0555 106.138 32.5108 106.818 32.4294C107.498 32.3481 108.065 32.7529 108.111 33.5604C108.183 34.85 109.317 35.9414 110.77 35.6242C111.652 35.4301 112.217 34.7791 112.397 33.7462C112.578 32.7132 113.027 32.3168 113.783 32.4378C114.539 32.5588 114.852 33.1347 114.724 34.1238C114.593 35.2078 114.066 36.206 113.241 36.9277C112.417 37.6495 111.354 38.0442 110.255 38.0364Z" fill="#000137"/>
<path d="M103.834 27.5319C103.834 27.9993 103.851 28.4647 103.834 28.93C103.803 29.6624 103.345 30.1382 102.69 30.1507C102.003 30.1653 101.524 29.6749 101.487 28.8987C101.474 28.6399 101.474 28.3791 101.487 28.1204C101.506 27.6529 101.472 27.269 101.035 26.908C100.79 26.6993 100.693 26.1547 100.75 25.7916C100.85 25.128 101.554 24.8797 102.703 24.9757C103.372 25.032 103.752 25.393 103.826 26.0503C103.872 26.5386 103.826 27.0353 103.826 27.5256L103.834 27.5319Z" fill="#000137"/>
<path d="M116.721 27.5779V26.257C116.721 25.6059 117.011 25.0947 117.662 25.0217C118.382 24.9445 119.228 24.7233 119.711 25.5496C120.083 26.1881 119.875 26.7244 119.291 27.1731C119.149 27.2837 119.1 27.5633 119.081 27.7719C119.048 28.2101 119.098 28.6546 119.054 29.0907C119.045 29.2402 119.006 29.3864 118.939 29.5207C118.872 29.655 118.779 29.7748 118.666 29.8731C118.552 29.9713 118.42 30.0461 118.277 30.0931C118.133 30.14 117.982 30.1582 117.832 30.1466C117.54 30.1466 117.26 30.0315 117.053 29.8265C116.847 29.6215 116.73 29.3434 116.73 29.0532C116.688 28.5649 116.73 28.0703 116.73 27.5779H116.721Z" fill="#000137"/>
<path d="M87.3755 47.9545C87.7955 47.508 88.0474 47.0259 88.4044 46.9258C88.7614 46.8256 89.3956 46.9612 89.6412 47.2325C90.1103 47.753 90.4593 48.369 90.6639 49.0375C90.7647 49.3735 90.5169 49.9786 90.2229 50.2144C89.9625 50.4231 89.2234 50.4794 89.0428 50.2854C88.4296 49.6176 87.9718 48.8163 87.3755 47.9545Z" fill="#000137"/>
<path d="M85.5316 52.4117C85.1453 52.852 84.9017 53.3445 84.5573 53.4551C84.2129 53.5657 83.5578 53.4551 83.3142 53.1943C82.8432 52.6783 82.4894 52.0677 82.2769 51.4039C82.2418 51.1887 82.2594 50.9683 82.3281 50.7612C82.3968 50.5542 82.5146 50.3667 82.6716 50.2144C82.9614 49.9953 83.7216 49.9307 83.9315 50.1372C84.5237 50.7737 84.9563 51.5687 85.5316 52.4117Z" fill="#000137"/>
</g>
<defs>
<clipPath id="clip0_2123_2589">
<rect width="63" height="80" fill="white" transform="translate(72.5)"/>
</clipPath>
</defs>
</svg>
