<svg width="40" height="40" viewBox="0 0 40 40" fill="none" xmlns="http://www.w3.org/2000/svg">
<path d="M0 3.04061C0.163542 2.74894 0.416667 2.64686 0.74375 2.65207C1.62708 2.66665 2.51458 2.6354 3.39375 2.67082C3.65689 2.69119 3.90608 2.79731 4.10313 2.9729C4.78542 3.60936 5.43021 4.2854 6.11771 4.97394C7.00417 4.08436 7.86667 3.2229 8.72188 2.35623C9.18646 1.88748 9.74271 1.71144 10.3563 1.93957C10.6958 2.06665 10.9812 2.33019 11.3375 2.55832C11.3667 2.53436 11.4479 2.47603 11.5188 2.40832C11.9354 2.01769 12.1615 2.02082 12.5729 2.42811C12.7021 2.55623 12.8292 2.68644 12.9573 2.81561C13.7375 3.60103 13.8125 4.2479 13.1656 5.28853C13.3435 5.40112 13.5111 5.52904 13.6667 5.67082C14.0833 6.10207 14.0698 6.61873 13.6573 7.0604C13.449 7.28853 13.224 7.50936 12.9969 7.72186C12.5448 8.13853 12.0292 8.13853 11.5771 7.70727C11.4375 7.57394 11.3177 7.41978 11.1854 7.27186L10.4167 8.0479C10.5789 8.16751 10.733 8.29765 10.8781 8.43748C11.2833 8.86665 11.2854 9.40207 10.8885 9.83332C10.6865 10.0531 10.4719 10.2614 10.2573 10.4687C9.78021 10.925 9.24896 10.9302 8.78021 10.4687C8.6514 10.3245 8.53338 10.1709 8.42708 10.0094L7.59375 10.8427C7.76875 10.9719 7.97188 11.0792 8.11458 11.2385C8.52188 11.676 8.50625 12.1833 8.09167 12.6281C7.8875 12.8462 7.67674 13.0576 7.45938 13.2625C6.99167 13.7052 6.47292 13.7062 6.00833 13.2625C5.87511 13.1171 5.75092 12.9637 5.63646 12.8031C5.11563 13.175 4.62292 13.3552 4.07396 13.1791C3.39375 12.9614 2.97292 12.4166 2.57292 11.8781C2.4875 11.7635 2.59688 11.4729 2.67188 11.2844C2.725 11.1521 2.87083 11.0573 2.98958 10.9312L2.68438 10.6083C2.06563 9.9479 2.05938 9.05311 2.68438 8.40519C3.45521 7.61353 4.24062 6.84269 5.02708 6.06248C5.14741 5.96691 5.27809 5.88515 5.41667 5.81873C4.7 5.09686 4.09167 4.47915 3.46563 3.8729C3.3553 3.78924 3.21965 3.74586 3.08125 3.74998C2.32708 3.73853 1.57396 3.73123 0.820833 3.74998C0.488542 3.76248 0.208333 3.69478 0 3.43123V3.04061ZM3.87604 11.6781C4.36042 12.2896 4.54688 12.3031 5.11146 11.7375L12.1365 4.71144C12.675 4.1729 12.6573 3.96873 12.0594 3.49686L3.87604 11.6781ZM3.76042 10.0948L10.4781 3.37707C9.98333 2.79165 9.83854 2.78332 9.29375 3.32707L3.70417 8.91769C3.16667 9.45519 3.17708 9.61873 3.76042 10.0948ZM6.88542 11.5083L6.40938 11.9791L6.70938 12.3958L7.24792 11.9364L6.88542 11.5083ZM12.8021 6.37186L12.4333 5.95519L11.9313 6.46665L12.3156 6.86561L12.8021 6.37186ZM9.46875 9.6229L9.98958 9.11561L9.70417 8.76978L9.16667 9.28332L9.46875 9.6229Z" fill="#03045E"/>
<path d="M16.6824 12.3687C16.1012 11.7833 15.7012 11.1114 15.5637 10.3062C15.5262 10.0887 15.5064 9.86856 15.5043 9.64788C15.498 8.63434 15.4887 7.62079 15.5043 6.60725C15.5251 5.17496 16.5803 4.13746 18.0043 4.12809C18.8105 4.12184 19.6158 4.12288 20.421 4.12809C21.8178 4.13538 22.8793 5.06558 22.9564 6.45621C23.0189 7.59579 22.9908 8.74788 22.9564 9.88434C22.923 10.8458 22.4991 11.6552 21.773 12.375C22.8251 12.6802 23.6897 13.2083 24.3241 14.0739C24.9585 14.9395 25.2366 15.926 25.196 17.0406C25.971 17.1302 26.7262 17.2198 27.4824 17.3041C29.1605 17.4895 30.8397 17.6573 32.5147 17.8656C33.348 17.9698 33.973 18.4104 34.2585 19.227C34.3345 19.4354 34.4439 19.4906 34.6491 19.501C35.1699 19.527 35.6908 19.5718 36.2033 19.6239C37.2741 19.7281 37.7793 20.2156 37.8908 21.2906C37.9366 21.7364 37.898 22.1916 37.898 22.6843C37.9678 22.701 38.0887 22.7333 38.2105 22.7583C38.6797 22.8513 39.1036 23.1004 39.4131 23.4651C39.7225 23.8298 39.8994 24.2886 39.9147 24.7666C39.9314 25.2989 39.9262 25.8323 39.9147 26.3645C39.9074 26.7812 39.7064 26.9729 39.2783 26.9781C38.747 26.9843 38.2147 26.9781 37.6335 26.9781C37.6439 27.75 37.4314 28.426 36.8741 28.9573C36.3168 29.4885 35.646 29.6552 34.8605 29.6281V30.0708C34.8605 32.3326 34.8605 34.5934 34.8605 36.8531C34.8605 37.8323 34.4699 38.2229 33.4949 38.226C33.1189 38.226 32.7418 38.226 32.3647 38.226C31.5762 38.2145 31.1418 37.7843 31.1293 36.9885C31.1178 36.3 31.1293 35.6114 31.1293 34.9229V29.6458H10.7418V36.7614C10.7418 37.8531 10.3647 38.2198 9.26159 38.226H8.36471C7.41367 38.226 7.01055 37.8239 7.01055 36.8823C7.01055 34.6218 7.01055 32.3611 7.01055 30.1V29.6375C6.24076 29.6458 5.55221 29.4875 4.99076 28.951C4.4293 28.4145 4.22826 27.7583 4.23555 26.9791C3.69388 26.9791 3.17721 26.9791 2.65951 26.9791C2.1418 26.9791 1.95534 26.7916 1.95117 26.2781C1.95117 25.8364 1.95117 25.3948 1.95117 24.9531C1.95846 23.7031 2.73763 22.8406 3.97617 22.7083C4.05221 22.7 4.1293 22.6948 4.27617 22.6823C4.05534 20.8875 4.88346 20.0906 6.73034 20.3145C5.60951 18.7718 5.46784 17.2489 6.62617 15.776C7.5168 14.6385 8.76159 14.2354 10.148 14.6145C11.8762 15.0875 12.6949 16.3333 12.7522 18.1104C12.8093 18.1065 12.8661 18.0985 12.922 18.0864C13.0262 18.0552 13.1397 18.0156 13.296 17.9635C13.296 17.4052 13.2376 16.8406 13.3064 16.2968C13.5501 14.3573 14.6168 13.0677 16.4824 12.4604C16.5387 12.4343 16.597 12.4052 16.6824 12.3687ZM33.2845 25.8666V25.4895C33.2845 23.684 33.2845 21.8784 33.2845 20.0729C33.2845 19.3583 33.0001 19.0229 32.2803 18.9385C30.8491 18.7708 29.4158 18.6198 27.9835 18.4604C24.8085 18.1062 21.6335 17.7513 18.4585 17.3958C17.647 17.3062 17.3012 17.6312 17.3012 18.4489C17.3012 20.7878 17.3012 23.1267 17.3012 25.4656V25.8635L33.2845 25.8666ZM36.5137 27.002H5.36784C5.26367 27.9395 5.84596 28.5312 6.84701 28.5312H35.0241C35.0887 28.5312 35.1533 28.5312 35.2189 28.5312C36.0501 28.4989 36.5897 27.8729 36.5116 27.002H36.5137ZM16.1637 18.0666C16.5876 16.7062 17.2772 16.1864 18.5064 16.3073C19.548 16.4114 20.5949 16.5406 21.6387 16.6562C22.447 16.7458 23.2543 16.8302 24.0855 16.9198C24.0928 16.8218 24.1001 16.7593 24.1001 16.6968C24.1085 14.8375 22.6345 13.3979 20.6626 13.3635C19.7147 13.3468 18.7668 13.3541 17.8189 13.3635C17.5333 13.361 17.2484 13.3918 16.9699 13.4552C15.0699 13.9312 14.0533 15.5625 14.4095 17.9L16.1637 18.0666ZM16.1918 23.7958H15.7064C11.9564 23.7958 8.20326 23.7958 4.44701 23.7958C4.26549 23.7898 4.08381 23.8006 3.9043 23.8281C3.4668 23.9104 3.15117 24.1781 3.08659 24.6104C3.02617 25.027 3.07409 25.451 3.07409 25.8656H16.1918V23.7958ZM16.597 8.12496C16.597 8.68642 16.5824 9.21767 16.597 9.74683C16.6408 11.0448 17.6658 12.1427 18.9272 12.2531C20.3074 12.377 21.5522 11.5406 21.796 10.2312C21.923 9.55413 21.8824 8.84475 21.9189 8.12496H16.597ZM11.6324 17.9333C11.6301 17.4686 11.4901 17.0151 11.23 16.63C10.9699 16.245 10.6015 15.9457 10.1713 15.7701C9.7411 15.5944 9.26848 15.5504 8.81322 15.6434C8.35796 15.7364 7.94052 15.9624 7.61371 16.2927C7.28689 16.623 7.06539 17.0428 6.97721 17.4991C6.88904 17.9553 6.93815 18.4274 7.11835 18.8557C7.29854 19.284 7.60172 19.6492 7.98953 19.9052C8.37734 20.1612 8.83235 20.2964 9.29701 20.2937C9.606 20.2935 9.91187 20.2319 10.1969 20.1127C10.482 19.9935 10.7406 19.8189 10.9578 19.5991C11.175 19.3794 11.3464 19.1187 11.4622 18.8322C11.578 18.5457 11.6359 18.2391 11.6324 17.9302V17.9333ZM16.1949 19.1666C15.4658 19.1052 14.7741 19.0354 14.0772 18.9948C13.8565 18.9927 13.6367 19.0236 13.4251 19.0864C12.598 19.2948 12.048 19.9198 12.0012 20.6854C11.948 21.5343 12.3783 22.1875 13.2293 22.5C14.196 22.8573 15.1949 22.6385 16.1949 22.7083V19.1666ZM9.622 37.1166V29.6468H8.13138V37.1166H9.622ZM33.7501 29.6562H32.2522V37.1073H33.7501V29.6562ZM34.396 25.8583H38.8251C38.8251 25.4927 38.8376 25.1562 38.8251 24.8166C38.8012 24.2823 38.447 23.8364 37.9158 23.8187C36.7522 23.7791 35.5866 23.8062 34.3991 23.8062L34.396 25.8583ZM21.8449 6.99163C22.0158 5.96767 21.4147 5.22079 20.4324 5.22079C19.6262 5.21454 18.8206 5.21454 18.0158 5.22079C17.0324 5.23017 16.423 6.01663 16.6522 6.99163H21.8449ZM5.4168 22.6729H11.5105C11.347 22.3416 11.1543 22.0479 11.0553 21.7177C10.9678 21.4302 10.8251 21.376 10.5574 21.3781C9.19596 21.3906 7.83346 21.3989 6.47201 21.3781C5.33659 21.3625 5.31263 21.4531 5.3793 22.6281C5.37826 22.6375 5.39284 22.6468 5.4168 22.6729ZM34.4064 20.5708V22.7C35.096 22.7 35.7605 22.7114 36.4158 22.6885C36.4846 22.6768 36.5498 22.649 36.6059 22.6074C36.662 22.5658 36.7075 22.5115 36.7387 22.4489C36.9105 21.9807 36.8918 21.4639 36.6866 21.0093C36.6598 20.947 36.6201 20.8912 36.5699 20.8456C36.5198 20.7999 36.4605 20.7656 36.396 20.7448C35.7418 20.6698 35.0845 20.625 34.4064 20.5708Z" fill="#03045E"/>
<path d="M32.1707 12.8218H25.3124C24.5686 12.8218 24.4395 12.6958 24.4395 11.9687V3.46976C24.4395 2.75309 24.5717 2.61768 25.2728 2.61768H39.1113C39.7686 2.61768 39.9217 2.7708 39.9217 3.41351V12.0291C39.9217 12.6718 39.7707 12.8208 39.1092 12.8208L32.1707 12.8218ZM25.5509 11.6968H38.802V3.73434H25.5509V11.6968Z" fill="#03045E"/>
<path d="M32.4279 8.40728C32.1936 9.2677 31.53 9.21145 30.8759 9.18228C30.655 9.17291 30.4332 9.19478 30.2144 9.17291C29.8873 9.14166 29.6779 8.96458 29.6884 8.61562C29.6988 8.26666 29.9082 8.10624 30.2446 8.09478C30.2574 8.0927 30.2704 8.0927 30.2832 8.09478C31.1415 8.29791 31.5654 7.84999 31.7956 7.09583C31.8289 6.94162 31.9006 6.79831 32.004 6.67916C32.1623 6.53228 32.379 6.33645 32.5529 6.35208C32.7269 6.3677 32.9404 6.58645 33.0373 6.76874C33.1821 7.03853 33.2394 7.35416 33.3352 7.65103C33.4311 7.94791 33.529 8.24062 33.6592 8.63437C33.7925 8.22395 33.8998 7.9052 34.0009 7.57499C34.0852 7.30937 34.2175 7.09999 34.53 7.08541C34.8592 7.06874 35.0165 7.26666 35.1207 7.54791C35.2717 7.96458 35.4332 8.36874 35.5957 8.77708C36.3425 8.53749 37.0936 8.66458 37.8342 8.67291C38.1238 8.67291 38.2936 8.91458 38.2811 9.21458C38.2675 9.53437 38.0654 9.7177 37.7602 9.73541C37.3852 9.75833 37.005 9.7177 36.6311 9.7552C36.4509 9.77395 36.2727 9.89166 36.1102 9.99583C36.0061 10.0635 35.9425 10.1927 35.8488 10.2812C35.5363 10.574 35.1363 10.5083 34.9498 10.125C34.8373 9.89374 34.755 9.64895 34.6165 9.30312C34.4696 9.75416 34.3457 10.1094 34.2384 10.4687C34.1488 10.7687 33.9998 11 33.654 10.9896C33.329 10.9833 33.1904 10.7562 33.1019 10.475C32.879 9.78437 32.6519 9.09687 32.4279 8.40728Z" fill="#03045E"/>
<path d="M27.547 5.53543C27.2615 5.53543 26.9772 5.54168 26.6928 5.53543C26.3095 5.52502 26.073 5.30835 26.0782 4.98335C26.0782 4.67085 26.3095 4.45522 26.6688 4.44897C27.239 4.43856 27.8084 4.43856 28.3772 4.44897C28.7355 4.44897 28.9667 4.67189 28.974 4.98022C28.9813 5.28856 28.7417 5.52502 28.3615 5.53543C28.0907 5.54168 27.8188 5.53543 27.547 5.53543Z" fill="#03045E"/>
<path d="M27.5189 10.9927C27.221 10.9927 26.923 11.0021 26.6262 10.9927C26.2897 10.9792 26.0876 10.7844 26.0845 10.4542C26.0814 10.124 26.2855 9.91983 26.6189 9.91045C27.2147 9.89587 27.8095 9.89691 28.4053 9.91045C28.7553 9.91774 28.996 10.1605 28.9699 10.4688C28.9418 10.799 28.747 10.9782 28.4116 10.9959H27.5189V10.9927Z" fill="#03045E"/>
<path d="M27.5002 7.34479C27.2033 7.34479 26.9054 7.35209 26.6085 7.34479C26.54 7.34897 26.4712 7.33891 26.4067 7.31524C26.3422 7.29157 26.2833 7.2548 26.2337 7.20725C26.1841 7.15969 26.1449 7.10239 26.1185 7.03893C26.0921 6.97548 26.0791 6.90725 26.0804 6.83854C26.0617 6.52604 26.244 6.29479 26.5544 6.28125C27.1981 6.25313 27.846 6.25209 28.4908 6.28125C28.8033 6.29584 28.9825 6.52813 28.9627 6.84063C28.9632 6.90871 28.9498 6.97618 28.9233 7.0389C28.8969 7.10162 28.8578 7.15827 28.8087 7.20537C28.7595 7.25248 28.7013 7.28905 28.6375 7.31285C28.5737 7.33664 28.5057 7.34716 28.4377 7.34375C28.1252 7.35104 27.8127 7.34479 27.5002 7.34479Z" fill="#03045E"/>
<path d="M27.5364 8.09377C27.8333 8.09377 28.1312 8.08648 28.4281 8.09377C28.7697 8.10419 28.9624 8.30211 28.9666 8.63023C28.9726 8.69937 28.964 8.769 28.9413 8.83458C28.9186 8.90016 28.8823 8.96022 28.8349 9.01083C28.7874 9.06145 28.7298 9.1015 28.6658 9.12835C28.6018 9.15521 28.5329 9.16827 28.4635 9.16669C27.844 9.18961 27.2239 9.18961 26.6031 9.16669C26.5304 9.17041 26.4578 9.1582 26.3904 9.13091C26.323 9.10363 26.2623 9.06193 26.2127 9.00874C26.1631 8.95555 26.1257 8.89215 26.1032 8.82299C26.0806 8.75382 26.0735 8.68057 26.0822 8.60836C26.0968 8.27711 26.3031 8.09586 26.6416 8.08752C26.9395 8.08752 27.2364 8.08752 27.5343 8.08752L27.5364 8.09377Z" fill="#03045E"/>
</svg>
