<svg width="31" height="40" viewBox="0 0 31 40" fill="none" xmlns="http://www.w3.org/2000/svg">
<g clip-path="url(#clip0_2164_3512)">
<g clip-path="url(#clip1_2164_3512)">
<path d="M19.7496 0C20.3541 0.113725 20.9689 0.18989 21.562 0.348479C25.881 1.50243 28.6326 5.07799 28.6915 9.59048C28.6915 9.74699 28.7008 9.90349 28.6915 10.0589C28.6554 10.6119 28.7267 11.1096 29.0635 11.5968C29.4386 12.1415 29.5243 12.8061 29.4303 13.4749C29.4086 13.5737 29.4154 13.6767 29.4498 13.7717C29.4842 13.8667 29.5449 13.9498 29.6246 14.0112C31.3501 15.5762 31.4555 18.0969 29.8994 19.8383C28.955 20.8962 27.8422 21.5556 26.3863 21.4836C25.6743 21.4555 24.9847 21.2243 24.3973 20.8169C24.1989 20.6792 24.0811 20.6917 23.8992 20.842C23.5698 21.1308 23.2134 21.3866 22.835 21.6057C22.5105 21.781 22.3917 21.9938 22.4413 22.3423C22.4493 22.4768 22.4493 22.6116 22.4413 22.7461H22.9145C24.1638 22.7617 25.4192 22.7054 26.6612 22.8108C28.5376 22.9694 30.0585 24.6085 30.1143 26.5136C30.1732 28.4772 30.1402 30.4439 30.1433 32.4086C30.1433 33.9966 30.1433 35.5845 30.1433 37.1725C30.1433 38.9619 29.1296 39.9896 27.3679 39.9896C26.8399 39.9896 26.3109 39.9896 25.7829 39.9896C25.3582 39.9896 25.0999 39.7694 25.0885 39.422C25.0772 39.0745 25.3458 38.8241 25.787 38.82C26.3791 38.82 26.9722 38.82 27.5653 38.82C28.3919 38.8116 28.9746 38.2743 28.9767 37.4407C28.9881 33.8745 28.9994 30.3083 28.9695 26.7432C28.9581 25.246 27.9197 24.0753 26.4535 23.97C25.135 23.875 23.8052 23.9501 22.4496 23.9501C22.3793 25.1427 21.9329 26.1412 21.003 26.8966C20.3465 27.4355 19.5242 27.7259 18.6782 27.7177C18.1867 27.7224 17.6994 27.6274 17.245 27.4383C16.7906 27.2492 16.3785 26.9699 16.033 26.6169C15.3004 25.8866 14.9532 24.9872 14.8964 23.947H13.0841C13.1626 24.0952 13.2215 24.2162 13.2907 24.333C14.2878 26.0786 15.2663 27.8366 16.2872 29.5654C17.0332 30.8237 17.6108 32.1217 17.5726 33.6731H18.0127C19.7397 33.6731 21.4666 33.6731 23.1935 33.6731C23.3346 33.6655 23.476 33.6792 23.613 33.7138C23.7405 33.7458 23.8515 33.8248 23.9244 33.9352C23.9972 34.0456 24.0266 34.1795 24.0067 34.3106C24.0025 34.4425 23.9507 34.5683 23.8611 34.6644C23.7714 34.7604 23.6502 34.8201 23.52 34.8323C23.3917 34.8467 23.2625 34.8502 23.1336 34.8427H16.5403V38.8127H16.9381C18.871 38.8127 20.8043 38.8127 22.7379 38.8127C22.8897 38.8127 23.0964 38.7928 23.1811 38.8794C23.3361 39.037 23.5262 39.2801 23.5035 39.4627C23.4808 39.6453 23.2348 39.8258 23.052 39.9604C22.9672 40.024 22.8019 39.9812 22.6738 39.9812C18.8579 39.9812 15.0431 40.001 11.2283 39.9739C8.87454 39.9604 7.0467 38.917 5.78611 36.9065C5.56706 36.558 5.40484 36.365 4.9347 36.4411C4.27238 36.5455 3.66999 36.2732 3.15852 35.8339C2.58954 35.347 2.024 34.8531 1.4619 34.3523C1.18603 34.1153 0.964231 33.8209 0.811734 33.4891C0.659237 33.1574 0.579657 32.7962 0.57846 32.4305C0.563994 31.8838 0.57846 31.336 0.534029 30.7914C0.4803 30.0829 0.606358 29.4663 1.27385 29.0625C1.06719 28.7005 0.844009 28.3792 0.703485 28.0192C0.442771 27.3713 0.217185 26.7095 0.0277299 26.0368C-0.0755966 25.6424 0.131056 25.3576 0.463767 25.2992C0.796479 25.2408 1.08373 25.4265 1.14676 25.8209C1.33378 26.9978 1.96303 27.9618 2.56853 28.9207C2.76071 29.2243 3.18849 29.3766 3.5057 29.5978L3.34554 29.8065L4.09259 28.9968C3.66379 28.2571 3.21535 27.5361 2.81134 26.7828C1.44434 24.2506 2.76381 21.2051 5.52676 20.5916C7.26058 20.2066 8.72988 20.7669 9.78898 22.2015C10.3149 22.9254 10.7621 23.7044 11.1229 24.525C12.1934 26.9247 10.8026 29.6938 8.27111 30.3062C8.15952 30.3333 8.05 30.3636 7.88261 30.4106C8.06343 30.5744 8.21532 30.7079 8.36308 30.8456C9.12872 31.553 9.21965 32.5891 8.55836 33.3977C7.94977 34.1385 7.31844 34.8584 6.68402 35.5793C6.53006 35.7536 6.50526 35.8746 6.62616 36.0822C7.19652 37.0598 7.95287 37.8246 9.02436 38.3223C9.03883 38.1867 9.05743 38.0917 9.05743 37.9957C9.05743 37.1756 9.05743 36.3556 9.05743 35.5365C9.05743 34.3356 9.71458 33.6721 10.8935 33.6689H12.0983C12.0425 33.5323 11.995 33.4311 11.9588 33.3288C11.8349 33.0398 11.8112 32.7169 11.8917 32.4126C11.9721 32.1083 12.152 31.8403 12.4021 31.6521C12.6538 31.4648 12.9623 31.372 13.2744 31.3898C13.5866 31.4075 13.8829 31.5346 14.1122 31.7492C14.7321 32.3126 15.3376 32.8969 15.9576 33.4707C16.0986 33.575 16.2487 33.6661 16.406 33.743C16.4374 32.7282 16.1837 31.7252 15.6745 30.8498C14.0598 28.0202 12.4448 25.1935 10.8295 22.3694C10.3411 21.4985 9.61688 20.7862 8.74176 20.3161C7.86663 19.846 6.8769 19.6377 5.88868 19.7156C4.90045 19.7935 3.95471 20.1543 3.16239 20.7557C2.37008 21.3572 1.76405 22.1743 1.4154 23.1113C1.38279 23.2095 1.3452 23.306 1.30278 23.4003C1.14882 23.707 0.852275 23.8312 0.560894 23.7133C0.421097 23.6585 0.308485 23.55 0.247685 23.4116C0.186885 23.2731 0.182846 23.116 0.236449 22.9746C0.648296 21.632 1.49836 20.4699 2.64809 19.6776C3.35826 19.1781 4.16179 18.8299 5.00964 18.6543C5.8575 18.4787 6.73189 18.4793 7.57948 18.6562C8.42706 18.8332 9.23006 19.1826 9.93948 19.6832C10.6489 20.1839 11.2499 20.8252 11.7057 21.5682C11.7607 21.6401 11.8069 21.7186 11.8431 21.8019C12.1056 22.6365 12.677 22.8713 13.4963 22.7555C13.9365 22.6929 14.3932 22.744 14.8344 22.744C15.0028 22.0919 14.9625 22.0053 14.4459 21.7007C12.5065 20.5394 11.2159 18.87 10.6115 16.6717C10.5495 16.4463 10.4813 16.3034 10.2085 16.2398C8.9231 15.9403 8.09133 15.1234 7.80201 13.8275C7.52096 12.563 7.9074 11.4769 8.88591 10.6422C8.97637 10.5746 9.04787 10.4845 9.09334 10.3806C9.13882 10.2767 9.15671 10.1626 9.14526 10.0496C9.05536 7.77505 9.62882 5.69252 10.9741 3.85623C12.6129 1.62137 14.8354 0.399604 17.5581 0.0719912C17.6687 0.0584277 17.7813 0.0239971 17.8929 0H19.7496ZM25.6961 11.8566H25.2229C23.8052 11.8566 22.3865 11.8921 20.9699 11.8493C18.269 11.768 16.2521 10.5107 14.9894 8.09328C14.6639 7.46726 14.4976 6.763 14.2506 6.07335C14.1773 6.13177 14.0657 6.21524 13.9603 6.30601C12.9825 7.12832 12.2556 8.21361 11.8638 9.43607C11.2211 11.4821 11.3358 13.599 11.6003 15.6638C12.0136 18.8982 14.7548 21.3209 18.0448 21.6182C21.158 21.8989 24.1514 19.9416 25.2538 16.943C25.8562 15.3007 25.6403 13.6063 25.6961 11.8566ZM27.5332 10.685C27.5332 10.2384 27.5539 9.85028 27.527 9.46319C27.507 8.94421 27.4493 8.42741 27.3545 7.91695C26.005 1.69753 19.8385 0.21806 15.6858 1.67562C15.5994 1.69382 15.5231 1.74469 15.4726 1.81781C15.4221 1.89092 15.4011 1.98077 15.4141 2.06897C15.4265 3.03198 15.4141 3.99395 15.4203 4.95592C15.4378 8.21535 17.8815 10.6797 21.1032 10.685C23.1009 10.685 25.0985 10.685 27.0962 10.685H27.5332ZM10.3583 26.209C10.2953 25.896 10.2994 25.5412 10.1517 25.27C9.69185 24.3883 9.26511 23.4681 8.66582 22.6887C7.78651 21.5473 6.16119 21.3417 4.92024 22.0627C3.67929 22.7837 3.0521 24.3184 3.59559 25.6539C3.9624 26.5564 4.509 27.3932 5.04216 28.2133C5.40897 28.7735 6.07543 29.0156 6.67162 29.1669C8.5253 29.6395 10.3108 28.1517 10.3583 26.209ZM15.351 38.8127C15.351 37.3989 15.351 36.0353 15.3448 34.6716C15.3365 34.5587 15.2872 34.4528 15.2064 34.3742C14.6195 33.8088 14.025 33.2523 13.423 32.7049C13.3465 32.636 13.2029 32.6412 13.0903 32.611C13.0903 32.7299 13.0396 32.8666 13.0841 32.9616C13.2194 33.2558 13.394 33.5323 13.5449 33.8171C13.8766 34.4348 13.6482 34.8375 12.9539 34.8417C12.245 34.8417 11.5362 34.8417 10.8284 34.8417C10.4885 34.8417 10.2312 34.9648 10.2261 35.3446C10.2137 36.3337 10.2178 37.3217 10.2261 38.3108C10.2261 38.6238 10.4089 38.8106 10.7065 38.8127C12.2347 38.8189 13.766 38.8127 15.351 38.8127ZM4.63609 35.3039C5.22092 35.2767 5.56603 35.1056 5.84191 34.7822C6.42157 34.103 7.00847 33.4258 7.58503 32.7477C7.9477 32.3188 7.92704 32.0173 7.5096 31.6469C6.91134 31.1138 6.30688 30.5879 5.70139 30.0631C5.28808 29.7011 4.98533 29.7261 4.61026 30.1539C4.25172 30.5618 3.91074 30.9886 3.5429 31.3861C3.17505 31.7836 2.67599 31.6845 2.49827 31.1524C2.4156 30.9072 2.37841 30.6422 2.26991 30.4106C2.20585 30.2728 2.04363 30.1831 1.9248 30.0715C1.84524 30.2144 1.69852 30.3553 1.69645 30.4992C1.68819 31.1253 1.71712 31.746 1.73985 32.3689C1.75535 32.7863 1.86901 33.1608 2.19655 33.4457C2.77208 33.9454 3.33314 34.4671 3.9252 34.9429C4.16492 35.1349 4.48213 35.2288 4.63609 35.3039ZM16.094 22.4321C16.094 23.0664 16.0475 23.6528 16.1043 24.2297C16.2273 25.488 17.2347 26.4333 18.4932 26.5387C19.6784 26.6378 20.8697 25.8511 21.1425 24.6523C21.3088 23.9366 21.2747 23.1728 21.3367 22.3475C19.5347 22.9276 17.835 22.9454 16.094 22.4321ZM28.9064 14.9627C28.4115 15.6273 27.776 16.0926 26.9546 16.2408C26.7087 16.2857 26.6136 16.3973 26.5558 16.6268C26.2946 17.6627 25.8286 18.6344 25.1857 19.4835C25.1123 19.5816 25.0451 19.6828 24.979 19.7819C26.3656 20.7721 28.0685 20.361 29.2619 18.7876C30.1422 17.6222 29.9872 15.8402 28.9075 14.9627H28.9064ZM10.3645 9.9327C10.4213 9.91288 10.4596 9.91184 10.4678 9.89514C10.5033 9.82856 10.5324 9.75868 10.5546 9.68647C11.1322 7.61751 12.2895 5.9711 14.0605 4.7702C14.139 4.71699 14.2454 4.62726 14.2475 4.55318C14.262 3.84997 14.2558 3.14675 14.2558 2.4091C11.3523 4.11289 10.0442 7.60081 10.3645 9.9327ZM10.3035 11.2056C9.44284 11.4143 8.83011 12.2719 8.87247 13.188C8.91484 14.104 9.541 14.9011 10.3035 15.0138V11.2056ZM26.8513 15.0462C28.1325 14.6873 28.7184 13.1577 28.0116 12.0653C27.9782 12.0145 27.9351 11.9708 27.885 11.9368C27.8348 11.9028 27.7785 11.8791 27.7192 11.8671C27.4423 11.8389 27.1623 11.8577 26.8781 11.8577C26.8659 11.9225 26.8572 11.988 26.8523 12.0538C26.8513 13.0419 26.8513 14.0279 26.8513 15.0462Z" fill="#0B1030"/>
<path d="M18.5781 19.0182C18.0176 19.0143 17.4795 18.7959 17.0722 18.4071C16.6649 18.0183 16.4188 17.488 16.3835 16.9232C16.3587 16.5277 16.5519 16.2554 16.8867 16.2147C17.2215 16.174 17.5004 16.3764 17.5232 16.7802C17.5583 17.425 18.1163 17.9707 18.8313 17.8121C19.2653 17.7151 19.5432 17.3895 19.6321 16.8731C19.7209 16.3566 19.942 16.1584 20.314 16.2189C20.686 16.2794 20.8399 16.5674 20.7769 17.0619C20.7127 17.6039 20.4529 18.103 20.0473 18.4639C19.6417 18.8247 19.1187 19.0221 18.5781 19.0182Z" fill="#0B1030"/>
<path d="M15.4182 13.766C15.4182 13.9997 15.4265 14.2323 15.4182 14.465C15.4027 14.8312 15.1774 15.0691 14.8551 15.0754C14.5172 15.0827 14.2816 14.8375 14.263 14.4493C14.2568 14.32 14.2568 14.1896 14.263 14.0602C14.2723 13.8265 14.2558 13.6345 14.0409 13.454C13.92 13.3497 13.8724 13.0773 13.9003 12.8958C13.9499 12.564 14.2961 12.4399 14.8613 12.4878C15.1909 12.516 15.3779 12.6965 15.4141 13.0252C15.4368 13.2693 15.4141 13.5176 15.4141 13.7628L15.4182 13.766Z" fill="#0B1030"/>
<path d="M21.7594 13.7889V13.1284C21.7594 12.8029 21.902 12.5473 22.2223 12.5108C22.5768 12.4722 22.9932 12.3616 23.2308 12.7747C23.4137 13.094 23.3114 13.3621 23.0242 13.5865C22.9539 13.6418 22.9301 13.7816 22.9208 13.8859C22.9043 14.105 22.9291 14.3272 22.9074 14.5453C22.9028 14.6201 22.8836 14.6931 22.8508 14.7603C22.8179 14.8274 22.7722 14.8873 22.7162 14.9365C22.6603 14.9856 22.5952 15.023 22.5248 15.0465C22.4543 15.07 22.38 15.0791 22.306 15.0732C22.1624 15.0732 22.0245 15.0157 21.9228 14.9132C21.8211 14.8107 21.7639 14.6716 21.7636 14.5265C21.7429 14.2824 21.7636 14.0351 21.7636 13.7889H21.7594Z" fill="#0B1030"/>
<path d="M7.31934 23.9773C7.52599 23.754 7.64998 23.513 7.82564 23.4629C8.00129 23.4128 8.31334 23.4806 8.43423 23.6163C8.66502 23.8765 8.83675 24.1845 8.93743 24.5188C8.98703 24.6867 8.8651 24.9893 8.72044 25.1072C8.59232 25.2115 8.22861 25.2397 8.13975 25.1427C7.83803 24.8088 7.61278 24.4082 7.31934 23.9773Z" fill="#0B1030"/>
<path d="M6.41245 26.2058C6.22233 26.426 6.10247 26.6722 5.93302 26.7275C5.76356 26.7828 5.44118 26.7275 5.32133 26.5971C5.08956 26.3391 4.91547 26.0338 4.81089 25.7019C4.79364 25.5943 4.80229 25.4841 4.8361 25.3806C4.86991 25.2771 4.92789 25.1833 5.00515 25.1072C5.14774 24.9976 5.52178 24.9653 5.62511 25.0686C5.91649 25.3868 6.12934 25.7843 6.41245 26.2058Z" fill="#0B1030"/>
</g>
</g>
<defs>
<clipPath id="clip0_2164_3512">
<rect width="31" height="40" fill="white"/>
</clipPath>
<clipPath id="clip1_2164_3512">
<rect width="31" height="40" fill="white"/>
</clipPath>
</defs>
</svg>
