<svg width="34" height="34" viewBox="0 0 34 34" fill="none" xmlns="http://www.w3.org/2000/svg">
<g clip-path="url(#clip0_670_8103)">
<path d="M24.7495 10.6076C25.5301 11.3882 25.5045 12.6795 24.6922 13.4918C24.021 14.1629 23.4492 14.7856 22.4132 14.7369C19.022 14.5777 17.3263 14.4981 16.2635 13.4352C15.2006 12.3723 15.121 10.6767 14.9618 7.28551C14.9131 6.24936 15.5359 5.67754 16.207 5.00636C17.0192 4.19414 18.3104 4.16845 19.0909 4.94898" stroke="#00B4D8" stroke-width="1.5" stroke-linecap="round" stroke-linejoin="round"/>
<path d="M13.4348 16.2634L10.9601 18.7382C9.20264 20.4956 9.20264 23.3451 10.9601 25.1025C12.7176 26.8601 15.5671 26.8601 17.3245 25.1026L18.3851 24.0421" stroke="#00B4D8" stroke-width="1.5" stroke-linecap="round" stroke-linejoin="round"/>
<path d="M21.9202 14.8493L18.6973 16.2305C17.8406 16.5977 17.4122 16.7812 16.9559 16.8277C16.4995 16.8741 16.0429 16.7806 15.1298 16.5936L13.4134 16.242L13.0817 14.5418C12.9061 13.6417 12.8183 13.1917 12.8661 12.7427C12.9139 12.2937 13.0945 11.8722 13.4558 11.0293L14.8491 7.7782" stroke="#00B4D8" stroke-width="1.5" stroke-linecap="round" stroke-linejoin="round"/>
<path d="M22.6274 24.0416C21.4558 25.2132 19.5564 25.2132 18.3848 24.0416C17.2132 22.87 17.2132 20.9705 18.3848 19.7989C19.5564 18.6273 21.4558 18.6273 22.6274 19.7989C23.799 20.9705 23.799 22.87 22.6274 24.0416Z" stroke="#00B4D8" stroke-width="1.5"/>
<path d="M20.5117 21.9259L20.5054 21.9196" stroke="#00B4D8" stroke-width="2" stroke-linecap="round" stroke-linejoin="round"/>
</g>
<defs>
<clipPath id="clip0_670_8103">
<rect width="24" height="24" fill="white" transform="translate(16.9705) rotate(45)"/>
</clipPath>
</defs>
</svg>
